<svg width="305" height="43" viewBox="0 0 305 43" fill="none" xmlns="http://www.w3.org/2000/svg">
<path d="M0.021964 4.64495C-0.0171083 3.23039 -0.0366445 2.5231 0.257136 1.95551C0.491368 1.50297 0.880875 1.11286 1.33857 0.872395C1.91263 0.570801 2.64897 0.570801 4.12164 0.570801C5.63532 0.570801 6.39216 0.570801 6.96201 0.866851C7.42512 1.10745 7.80056 1.47785 8.04183 1.93218C8.3387 2.49122 8.32975 3.2266 8.31185 4.69737C8.21359 12.7717 8.04491 30.1617 8.36624 33.4708C8.55999 35.466 8.57559 37.5501 8.5359 39.2195C8.51474 40.1094 8.50416 40.5544 8.33772 40.9691C8.07873 41.6144 7.48422 42.1807 6.81651 42.4182C6.38742 42.5708 5.89929 42.5708 4.92303 42.5708C3.31874 42.5708 2.5166 42.5708 2.06385 42.3988C1.23176 42.0826 0.794154 41.6234 0.531803 40.7911C0.389055 40.3382 0.453909 39.4794 0.583618 37.7617C0.828928 34.5132 0.977084 29.3637 0.64004 21.5708C0.28413 13.0579 0.108566 7.78027 0.021964 4.64495Z" fill="white"/>
<path d="M19.9571 4.64495C19.9962 3.23039 20.0157 2.5231 19.7219 1.95551C19.4877 1.50297 19.0982 1.11286 18.6405 0.872395C18.0664 0.570801 17.3301 0.570801 15.8574 0.570801C14.3437 0.570801 13.5869 0.570801 13.017 0.866851C12.5539 1.10745 12.1785 1.47785 11.9372 1.93218C11.6403 2.49122 11.6493 3.2266 11.6672 4.69737C11.7655 12.7717 11.9341 30.1617 11.6128 33.4708C11.4191 35.466 11.4035 37.5501 11.4432 39.2195C11.4643 40.1094 11.4749 40.5544 11.6413 40.9691C11.9003 41.6144 12.4948 42.1807 13.1625 42.4182C13.5916 42.5708 14.0798 42.5708 15.056 42.5708C16.6603 42.5708 17.4625 42.5708 17.9152 42.3988C18.7473 42.0826 19.1849 41.6234 19.4472 40.7911C19.59 40.3382 19.5251 39.4794 19.3954 37.7617C19.1501 34.5132 19.002 29.3637 19.339 21.5708C19.6949 13.0579 19.8705 7.78027 19.9571 4.64495Z" fill="white"/>
<path d="M42.9328 4.64495C42.9719 3.23039 42.9914 2.5231 42.6976 1.95551C42.4634 1.50297 42.0739 1.11286 41.6162 0.872395C41.0421 0.570801 40.3058 0.570801 38.8331 0.570801C37.3194 0.570801 36.5626 0.570801 35.9927 0.866851C35.5296 1.10745 35.1542 1.47785 34.9129 1.93218C34.616 2.49122 34.625 3.2266 34.6429 4.69737C34.7411 12.7717 34.9098 30.1617 34.5885 33.4708C34.3948 35.466 34.3792 37.5501 34.4188 39.2195C34.44 40.1094 34.4506 40.5544 34.617 40.9691C34.876 41.6144 35.4705 42.1807 36.1382 42.4182C36.5673 42.5708 37.0555 42.5708 38.0317 42.5708C39.636 42.5708 40.4381 42.5708 40.8909 42.3988C41.723 42.0826 42.1606 41.6234 42.4229 40.7911C42.5657 40.3382 42.5008 39.4794 42.3711 37.7617C42.1258 34.5132 41.9777 29.3637 42.3147 21.5708C42.6706 13.0579 42.8462 7.78027 42.9328 4.64495Z" fill="white"/>
<path d="M22.9977 38.4967C22.9586 39.9112 22.939 40.6185 23.2328 41.1861C23.4671 41.6386 23.8566 42.0287 24.3143 42.2692C24.8883 42.5708 25.6247 42.5708 27.0973 42.5708C28.611 42.5708 29.3679 42.5708 29.9377 42.2747C30.4008 42.0342 30.7762 41.6637 31.0175 41.2094C31.3144 40.6504 31.3054 39.915 31.2875 38.4442C31.1893 30.3699 31.0206 12.9799 31.3419 9.6708C31.5357 7.67555 31.5513 5.59153 31.5116 3.92207C31.4904 3.03217 31.4799 2.58722 31.3134 2.17253C31.0544 1.52723 30.4599 0.960895 29.7922 0.723412C29.3631 0.570801 28.875 0.570801 27.8987 0.570801C26.2944 0.570801 25.4923 0.570801 25.0395 0.742846C24.2074 1.05904 23.7698 1.51824 23.5075 2.35051C23.3647 2.80336 23.4296 3.6622 23.5593 5.37988C23.8046 8.62843 23.9528 13.7779 23.6157 21.5708C23.2598 30.0837 23.0843 35.3613 22.9977 38.4967Z" fill="white"/>
<path d="M66.916 34.9408C64.243 34.9408 61.9746 34.3893 60.1109 33.2863C58.2472 32.1714 56.831 30.6248 55.8623 28.6466C54.8937 26.6685 54.4093 24.3726 54.4093 21.759C54.4093 19.2773 54.9059 17.0474 55.8991 15.0693C56.9045 13.0791 58.3391 11.5086 60.2028 10.3576C62.0788 9.19471 64.3288 8.61325 66.9527 8.61325C69.7974 8.61325 72.1393 9.2067 73.9785 10.3936C75.8177 11.5685 77.1849 13.151 78.08 15.1412C78.9873 17.1193 79.441 19.3253 79.441 21.759C79.441 23.3655 79.2019 24.9541 78.7237 26.5246C78.2455 28.0832 77.4975 29.4979 76.4798 30.7687C75.4744 32.0395 74.1808 33.0526 72.5991 33.8078C71.0174 34.5631 69.123 34.9408 66.916 34.9408ZM67.2102 32.9087C68.792 32.9087 70.1039 32.4471 71.1461 31.524C72.1884 30.6008 72.967 29.342 73.4819 27.7475C74.0092 26.153 74.2728 24.3486 74.2728 22.3345C74.2728 19.9967 73.9969 17.9526 73.4452 16.2022C72.9057 14.4518 72.0658 13.0911 70.9254 12.12C69.7974 11.1369 68.3567 10.6454 66.6033 10.6454C64.9357 10.6454 63.587 11.1369 62.557 12.12C61.5271 13.0911 60.773 14.3739 60.2948 15.9684C59.8289 17.5509 59.5959 19.2773 59.5959 21.1476C59.5959 23.4255 59.8595 25.4516 60.3868 27.226C60.9263 29.0003 61.76 30.391 62.8881 31.3981C64.0161 32.4052 65.4569 32.9087 67.2102 32.9087Z" fill="white"/>
<path d="M81.3784 34.3653V33.2144L83.5854 32.567C83.8429 32.4831 84.0391 32.3632 84.174 32.2073C84.3211 32.0515 84.3947 31.8477 84.3947 31.5959V10.9331C84.3947 10.6334 84.3088 10.3936 84.1372 10.2138C83.9778 10.0219 83.7264 9.86608 83.3831 9.74619L81.2496 8.97291V7.98383L88.8823 6.9408V31.5959C88.8823 31.8597 88.9559 32.0695 89.103 32.2253C89.2624 32.3692 89.4525 32.4831 89.6732 32.567L91.7147 33.2144V34.3653H81.3784Z" fill="white"/>
<path d="M93.473 34.3653V33.2144L95.7536 32.567C95.9866 32.4951 96.1767 32.3812 96.3238 32.2253C96.4709 32.0695 96.5445 31.8597 96.5445 31.5959V19.9967C96.5445 19.697 96.4648 19.4572 96.3054 19.2773C96.146 19.0975 95.8885 18.9417 95.5329 18.8098L93.5466 18.0904V17.1014L101.051 15.9864V31.5959C101.051 31.8597 101.124 32.0695 101.271 32.2253C101.418 32.3812 101.608 32.4951 101.841 32.567L103.993 33.2144V34.3653H93.473Z" fill="white"/>
<path d="M113.598 34.5272L106.792 18.8457C106.682 18.594 106.535 18.4022 106.351 18.2703C106.179 18.1264 105.928 17.9885 105.597 17.8567L104.254 17.3172V16.1842H113.873V17.3172L111.188 18.0545L115.069 27.154L115.97 29.5998H116.08L120.513 18.3422L117.938 17.3172V16.1842H125.166V17.3172L123.787 18.0904C123.505 18.2343 123.266 18.3782 123.069 18.522C122.873 18.6539 122.72 18.8457 122.61 19.0975L117.736 30.6428L115.731 34.5272H113.598Z" fill="white"/>
<path d="M134.962 34.7789C133.184 34.7789 131.603 34.4193 130.217 33.7C128.844 32.9806 127.765 31.9196 126.98 30.5169C126.208 29.1142 125.822 27.3938 125.822 25.3557C125.822 23.6053 126.196 21.9988 126.943 20.5362C127.704 19.0735 128.777 17.8986 130.162 17.0114C131.548 16.1243 133.191 15.6807 135.091 15.6807C136.771 15.6807 138.193 16.0224 139.358 16.7057C140.523 17.3771 141.412 18.2583 142.025 19.3493C142.638 20.4403 142.945 21.5972 142.945 22.8201C142.945 22.9639 142.938 23.1677 142.926 23.4315C142.914 23.6833 142.896 23.935 142.871 24.1868C142.859 24.4266 142.84 24.6124 142.816 24.7443H130.199L130.272 23.0179H138.291C138.291 21.9629 138.181 21.0217 137.96 20.1945C137.752 19.3673 137.39 18.7139 136.875 18.2343C136.372 17.7548 135.68 17.515 134.797 17.515C133.939 17.515 133.227 17.7248 132.663 18.1444C132.099 18.564 131.658 19.1215 131.339 19.8168C131.02 20.5002 130.794 21.2555 130.659 22.0827C130.536 22.898 130.475 23.7072 130.475 24.5105C130.475 25.9012 130.659 27.166 131.026 28.305C131.407 29.4319 132.05 30.3251 132.958 30.9845C133.877 31.6439 135.134 31.9736 136.728 31.9736C137.635 31.9736 138.445 31.8717 139.156 31.6678C139.867 31.452 140.492 31.2003 141.032 30.9125C141.584 30.6128 142.043 30.3491 142.411 30.1213H142.908V31.7757C142.037 32.4711 140.903 33.1485 139.505 33.8078C138.12 34.4552 136.605 34.7789 134.962 34.7789Z" fill="white"/>
<path d="M145.172 34.3653V33.2144L147.213 32.585C147.446 32.5131 147.636 32.3992 147.783 32.2433C147.93 32.0755 148.004 31.8657 148.004 31.6139V20.1226C148.004 19.7629 147.93 19.4752 147.783 19.2594C147.636 19.0436 147.379 18.8757 147.011 18.7558L145.061 18.0365V17.0474L152.271 15.8246V19.8348H152.344C152.859 19.0436 153.393 18.3362 153.945 17.7128C154.496 17.0894 155.103 16.5978 155.765 16.2382C156.427 15.8665 157.175 15.6807 158.009 15.6807C158.671 15.6807 159.223 15.7406 159.665 15.8605C160.118 15.9804 160.572 16.1542 161.026 16.382V21.4713H159.021L158.377 20.0866C158.267 19.8588 158.009 19.661 157.605 19.4931C157.212 19.3253 156.82 19.2414 156.427 19.2414C155.912 19.2414 155.428 19.3133 154.975 19.4572C154.533 19.601 154.11 19.8228 153.705 20.1226C153.301 20.4223 152.896 20.8179 152.492 21.3095V31.6139C152.492 32.1294 152.761 32.4531 153.301 32.585L155.802 33.2144V34.3653H145.172Z" fill="white"/>
<path d="M101.015 9.9158C101.015 11.5588 99.653 12.8908 97.9726 12.8908C96.2922 12.8908 94.93 11.5588 94.93 9.9158C94.93 8.27275 96.2922 6.9408 97.9726 6.9408C99.653 6.9408 101.015 8.27275 101.015 9.9158Z" fill="white"/>
<path d="M169.912 33.3583L169.6 26.3808H171.2L172.542 29.9414C172.591 30.1093 172.708 30.2831 172.892 30.463C173.076 30.6428 173.235 30.7747 173.37 30.8586C173.897 31.1943 174.504 31.5 175.191 31.7757C175.877 32.0515 176.564 32.2733 177.251 32.4411C177.937 32.597 178.538 32.6749 179.053 32.6749C180.61 32.6749 181.849 32.2793 182.768 31.488C183.688 30.6967 184.148 29.6597 184.148 28.3769C184.148 27.3698 183.854 26.5606 183.265 25.9491C182.676 25.3257 181.837 24.8042 180.745 24.3846C179.777 24.001 178.814 23.6952 177.858 23.4675C176.901 23.2277 175.957 22.922 175.025 22.5503C173.554 21.9748 172.407 21.1296 171.586 20.0147C170.764 18.8997 170.354 17.5869 170.354 16.0763C170.354 14.6496 170.758 13.3788 171.568 12.2639C172.389 11.1369 173.486 10.2497 174.86 9.60233C176.245 8.94294 177.772 8.61325 179.439 8.61325C180.42 8.61325 181.377 8.67319 182.309 8.79308C183.253 8.90098 184.148 9.04485 184.994 9.22468C185.852 9.40451 186.637 9.59633 187.348 9.80015V16.3461H185.748L184.552 13.0012C184.491 12.8333 184.375 12.6715 184.203 12.5156C184.044 12.3598 183.89 12.2339 183.743 12.138C183.412 11.8982 182.977 11.6884 182.437 11.5086C181.898 11.3167 181.34 11.1669 180.764 11.059C180.187 10.9511 179.678 10.8971 179.237 10.8971C177.815 10.8971 176.705 11.2508 175.908 11.9581C175.123 12.6655 174.731 13.4927 174.731 14.4398C174.731 15.375 174.976 16.2082 175.467 16.9395C175.957 17.6588 176.877 18.2523 178.225 18.7199C179.145 19.0436 180.052 19.3253 180.948 19.5651C181.843 19.8049 182.811 20.1345 183.854 20.5542C184.687 20.8779 185.472 21.3155 186.208 21.8669C186.956 22.4064 187.563 23.1018 188.029 23.953C188.494 24.7922 188.727 25.8113 188.727 27.0102C188.727 28.3289 188.366 29.5998 187.642 30.8226C186.931 32.0335 185.809 33.0226 184.276 33.7899C182.744 34.5572 180.764 34.9408 178.336 34.9408C177.453 34.9408 176.533 34.8629 175.577 34.707C174.621 34.5632 173.664 34.3713 172.708 34.1316C171.751 33.8798 170.82 33.622 169.912 33.3583Z" fill="white"/>
<path d="M191.135 34.3653V33.2144L193.416 32.567C193.649 32.4951 193.839 32.3812 193.986 32.2253C194.133 32.0695 194.206 31.8597 194.206 31.5959V19.9967C194.206 19.697 194.127 19.4572 193.967 19.2773C193.808 19.0975 193.551 18.9417 193.195 18.8098L191.209 18.0904V17.1014L198.713 15.9864V31.5959C198.713 31.8597 198.786 32.0695 198.933 32.2253C199.08 32.3812 199.27 32.4951 199.503 32.567L201.655 33.2144V34.3653H191.135Z" fill="white"/>
<path d="M203.351 34.3653V33.2144L205.355 32.585C205.588 32.5131 205.778 32.3992 205.926 32.2433C206.085 32.0755 206.165 31.8657 206.165 31.6139V19.9068C206.165 19.607 206.079 19.3673 205.907 19.1874C205.748 18.9956 205.496 18.8398 205.153 18.7199L203.351 18.0365V17.0474L210.468 15.8246V18.8098H210.56C211.235 17.8986 211.909 17.2213 212.583 16.7777C213.258 16.3341 213.932 16.0404 214.607 15.8965C215.281 15.7526 215.949 15.6807 216.611 15.6807C217.727 15.6807 218.733 15.8965 219.628 16.3281C220.535 16.7597 221.252 17.443 221.78 18.3782C222.307 19.3013 222.57 20.5122 222.57 22.0108V31.542C222.57 31.8297 222.65 32.0575 222.81 32.2253C222.969 32.3812 223.159 32.5011 223.38 32.585L225.145 33.2144V34.3653H215.489V33.2144L217.292 32.585C217.513 32.5011 217.697 32.3812 217.844 32.2253C218.003 32.0575 218.083 31.8297 218.083 31.542V23.6293C218.083 22.5503 217.997 21.6332 217.825 20.8779C217.654 20.1106 217.316 19.5291 216.814 19.1335C216.311 18.7378 215.557 18.54 214.551 18.54C213.889 18.54 213.197 18.6419 212.473 18.8457C211.75 19.0496 211.143 19.4931 210.652 20.1765V31.6139C210.652 31.8776 210.726 32.0815 210.873 32.2253C211.032 32.3692 211.222 32.4891 211.443 32.585L213.025 33.2144V34.3653H203.351Z" fill="white"/>
<path d="M242.471 30.0673H242.986V31.7398C242.152 32.4471 241.104 33.1305 239.841 33.7899C238.59 34.4493 237.155 34.7789 235.537 34.7789C233.747 34.7789 232.22 34.3773 230.957 33.5741C229.694 32.7588 228.726 31.6678 228.051 30.3011C227.389 28.9224 227.058 27.3938 227.058 25.7154C227.058 24.3486 227.297 23.0658 227.775 21.8669C228.254 20.6561 228.94 19.5891 229.835 18.6659C230.743 17.7428 231.822 17.0234 233.072 16.5079C234.335 15.9924 235.739 15.7346 237.284 15.7346C238.228 15.7346 239.038 15.8186 239.712 15.9864C240.386 16.1542 240.95 16.3461 241.404 16.5619C241.87 16.7777 242.256 16.9635 242.563 17.1193L242.085 20.7879H241.33C240.73 20.3683 240.086 19.9547 239.399 19.5471C238.725 19.1275 238.032 18.7798 237.321 18.5041C236.622 18.2163 235.905 18.0725 235.169 18.0725C234.814 18.0725 234.464 18.1624 234.121 18.3422C233.777 18.522 233.465 18.7918 233.183 19.1515C232.974 19.4152 232.76 19.7989 232.539 20.3024C232.318 20.7939 232.128 21.4054 231.969 22.1367C231.822 22.868 231.748 23.7132 231.748 24.6723C231.748 26.9742 232.232 28.7605 233.201 30.0314C234.17 31.3022 235.66 31.9376 237.67 31.9376C238.357 31.9376 239.001 31.8357 239.602 31.6319C240.202 31.4161 240.742 31.1643 241.22 30.8766C241.711 30.5769 242.127 30.3071 242.471 30.0673Z" fill="white"/>
<path d="M244.508 34.3653V33.2144L246.715 32.567C246.973 32.4831 247.169 32.3632 247.304 32.2073C247.451 32.0515 247.525 31.8477 247.525 31.5959V10.9331C247.525 10.6334 247.439 10.3936 247.267 10.2138C247.108 10.0219 246.856 9.86608 246.513 9.74619L244.38 8.97291V7.98383L252.012 6.9408V31.5959C252.012 31.8597 252.086 32.0695 252.233 32.2253C252.392 32.3692 252.582 32.4831 252.803 32.567L254.845 33.2144V34.3653H244.508Z" fill="white"/>
<path d="M262.029 34.725C260.999 34.725 260.097 34.4912 259.325 34.0237C258.553 33.5441 257.952 32.9267 257.523 32.1714C257.106 31.4041 256.897 30.5828 256.897 29.7077C256.897 28.5567 257.185 27.5856 257.762 26.7944C258.35 25.9911 259.092 25.3437 259.987 24.8522C260.894 24.3606 261.851 24.001 262.856 23.7732C263.862 23.5454 264.794 23.4315 265.652 23.4315C265.811 23.4315 266.063 23.4495 266.406 23.4854C266.749 23.5094 267.099 23.5394 267.454 23.5754C267.81 23.5993 268.067 23.6113 268.227 23.6113L268.245 21.0577C268.257 19.8468 268.049 19.0136 267.62 18.558C267.191 18.1024 266.498 17.8746 265.542 17.8746C264.99 17.8746 264.426 17.9825 263.849 18.1983C263.273 18.4141 262.703 18.6899 262.139 19.0256C261.587 19.3493 261.072 19.679 260.594 20.0147C260.116 20.3503 259.705 20.6261 259.362 20.8419H258.645L258.185 17.2632C258.798 16.9995 259.466 16.7477 260.189 16.5079C260.913 16.2681 261.704 16.0703 262.562 15.9145C263.433 15.7586 264.383 15.6807 265.413 15.6807C266.578 15.6807 267.724 15.8545 268.852 16.2022C269.98 16.5499 270.912 17.1553 271.648 18.0185C272.383 18.8697 272.745 20.0566 272.733 21.5792L272.641 30.9125C272.641 31.2962 272.782 31.6079 273.064 31.8477C273.346 32.0875 273.72 32.2073 274.186 32.2073C274.357 32.2073 274.609 32.1774 274.94 32.1174C275.271 32.0455 275.571 31.9676 275.841 31.8836H276.209V33.1964C275.964 33.3763 275.596 33.5861 275.105 33.8258C274.627 34.0656 274.106 34.2754 273.542 34.4552C272.99 34.6351 272.463 34.725 271.96 34.725C270.82 34.725 269.925 34.4972 269.275 34.0416C268.638 33.5861 268.319 32.7948 268.319 31.6678H268.208C267.608 32.567 266.933 33.2384 266.185 33.682C265.45 34.1136 264.72 34.3953 263.997 34.5272C263.273 34.6591 262.617 34.725 262.029 34.725ZM264.512 32.0635C265.137 32.0635 265.799 31.9376 266.498 31.6858C267.197 31.4221 267.761 30.9725 268.19 30.3371L268.227 25.1039C266.89 25.1039 265.725 25.2298 264.732 25.4816C263.739 25.7214 262.967 26.123 262.415 26.6865C261.875 27.2499 261.606 28.0052 261.606 28.9524C261.606 29.7436 261.753 30.367 262.047 30.8226C262.354 31.2782 262.728 31.6019 263.169 31.7937C263.623 31.9736 264.07 32.0635 264.512 32.0635Z" fill="white"/>
<path d="M276.93 34.3653V33.2144L279.211 32.567C279.444 32.4951 279.634 32.3812 279.781 32.2253C279.928 32.0695 280.002 31.8597 280.002 31.5959V19.9967C280.002 19.697 279.922 19.4572 279.763 19.2773C279.603 19.0975 279.346 18.9417 278.99 18.8098L277.004 18.0904V17.1014L284.508 15.9864V31.5959C284.508 31.8597 284.581 32.0695 284.729 32.2253C284.876 32.3812 285.066 32.4951 285.299 32.567L287.451 33.2144V34.3653H276.93Z" fill="white"/>
<path d="M289.146 34.3653V33.2144L291.188 32.585C291.421 32.5131 291.611 32.3992 291.758 32.2433C291.905 32.0755 291.978 31.8657 291.978 31.6139V20.1226C291.978 19.7629 291.905 19.4752 291.758 19.2594C291.611 19.0436 291.353 18.8757 290.985 18.7558L289.036 18.0365V17.0474L296.245 15.8246V19.8348H296.319C296.834 19.0436 297.367 18.3362 297.919 17.7128C298.471 17.0894 299.078 16.5978 299.74 16.2382C300.402 15.8665 301.15 15.6807 301.984 15.6807C302.646 15.6807 303.198 15.7406 303.639 15.8605C304.093 15.9804 304.546 16.1542 305 16.382V21.4713H302.995L302.352 20.0866C302.241 19.8588 301.984 19.661 301.579 19.4931C301.187 19.3253 300.794 19.2414 300.402 19.2414C299.887 19.2414 299.403 19.3133 298.949 19.4572C298.508 19.601 298.085 19.8228 297.68 20.1226C297.275 20.4223 296.871 20.8179 296.466 21.3095V31.6139C296.466 32.1294 296.736 32.4531 297.275 32.585L299.777 33.2144V34.3653H289.146Z" fill="white"/>
<path d="M198.666 9.9158C198.666 11.5588 197.303 12.8908 195.623 12.8908C193.943 12.8908 192.58 11.5588 192.58 9.9158C192.58 8.27275 193.943 6.9408 195.623 6.9408C197.303 6.9408 198.666 8.27275 198.666 9.9158Z" fill="white"/>
<path d="M284.504 9.9158C284.504 11.5588 283.141 12.8908 281.461 12.8908C279.781 12.8908 278.418 11.5588 278.418 9.9158C278.418 8.27275 279.781 6.9408 281.461 6.9408C283.141 6.9408 284.504 8.27275 284.504 9.9158Z" fill="white"/>
</svg>
