<svg width="256" height="36" viewBox="0 0 256 36" fill="none" xmlns="http://www.w3.org/2000/svg">
<path d="M0.0183885 3.49213C-0.0143232 2.27964 -0.0306791 1.6734 0.215276 1.1869C0.411377 0.799002 0.737477 0.46462 1.12067 0.25851C1.60128 0 2.21774 0 3.45067 0C4.71794 0 5.35158 0 5.82866 0.253757C6.21638 0.459983 6.5307 0.777468 6.73269 1.16689C6.98124 1.64607 6.97375 2.2764 6.95876 3.53706C6.8765 10.4579 6.73527 25.3636 7.00429 28.2C7.1665 29.9102 7.17956 31.6965 7.14633 33.1275C7.12862 33.8903 7.11976 34.2716 6.98042 34.6271C6.76359 35.1802 6.26586 35.6656 5.70684 35.8692C5.34761 36 4.93894 36 4.12161 36C2.77848 36 2.10692 36 1.72787 35.8525C1.03124 35.5815 0.664874 35.1879 0.445231 34.4745C0.325721 34.0864 0.380017 33.3502 0.48861 31.8779C0.693986 29.0935 0.818024 24.6796 0.535848 18C0.237876 10.7032 0.0908927 6.17955 0.0183885 3.49213Z" fill="#5366AA"/>
<path d="M16.7083 3.49213C16.741 2.27964 16.7573 1.6734 16.5114 1.1869C16.3153 0.799002 15.9892 0.46462 15.606 0.25851C15.1254 0 14.5089 0 13.276 0C12.0087 0 11.3751 0 10.898 0.253757C10.5103 0.459983 10.1959 0.777468 9.99395 1.16689C9.7454 1.64607 9.7529 2.2764 9.76788 3.53706C9.85015 10.4579 9.99137 25.3636 9.72235 28.2C9.56014 29.9102 9.54708 31.6965 9.58031 33.1275C9.59803 33.8903 9.60688 34.2716 9.74623 34.6271C9.96306 35.1802 10.4608 35.6656 11.0198 35.8692C11.379 36 11.7877 36 12.605 36C13.9482 36 14.6197 36 14.9988 35.8525C15.6954 35.5815 16.0618 35.1879 16.2814 34.4745C16.4009 34.0864 16.3466 33.3502 16.238 31.8779C16.0327 29.0935 15.9086 24.6796 16.1908 18C16.4888 10.7032 16.6358 6.17955 16.7083 3.49213Z" fill="#7F59AE"/>
<path d="M35.9437 3.49213C35.9764 2.27964 35.9928 1.6734 35.7468 1.1869C35.5507 0.799002 35.2246 0.46462 34.8414 0.25851C34.3608 0 33.7444 0 32.5114 0C31.2442 0 30.6105 0 30.1334 0.253757C29.7457 0.459983 29.4314 0.777468 29.2294 1.16689C28.9809 1.64607 28.9884 2.2764 29.0033 3.53706C29.0856 10.4579 29.2268 25.3636 28.9578 28.2C28.7956 29.9102 28.7825 31.6965 28.8158 33.1275C28.8335 33.8903 28.8423 34.2716 28.9817 34.6271C29.1985 35.1802 29.6963 35.6656 30.2553 35.8692C30.6145 36 31.0232 36 31.8405 36C33.1836 36 33.8552 36 34.2342 35.8525C34.9309 35.5815 35.2972 35.1879 35.5169 34.4745C35.6364 34.0864 35.5821 33.3502 35.4735 31.8779C35.2681 29.0935 35.1441 24.6796 35.4263 18C35.7242 10.7032 35.8712 6.17955 35.9437 3.49213Z" fill="#EF5F63"/>
<path d="M19.2539 32.5079C19.2211 33.7204 19.2048 34.3266 19.4507 34.8131C19.6468 35.201 19.9729 35.5354 20.3561 35.7415C20.8367 36 21.4532 36 22.6861 36C23.9534 36 24.587 36 25.0641 35.7462C25.4518 35.54 25.7662 35.2225 25.9682 34.8331C26.2167 34.3539 26.2092 33.7236 26.1942 32.4629C26.112 25.5421 25.9707 10.6364 26.2398 7.8C26.402 6.08978 26.415 4.30348 26.3818 2.87251C26.3641 2.10974 26.3552 1.72836 26.2159 1.37291C25.9991 0.819795 25.5013 0.334366 24.9423 0.13081C24.5831 0 24.1744 0 23.3571 0C22.0139 0 21.3424 0 20.9633 0.147467C20.2667 0.418491 19.9003 0.812093 19.6807 1.52547C19.5612 1.91362 19.6155 2.64977 19.7241 4.12206C19.9294 6.90654 20.0535 11.3204 19.7713 18C19.4733 25.2968 19.3264 29.8205 19.2539 32.5079Z" fill="#BC6479"/>
<path d="M56.0227 29.46C53.7848 29.46 51.8857 28.9873 50.3254 28.0419C48.7651 27.0862 47.5794 25.7606 46.7684 24.065C45.9575 22.3694 45.552 20.4016 45.552 18.1613C45.552 16.0342 45.9678 14.1228 46.7992 12.4272C47.641 10.7214 48.842 9.37522 50.4024 8.38871C51.973 7.39192 53.8567 6.89353 56.0535 6.89353C58.435 6.89353 60.3957 7.4022 61.9355 8.41954C63.4753 9.4266 64.6199 10.7831 65.3693 12.4889C66.1289 14.1845 66.5087 16.0753 66.5087 18.1613C66.5087 19.5384 66.3086 20.8999 65.9082 22.2461C65.5079 23.582 64.8817 24.7946 64.0296 25.8839C63.1879 26.9732 62.1049 27.8415 60.7807 28.4889C59.4564 29.1363 57.8704 29.46 56.0227 29.46ZM56.269 27.7182C57.5933 27.7182 58.6917 27.3226 59.5642 26.5313C60.4368 25.74 61.0886 24.661 61.5198 23.2943C61.9612 21.9276 62.1819 20.381 62.1819 18.6546C62.1819 16.6508 61.9509 14.8987 61.489 13.3983C61.0373 11.898 60.3341 10.7317 59.3794 9.89931C58.435 9.05666 57.2288 8.63534 55.7609 8.63534C54.3648 8.63534 53.2356 9.05666 52.3733 9.89931C51.511 10.7317 50.8797 11.8312 50.4794 13.198C50.0893 14.5544 49.8942 16.0342 49.8942 17.6373C49.8942 19.5897 50.115 21.3264 50.5564 22.8473C51.008 24.3682 51.7061 25.5602 52.6505 26.4234C53.5949 27.2866 54.8011 27.7182 56.269 27.7182Z" fill="#2E475D"/>
<path d="M68.1307 28.9667V27.9802L69.9785 27.4253C70.1941 27.3534 70.3583 27.2506 70.4712 27.117C70.5944 26.9834 70.656 26.8087 70.656 26.5929V8.88197C70.656 8.62506 70.5841 8.41954 70.4404 8.26539C70.307 8.10097 70.0965 7.96738 69.8091 7.86462L68.0229 7.20181V6.35403L74.4131 5.46V26.5929C74.4131 26.819 74.4747 26.9989 74.5979 27.1324C74.7313 27.2558 74.8905 27.3534 75.0752 27.4253L76.7844 27.9802V28.9667H68.1307Z" fill="#2E475D"/>
<path d="M78.2565 28.9667V27.9802L80.1658 27.4253C80.3609 27.3637 80.52 27.266 80.6432 27.1324C80.7664 26.9989 80.828 26.819 80.828 26.5929V16.6508C80.828 16.3938 80.7612 16.1883 80.6278 16.0342C80.4943 15.88 80.2788 15.7464 79.9811 15.6334L78.3181 15.0168V14.1691L84.6005 13.2134V26.5929C84.6005 26.819 84.6621 26.9989 84.7853 27.1324C84.9084 27.266 85.0676 27.3637 85.2626 27.4253L87.0642 27.9802V28.9667H78.2565Z" fill="#2E475D"/>
<path d="M95.1049 29.1055L89.4076 15.6642C89.3153 15.4484 89.1921 15.284 89.0381 15.171C88.8944 15.0477 88.6839 14.9295 88.4068 14.8165L87.2827 14.354V13.3829H95.3359V14.354L93.0878 14.986L96.3368 22.7856L97.0913 24.882H97.1837L100.895 15.2326L98.7389 14.354V13.3829H104.79V14.354L103.635 15.0168C103.399 15.1402 103.199 15.2635 103.035 15.3868C102.871 15.4998 102.742 15.6642 102.65 15.88L98.5695 25.776L96.8911 29.1055H95.1049Z" fill="#2E475D"/>
<path d="M112.992 29.3213C111.503 29.3213 110.179 29.013 109.019 28.3964C107.869 27.7798 106.966 26.8704 106.309 25.6681C105.662 24.4658 105.339 22.9911 105.339 21.2442C105.339 19.7439 105.652 18.3669 106.278 17.1132C106.915 15.8595 107.813 14.8524 108.973 14.092C110.133 13.3315 111.508 12.9513 113.1 12.9513C114.506 12.9513 115.697 13.2442 116.672 13.8299C117.647 14.4054 118.391 15.1607 118.905 16.0958C119.418 17.031 119.675 18.0226 119.675 19.0708C119.675 19.1941 119.669 19.3688 119.659 19.5949C119.649 19.8107 119.633 20.0265 119.613 20.2423C119.603 20.4478 119.587 20.6071 119.567 20.7201H109.004L109.065 19.2403H115.779C115.779 18.336 115.686 17.5294 115.502 16.8203C115.327 16.1113 115.024 15.5512 114.593 15.1402C114.172 14.7291 113.592 14.5236 112.853 14.5236C112.135 14.5236 111.539 14.7034 111.067 15.0631C110.595 15.4227 110.225 15.9006 109.958 16.4966C109.691 17.0824 109.502 17.7297 109.389 18.4388C109.286 19.1376 109.235 19.8312 109.235 20.5197C109.235 21.7118 109.389 22.7959 109.697 23.7721C110.015 24.7381 110.554 25.5037 111.313 26.0689C112.083 26.6341 113.135 26.9166 114.47 26.9166C115.23 26.9166 115.907 26.8293 116.503 26.6546C117.098 26.4696 117.621 26.2538 118.073 26.0072C118.535 25.7503 118.92 25.5242 119.228 25.329H119.644V26.7471C118.915 27.3431 117.965 27.9237 116.795 28.4889C115.635 29.0438 114.367 29.3213 112.992 29.3213Z" fill="#2E475D"/>
<path d="M121.539 28.9667V27.9802L123.248 27.4407C123.443 27.3791 123.602 27.2815 123.725 27.1479C123.849 27.004 123.91 26.8242 123.91 26.6084V16.7586C123.91 16.4504 123.849 16.2037 123.725 16.0188C123.602 15.8338 123.387 15.6899 123.079 15.5872L121.447 14.9706V14.1228L127.483 13.0746V16.512H127.544C127.975 15.8338 128.422 15.2275 128.884 14.6931C129.346 14.1588 129.854 13.7375 130.408 13.4292C130.963 13.1106 131.589 12.9513 132.287 12.9513C132.841 12.9513 133.303 13.0027 133.673 13.1055C134.052 13.2082 134.432 13.3572 134.812 13.5525V17.9147H133.134L132.595 16.7278C132.502 16.5326 132.287 16.363 131.948 16.2192C131.62 16.0753 131.291 16.0034 130.963 16.0034C130.531 16.0034 130.126 16.065 129.746 16.1883C129.377 16.3116 129.022 16.5017 128.684 16.7586C128.345 17.0156 128.006 17.3547 127.667 17.776V26.6084C127.667 27.0502 127.893 27.3277 128.345 27.4407L130.439 27.9802V28.9667H121.539Z" fill="#2E475D"/>
<path d="M84.5709 8.01C84.5709 9.41833 83.4304 10.56 82.0236 10.56C80.6167 10.56 79.4763 9.41833 79.4763 8.01C79.4763 6.60167 80.6167 5.46 82.0236 5.46C83.4304 5.46 84.5709 6.60167 84.5709 8.01Z" fill="#2E475D"/>
<path d="M142.252 28.1035L141.99 22.1228H143.33L144.454 25.1748C144.495 25.3187 144.593 25.4677 144.747 25.6219C144.901 25.776 145.034 25.889 145.147 25.961C145.588 26.2487 146.097 26.5107 146.671 26.7471C147.246 26.9834 147.821 27.1736 148.396 27.3174C148.971 27.451 149.474 27.5178 149.905 27.5178C151.209 27.5178 152.245 27.1787 153.015 26.5005C153.785 25.8222 154.17 24.9333 154.17 23.8338C154.17 22.9706 153.924 22.277 153.431 21.7529C152.938 21.2185 152.235 20.7715 151.322 20.4118C150.511 20.083 149.705 19.821 148.904 19.6257C148.103 19.4202 147.313 19.1581 146.533 18.8396C145.301 18.3463 144.341 17.6218 143.653 16.6662C142.966 15.7105 142.622 14.5852 142.622 13.2904C142.622 12.0676 142.96 10.9783 143.638 10.0226C144.326 9.05666 145.245 8.29622 146.394 7.74131C147.554 7.17612 148.832 6.89353 150.228 6.89353C151.05 6.89353 151.85 6.94491 152.63 7.04767C153.421 7.14015 154.17 7.26347 154.879 7.41761C155.597 7.57175 156.254 7.73617 156.849 7.91087V13.5217H155.51L154.509 10.6546C154.458 10.5107 154.36 10.372 154.216 10.2384C154.083 10.1048 153.955 9.99693 153.831 9.91472C153.554 9.7092 153.19 9.52936 152.738 9.37522C152.287 9.2108 151.819 9.08235 151.337 8.98986C150.855 8.89738 150.429 8.85114 150.059 8.85114C148.868 8.85114 147.939 9.15428 147.272 9.76058C146.615 10.3669 146.286 11.0759 146.286 11.8877C146.286 12.6893 146.492 13.4035 146.902 14.0303C147.313 14.6469 148.083 15.1556 149.212 15.5563C149.982 15.8338 150.742 16.0753 151.491 16.2808C152.24 16.4863 153.051 16.7689 153.924 17.1286C154.622 17.406 155.279 17.7811 155.895 18.2538C156.521 18.7163 157.029 19.3123 157.419 20.0419C157.809 20.7612 158.004 21.6347 158.004 22.6623C158.004 23.7927 157.702 24.882 157.096 25.9301C156.5 26.968 155.561 27.8158 154.278 28.4735C152.995 29.1312 151.337 29.46 149.304 29.46C148.565 29.46 147.795 29.3932 146.995 29.2596C146.194 29.1363 145.393 28.9719 144.593 28.7664C143.792 28.5506 143.012 28.3296 142.252 28.1035Z" fill="#2E475D"/>
<path d="M160.02 28.9667V27.9802L161.929 27.4253C162.124 27.3637 162.284 27.266 162.407 27.1324C162.53 26.9989 162.591 26.819 162.591 26.5929V16.6508C162.591 16.3938 162.525 16.1883 162.391 16.0342C162.258 15.88 162.042 15.7464 161.745 15.6334L160.082 15.0168V14.1691L166.364 13.2134V26.5929C166.364 26.819 166.426 26.9989 166.549 27.1324C166.672 27.266 166.831 27.3637 167.026 27.4253L168.828 27.9802V28.9667H160.02Z" fill="#2E475D"/>
<path d="M170.247 28.9667V27.9802L171.925 27.4407C172.121 27.3791 172.28 27.2815 172.403 27.1479C172.536 27.004 172.603 26.8242 172.603 26.6084V16.5737C172.603 16.3168 172.531 16.1113 172.387 15.9571C172.254 15.7927 172.044 15.6591 171.756 15.5563L170.247 14.9706V14.1228L176.206 13.0746V15.6334H176.283C176.848 14.8524 177.412 14.2718 177.977 13.8916C178.541 13.5114 179.106 13.2596 179.671 13.1363C180.235 13.013 180.795 12.9513 181.349 12.9513C182.283 12.9513 183.125 13.1363 183.874 13.5062C184.634 13.8762 185.234 14.4619 185.676 15.2635C186.117 16.0547 186.338 17.0926 186.338 18.3771V26.5467C186.338 26.7933 186.405 26.9886 186.538 27.1324C186.672 27.266 186.831 27.3688 187.016 27.4407L188.494 27.9802V28.9667H180.41V27.9802L181.919 27.4407C182.104 27.3688 182.258 27.266 182.381 27.1324C182.514 26.9886 182.581 26.7933 182.581 26.5467V19.7644C182.581 18.8396 182.509 18.0534 182.365 17.406C182.222 16.7484 181.939 16.25 181.518 15.9109C181.098 15.5718 180.466 15.4022 179.624 15.4022C179.07 15.4022 178.49 15.4895 177.884 15.6642C177.279 15.8389 176.771 16.2192 176.36 16.8049V26.6084C176.36 26.8344 176.422 27.0091 176.545 27.1324C176.678 27.2558 176.837 27.3585 177.022 27.4407L178.346 27.9802V28.9667H170.247Z" fill="#2E475D"/>
<path d="M202.999 25.2827H203.43V26.7163C202.732 27.3226 201.854 27.9083 200.797 28.4735C199.75 29.0387 198.549 29.3213 197.194 29.3213C195.695 29.3213 194.417 28.977 193.36 28.2885C192.302 27.5897 191.491 26.6546 190.927 25.4831C190.372 24.3014 190.095 22.9912 190.095 21.5525C190.095 20.381 190.295 19.2815 190.696 18.2538C191.096 17.2159 191.671 16.3014 192.42 15.5101C193.18 14.7188 194.083 14.1023 195.13 13.6604C196.188 13.2185 197.363 12.9976 198.657 12.9976C199.447 12.9976 200.124 13.0695 200.689 13.2134C201.254 13.3572 201.726 13.5217 202.106 13.7066C202.496 13.8916 202.819 14.0509 203.076 14.1845L202.675 17.329H202.044C201.541 16.9693 201.002 16.6148 200.427 16.2654C199.863 15.9057 199.283 15.6077 198.687 15.3714C198.102 15.1247 197.502 15.0014 196.886 15.0014C196.588 15.0014 196.296 15.0785 196.008 15.2326C195.721 15.3868 195.459 15.618 195.223 15.9263C195.048 16.1524 194.869 16.4812 194.684 16.9128C194.499 17.3341 194.34 17.8582 194.206 18.4851C194.083 19.1119 194.022 19.8364 194.022 20.6585C194.022 22.6315 194.427 24.1626 195.238 25.2519C196.049 26.3412 197.296 26.8858 198.98 26.8858C199.555 26.8858 200.094 26.7985 200.597 26.6238C201.1 26.4388 201.551 26.223 201.952 25.9764C202.362 25.7195 202.711 25.4883 202.999 25.2827Z" fill="#2E475D"/>
<path d="M204.705 28.9667V27.9802L206.552 27.4253C206.768 27.3534 206.932 27.2506 207.045 27.117C207.168 26.9834 207.23 26.8087 207.23 26.5929V8.88197C207.23 8.62506 207.158 8.41954 207.014 8.26539C206.881 8.10097 206.67 7.96738 206.383 7.86462L204.597 7.20181V6.35403L210.987 5.46V26.5929C210.987 26.819 211.049 26.9989 211.172 27.1324C211.305 27.2558 211.464 27.3534 211.649 27.4253L213.358 27.9802V28.9667H204.705Z" fill="#2E475D"/>
<path d="M219.373 29.275C218.511 29.275 217.756 29.0746 217.109 28.6739C216.463 28.2628 215.96 27.7336 215.6 27.0862C215.251 26.4285 215.077 25.7246 215.077 24.9745C215.077 23.9879 215.318 23.1556 215.8 22.4773C216.293 21.7888 216.914 21.2339 217.664 20.8126C218.423 20.3913 219.224 20.083 220.066 19.8877C220.907 19.6925 221.688 19.5949 222.406 19.5949C222.54 19.5949 222.75 19.6103 223.038 19.6411C223.325 19.6617 223.618 19.6874 223.915 19.7182C224.213 19.7387 224.429 19.749 224.562 19.749L224.577 17.5602C224.588 16.5223 224.413 15.8081 224.054 15.4176C223.695 15.0271 223.115 14.8319 222.314 14.8319C221.852 14.8319 221.38 14.9244 220.897 15.1093C220.415 15.2943 219.937 15.5306 219.465 15.8184C219.003 16.0958 218.572 16.3784 218.172 16.6662C217.771 16.9539 217.428 17.1903 217.14 17.3752H216.54L216.155 14.3078C216.668 14.0817 217.227 13.8659 217.833 13.6604C218.439 13.4549 219.101 13.2853 219.819 13.1517C220.548 13.0181 221.344 12.9513 222.206 12.9513C223.181 12.9513 224.141 13.1003 225.085 13.3983C226.03 13.6964 226.81 14.2153 227.426 14.9552C228.042 15.6848 228.345 16.7021 228.334 18.0072L228.257 26.0072C228.257 26.336 228.376 26.6032 228.612 26.8087C228.848 27.0143 229.161 27.117 229.551 27.117C229.695 27.117 229.905 27.0913 230.182 27.04C230.459 26.9783 230.711 26.9115 230.937 26.8396H231.245V27.9648C231.039 28.119 230.731 28.2988 230.321 28.5043C229.92 28.7098 229.484 28.8897 229.012 29.0438C228.55 29.198 228.109 29.275 227.688 29.275C226.733 29.275 225.984 29.0798 225.44 28.6893C224.906 28.2988 224.639 27.6206 224.639 26.6546H224.547C224.044 27.4253 223.479 28.0008 222.853 28.381C222.237 28.7509 221.626 28.9924 221.02 29.1055C220.415 29.2185 219.866 29.275 219.373 29.275ZM221.452 26.9937C221.975 26.9937 222.529 26.8858 223.115 26.67C223.7 26.4439 224.172 26.0586 224.531 25.514L224.562 21.0284C223.443 21.0284 222.468 21.1363 221.636 21.3521C220.805 21.5576 220.158 21.9019 219.696 22.3849C219.244 22.8678 219.019 23.5152 219.019 24.3271C219.019 25.0053 219.142 25.5396 219.388 25.9301C219.645 26.3206 219.958 26.5981 220.327 26.7625C220.707 26.9166 221.082 26.9937 221.452 26.9937Z" fill="#2E475D"/>
<path d="M231.849 28.9667V27.9802L233.758 27.4253C233.953 27.3637 234.112 27.266 234.235 27.1324C234.359 26.9989 234.42 26.819 234.42 26.5929V16.6508C234.42 16.3938 234.353 16.1883 234.22 16.0342C234.087 15.88 233.871 15.7464 233.573 15.6334L231.91 15.0168V14.1691L238.193 13.2134V26.5929C238.193 26.819 238.254 26.9989 238.377 27.1324C238.501 27.266 238.66 27.3637 238.855 27.4253L240.656 27.9802V28.9667H231.849Z" fill="#2E475D"/>
<path d="M242.076 28.9667V27.9802L243.785 27.4407C243.98 27.3791 244.139 27.2815 244.262 27.1479C244.385 27.004 244.447 26.8242 244.447 26.6084V16.7586C244.447 16.4504 244.385 16.2037 244.262 16.0188C244.139 15.8338 243.924 15.6899 243.616 15.5872L241.983 14.9706V14.1228L248.019 13.0746V16.512H248.081C248.512 15.8338 248.959 15.2275 249.421 14.6931C249.883 14.1588 250.391 13.7375 250.945 13.4292C251.499 13.1106 252.126 12.9513 252.824 12.9513C253.378 12.9513 253.84 13.0027 254.209 13.1055C254.589 13.2082 254.969 13.3572 255.349 13.5525V17.9147H253.67L253.132 16.7278C253.039 16.5326 252.824 16.363 252.485 16.2192C252.156 16.0753 251.828 16.0034 251.499 16.0034C251.068 16.0034 250.663 16.065 250.283 16.1883C249.913 16.3116 249.559 16.5017 249.22 16.7586C248.882 17.0156 248.543 17.3547 248.204 17.776V26.6084C248.204 27.0502 248.43 27.3277 248.882 27.4407L250.976 27.9802V28.9667H242.076Z" fill="#2E475D"/>
<path d="M166.325 8.01C166.325 9.41833 165.184 10.56 163.777 10.56C162.371 10.56 161.23 9.41833 161.23 8.01C161.23 6.60167 162.371 5.46 163.777 5.46C165.184 5.46 166.325 6.60167 166.325 8.01Z" fill="#2E475D"/>
<path d="M238.189 8.01C238.189 9.41833 237.049 10.56 235.642 10.56C234.235 10.56 233.094 9.41833 233.094 8.01C233.094 6.60167 234.235 5.46 235.642 5.46C237.049 5.46 238.189 6.60167 238.189 8.01Z" fill="#2E475D"/>
</svg>
