<svg width="140" height="60" viewBox="0 0 140 60" fill="none" xmlns="http://www.w3.org/2000/svg">
<path d="M121.102 38.2107L120.5 38.79C119.967 38.2803 119.249 38.0022 118.507 38.0485C118.044 37.979 117.58 38.1181 117.233 38.4424C116.885 38.7437 116.677 39.2071 116.7 39.6705C116.677 40.0412 116.816 40.412 117.094 40.6668C117.441 40.9217 117.835 41.0839 118.252 41.1302L119.202 41.2693C119.782 41.2924 120.314 41.501 120.778 41.8717C121.264 42.2888 121.543 42.9376 121.519 43.5863C121.519 45.0693 120.338 46.0193 118.554 46.0193H118.577C117.464 46.1119 116.375 45.6949 115.611 44.8839L116.236 44.2583C116.839 44.9071 117.696 45.2546 118.577 45.2083C119.828 45.2083 120.593 44.6059 120.593 43.6095C120.616 43.2156 120.477 42.8217 120.175 42.5205C119.851 42.2656 119.457 42.1266 119.063 42.1034L118.067 41.9412C117.488 41.8717 116.955 41.64 116.491 41.2924C116.051 40.8754 115.819 40.2961 115.843 39.6937C115.843 38.2107 116.885 37.2607 118.577 37.2607C119.504 37.2144 120.407 37.5388 121.102 38.2107ZM73.6718 37.3302V43.0302C73.6718 43.7717 74.0657 44.4668 74.7145 44.8376C75.3633 45.2083 76.1511 45.2083 76.7999 44.8376C77.4487 44.4668 77.8426 43.7717 77.8426 43.0302V37.3302H78.6999V43.0998C78.723 43.8876 78.4218 44.6522 77.8426 45.2083C77.2865 45.7644 76.5218 46.0656 75.734 46.0193C74.9462 46.0656 74.1816 45.7644 73.6255 45.2083C73.0926 44.6985 72.7913 43.9802 72.7682 43.262V37.3302H73.6718ZM113.247 37.9559C113.734 38.4193 113.989 39.068 113.966 39.74C114.012 40.8754 113.224 41.8717 112.089 42.0571L114.128 45.9729L113.062 46.0193L111.093 42.1034H109.054V45.9266H108.127V37.3302H111.417C112.089 37.2607 112.761 37.4924 113.247 37.9559ZM134.495 37.3302L136.511 41.4546L138.503 37.3302H139.5L136.974 42.3815V45.9498H136.047V42.3815L133.499 37.3302H134.495ZM132.224 37.3302V38.1412H129.745V45.9498H128.841V38.1412H126.362V37.3302H132.224ZM124.462 37.3302V45.9498H123.558V37.3302H124.462ZM106.088 37.3302V38.1412H101.685V41.1766H105.439V41.9876H101.685V45.1156H106.088V45.9498H100.782V37.3302H106.088ZM81.9901 37.3302L86.5316 44.212V37.3302H87.4352V45.9498H86.5779L82.0365 39.0449V45.9498H81.1328V37.3302H81.9901ZM90.8877 37.3302V45.9498H89.984V37.3302H90.8877ZM93.5986 37.3302L95.823 44.3046L98.0474 37.3302H99.0206L96.1938 45.9498H95.4523L92.6255 37.3302H93.5986ZM111.324 38.1412H109.054V41.3388H111.324C111.927 41.4083 112.506 41.1071 112.807 40.5973C113.132 40.0876 113.132 39.4388 112.807 38.929C112.483 38.4193 111.904 38.1181 111.324 38.1876V38.1412ZM95.0121 27.8303H93.2279C93.1352 27.0888 92.4865 26.5327 91.745 26.5327C91.3047 26.5095 90.8877 26.6717 90.6096 26.9961C90.2621 27.3668 90.1694 27.7839 90.1694 29.3827V29.5681C90.1694 31.329 90.2389 31.7461 90.6096 32.14C90.8877 32.4644 91.3047 32.6498 91.745 32.6266C92.4865 32.6266 93.1352 32.0705 93.2279 31.329H95.0121C94.8267 33.0205 93.3669 34.2717 91.6755 34.2022C90.7718 34.2254 89.8682 33.8546 89.2426 33.2059C88.8718 32.8351 88.5938 32.3485 88.5011 31.8388C88.3852 31.0973 88.3389 30.3559 88.3389 29.5912C88.3157 28.8498 88.3852 28.0851 88.5011 27.3437C88.5938 26.8339 88.8487 26.3473 89.2426 25.9766C89.8682 25.3046 90.7487 24.9339 91.6755 24.9339C93.3901 24.8644 94.8499 26.1156 95.0121 27.8303ZM86.9487 25.0266V26.6022H82.7548V28.7339H86.323V30.3095H82.7548V32.5339H86.9487V34.1095H80.9938V25.0034H86.9487V25.0266ZM98.3023 25.0266V28.9888L101.5 25.0266H103.632L100.643 28.6412L103.84 34.1327H101.778L99.4608 29.9851L98.2791 31.3754V34.1095H96.5182V25.0034H98.3023V25.0266ZM76.267 25.0266C78.0279 25.0266 79.0706 26.0229 79.0706 27.5754C79.0706 28.3632 78.6304 29.0815 77.9352 29.4522C78.723 29.7998 79.2328 30.6107 79.1865 31.4912C79.1865 33.1827 78.0279 34.1095 76.4291 34.1095H72.6292V25.0034H76.267V25.0266ZM126.547 25.0266V26.6022H124.184V34.1095H122.423V26.6022H120.06V25.0266H126.547ZM110.93 25.0266V26.6022H106.736V28.7339H110.305V30.3095H106.736V32.5339H110.93V34.1095H104.975V25.0034H110.93V25.0266ZM118.808 25.0266V26.6022H116.445V34.1095H114.684V26.6022H112.321V25.0266H118.808ZM76.2438 30.3095H74.3901V32.5571H76.2438C76.545 32.5802 76.8694 32.4876 77.1011 32.279C77.3328 32.0705 77.4487 31.7461 77.4255 31.4449C77.4487 31.1437 77.3096 30.8193 77.1011 30.6107C76.8694 30.3559 76.545 30.2632 76.2438 30.3095ZM76.1279 26.579H74.3901V28.6876H76.1279C76.5218 28.7107 76.8926 28.5254 77.1011 28.201C77.3096 27.8534 77.3096 27.4364 77.1011 27.0888C76.8926 26.7412 76.5218 26.5559 76.1279 26.579ZM109.795 14.1827L108.66 15.2717C108.15 14.8083 107.478 14.5998 106.806 14.6461C105.856 14.6461 105.416 15.179 105.416 15.8046C105.416 16.0595 105.508 16.2912 105.694 16.4534C105.925 16.662 106.227 16.7778 106.528 16.801L107.594 16.94C108.219 16.9864 108.822 17.2412 109.332 17.6583C109.818 18.1681 110.073 18.8632 110.027 19.5815C110.027 21.3425 108.544 22.3388 106.667 22.3388V22.362C105.439 22.4546 104.234 22.0144 103.377 21.1571L104.512 19.9986C105.114 20.5315 105.902 20.8095 106.69 20.74C107.733 20.74 108.289 20.3461 108.289 19.6046C108.312 19.3266 108.196 19.0485 108.011 18.8632C107.779 18.6778 107.501 18.562 107.2 18.5388L106.088 18.3766C105.439 18.3303 104.813 18.0522 104.327 17.6351C103.886 17.1485 103.655 16.4998 103.678 15.851C103.678 14.229 104.86 13.0937 106.829 13.0937C107.941 13.0242 109.007 13.4181 109.795 14.1827ZM101.338 14.0437C102.311 15.04 102.264 16.2217 102.264 17.5193V17.6815C102.264 19.0486 102.357 20.3693 101.338 21.412V21.4351C100.689 22.0376 99.8316 22.3388 98.9511 22.2924H95.684V13.1632H98.9511C99.8084 13.14 100.666 13.4644 101.338 14.0437ZM74.4133 13.1864V20.6937H78.5145V22.2693H72.6292V13.1632H74.4133V13.1864ZM86.0218 13.1864V14.762H81.8279V16.8937H85.3962V18.4693H81.8279V20.6937H86.0218V22.2693H80.067V13.1632H86.0218V13.1864ZM93.8304 13.1864V14.762H89.6365V16.8937H93.2047V18.4693H89.6365V20.6937H93.8304V22.2693H87.8755V13.1632H93.8304V13.1864ZM98.7657 14.762H97.4218V20.7168H98.7657C99.2755 20.7632 99.7621 20.5315 100.086 20.1607C100.411 19.7668 100.457 19.1644 100.48 17.89V17.7046C100.48 16.3144 100.434 15.7583 100.086 15.3412V15.3181C99.7621 14.9473 99.2755 14.7388 98.7657 14.762Z" fill="white"/>
<path d="M29.7415 32.8351H26.7293V28.7107H29.7415C30.2744 28.6643 30.8073 28.8497 31.2244 29.2436C31.6183 29.6375 31.8268 30.1936 31.8037 30.7729C31.8268 31.3521 31.6183 31.9082 31.2244 32.3022C30.8305 32.6961 30.2976 32.8814 29.7415 32.8351ZM26.7293 23.1729H29.5793C30.2976 23.1034 30.9927 23.4509 31.3634 24.0765C31.7341 24.7253 31.7341 25.5363 31.3634 26.1619C30.9927 26.7875 30.2976 27.1582 29.5793 27.0656H26.7293V23.1729ZM32.0354 28.1778L31.3171 27.8302L32.0354 27.4826C32.9159 26.996 33.472 26.0461 33.472 25.0034C33.472 22.8253 32.1049 21.5278 29.811 21.5278H24.922V34.4802H30.0195C32.2902 34.4802 33.6573 33.1363 33.6573 30.9119C33.7037 29.7302 33.0549 28.6412 32.0354 28.1778ZM17.5073 32.696V23.3119H19.222V31.0509H23.1842V32.6729H17.5073V32.696ZM39.0793 32.696C38.222 32.7424 37.3878 32.4412 36.7622 31.8156C36.1366 31.19 35.789 30.3326 35.8122 29.4521V23.3351H37.55V29.3595C37.5037 29.9619 37.8049 30.5412 38.2915 30.8424C38.778 31.1668 39.4037 31.1668 39.8902 30.8424C40.3768 30.518 40.6781 29.9619 40.6317 29.3595V23.3119H42.3463V29.429C42.3463 30.3326 41.9988 31.19 41.3963 31.7924C40.7707 32.418 39.9366 32.7424 39.0793 32.696ZM29.7183 11.7034C23.1842 11.7034 17.2988 15.7351 14.7964 21.8985C12.2939 28.0619 13.6842 35.1753 18.2951 39.9021C22.9061 44.629 29.8573 46.0424 35.8817 43.4936C41.9061 40.9448 45.8451 34.9204 45.8451 28.2241C45.8451 19.118 38.6159 11.7034 29.7183 11.7034ZM29.7183 44.0729C23.4622 44.0729 17.8086 40.2265 15.422 34.2948C13.0354 28.3631 14.3561 21.5509 18.7817 17.0326C23.2073 12.4912 29.8573 11.1473 35.65 13.6034C41.4195 16.0595 45.1963 21.829 45.1963 28.2473C45.1732 36.9595 38.2451 44.0497 29.7183 44.0729ZM29.7183 10.6607C22.7671 10.6607 16.511 14.9473 13.8464 21.5046C11.1817 28.0619 12.6647 35.6387 17.5537 40.6668C22.4659 45.6948 29.8342 47.2009 36.2524 44.4899C42.6707 41.779 46.8415 35.3607 46.8415 28.2473C46.8646 18.5387 39.1951 10.6607 29.7183 10.6607ZM29.7183 47.4326C22.1415 47.4326 15.2829 42.7521 12.3866 35.5692C9.49027 28.3863 11.089 20.1375 16.4415 14.6461C21.7939 9.1546 29.8805 7.50948 36.878 10.4753C43.8756 13.4412 48.4634 20.4619 48.4402 28.2241C48.4402 38.8363 40.0524 47.4095 29.7183 47.4326ZM39.6817 0.7668C36.2524 -0.0441752 32.0817 1.48509 32.0817 1.48509C31.3403 1.76314 30.5524 1.90216 29.7415 1.90216C28.9305 1.92533 28.1195 1.80948 27.3549 1.53143C27.3549 1.53143 23.161 -0.044176 19.7549 0.813141C19.7549 0.813141 16.3951 1.46192 17.1829 5.9107C17.1829 5.9107 17.3683 2.45826 21.6317 2.45826C21.6317 2.45826 23.2305 2.38875 26.5903 3.96436C26.8915 4.12655 27.2159 4.26558 27.5403 4.38143C27.7488 4.45094 27.9805 4.52046 28.2585 4.5668L28.4903 4.61314C28.5829 4.63631 28.6988 4.65948 28.7915 4.65948C29.4171 4.75216 30.0427 4.75216 30.6451 4.65948L30.9463 4.54362L31.2244 4.47411H31.3403C31.5024 4.42777 31.6646 4.38143 31.8268 4.31192C32.1512 4.19606 32.4756 4.05704 32.8 3.89485C36.1366 2.34241 37.7585 2.38875 37.7585 2.38875C42.0219 2.38875 42.2073 5.84119 42.2073 5.84119C43.0415 1.43875 39.6585 0.7668 39.6817 0.7668ZM0.523201 29.29C0.986615 25.6985 3.90612 22.2229 3.90612 22.2229C4.43905 21.5973 4.85612 20.9022 5.13417 20.1143C5.41222 19.3497 5.55124 18.5387 5.57442 17.7046C5.57442 17.7046 5.57442 13.0936 7.54393 10.1046C7.54393 10.1046 9.32807 7.11557 13.1512 9.47899C13.1512 9.47899 9.88417 8.38997 8.37807 12.5144C8.37807 12.5144 7.75246 13.9973 8.00734 17.8204C8.05368 18.168 8.07685 18.5387 8.05368 18.9095C8.05368 19.1643 8.03051 19.4192 8.00734 19.6509C8.00734 19.7436 8.00734 19.8131 7.961 19.8826L7.89149 20.207C7.75246 20.8326 7.52076 21.4351 7.21954 21.9912C7.17319 22.0839 7.12685 22.1534 7.08051 22.2461L6.91832 22.5009C6.89515 22.5241 6.87198 22.5704 6.8488 22.5936C6.75612 22.7326 6.64027 22.8717 6.52441 23.0107C6.29271 23.2656 6.061 23.5204 5.80612 23.7522C3.18783 26.4631 2.65491 28.0156 2.65491 28.0156C1.14881 32.1168 4.30003 33.5534 4.30003 33.5534C-0.0328975 32.7424 0.523201 29.29 0.523201 29.29ZM58.9366 29.3131C58.4732 25.7217 55.5305 22.2461 55.5305 22.2461C55.0207 21.6204 54.6036 20.9253 54.3256 20.1375C54.0244 19.3729 53.8854 18.5619 53.8854 17.7278C53.8854 17.7278 53.8854 13.1168 51.9158 10.1046C51.9158 10.1046 50.1317 7.11557 46.2854 9.47899C46.2854 9.47899 49.5756 8.38997 51.0817 12.5144C51.0817 12.5144 51.7073 14.0204 51.4524 17.8436C51.4061 18.1912 51.3829 18.5619 51.3829 18.9326C51.3829 19.1643 51.3829 19.4192 51.4524 19.6741V19.9058C51.4524 19.9753 51.4988 20.1143 51.5219 20.2302C51.661 20.8558 51.8927 21.4583 52.1939 22.0143L52.3329 22.2692L52.4951 22.5241L52.5646 22.6168C52.6573 22.7558 52.7732 22.918 52.889 23.0339C53.1207 23.2887 53.3524 23.5436 53.6073 23.7753C56.2488 26.44 56.7585 28.0156 56.7585 28.0156C58.2878 32.14 55.1134 33.5765 55.1134 33.5765C59.5158 32.7424 58.9134 29.2668 58.9134 29.2668M5.31954 44.768C7.75246 47.4326 12.1781 48.4753 12.1781 48.4753C13.7537 48.8692 15.1439 49.8192 16.1171 51.1399C16.1171 51.1399 18.7817 54.8936 22.1183 56.1448C22.1183 56.1448 25.3159 57.5119 27.1 53.2717C27.1 53.2717 25.0146 56.1448 21.4232 53.6887C21.4232 53.6887 20.0329 52.8314 18.0634 49.5643C17.9012 49.2399 17.6927 48.9387 17.4842 48.6375C17.3451 48.429 17.1829 48.2436 16.9976 48.0582L16.8354 47.896L16.6037 47.6875C16.1403 47.2473 15.6073 46.8997 15.0512 46.6217L14.7964 46.5058L14.5183 46.3899L14.4025 46.3436C14.2403 46.2741 14.0781 46.2278 13.9159 46.2046C13.5683 46.1119 13.2208 46.0656 12.85 46.0424C9.18905 45.4631 7.84515 44.4899 7.84515 44.4899C4.23051 42.0338 6.01466 38.9753 6.01466 38.9753C2.86344 42.2887 5.34271 44.768 5.31954 44.768ZM54.0707 44.768C51.6378 47.4326 47.2354 48.4753 47.2354 48.4753C45.6598 48.8692 44.2463 49.796 43.2732 51.1399C43.2732 51.1399 40.6317 54.8936 37.2951 56.1448C37.2951 56.1448 34.0976 57.5119 32.3134 53.2717C32.3134 53.2717 34.3988 56.1448 37.9902 53.6887C37.9902 53.6887 39.3805 52.8314 41.3268 49.5643C41.489 49.2399 41.6976 48.9387 41.9061 48.6375C42.0451 48.4521 42.2073 48.2436 42.3927 48.0582C42.439 47.9887 42.5085 47.9424 42.5549 47.896L42.7866 47.6875C43.25 47.2704 43.7829 46.8997 44.3622 46.6217L44.6171 46.5058L44.8951 46.3899L45.011 46.3436C45.3122 46.2277 45.4976 46.2046 45.4976 46.2046C45.8451 46.1119 46.2158 46.0656 46.5634 46.0192C50.2244 45.4399 51.5683 44.4668 51.5683 44.4668C55.1597 42.0107 53.3988 38.9521 53.3988 38.9521C56.55 42.2887 54.0707 44.768 54.0707 44.768ZM29.9268 59.0412L31.4561 48.7765H29.9268H28.3976L29.9268 59.0412ZM58.4963 37.6082L49.4366 32.696L48.95 34.2717L48.4634 35.8473L58.4963 37.6082ZM0.917102 37.6082L9.97685 32.696L10.4634 34.2717L10.95 35.8473L0.917102 37.6082ZM47.5829 2.75948L42.7402 12.1436L41.4427 11.1705L40.1451 10.1973L47.5829 2.75948ZM11.8305 2.75948L16.6732 12.1436L17.9707 11.1705L19.2683 10.1973L11.8305 2.75948Z" fill="white"/>
</svg>
