<svg width="52" height="57" viewBox="0 0 52 57" fill="none" xmlns="http://www.w3.org/2000/svg">
<path d="M30.4924 0C30.554 0 30.6156 0 30.6807 0C30.8319 1.88294 30.1192 3.28988 29.2532 4.30873C28.4034 5.32055 27.2398 6.30188 25.3577 6.15298C25.2322 4.29701 25.9459 2.99442 26.8108 1.97791C27.6129 1.03058 29.0835 0.187591 30.4924 0Z" fill="white"/>
<path d="M36.1896 19.5985C36.1896 19.6173 36.1896 19.6337 36.1896 19.6513C35.6607 21.2669 34.9062 22.6516 33.9855 23.9366C33.1451 25.1032 32.1151 26.6731 30.2761 26.6731C28.6869 26.6731 27.6314 25.6425 26.0028 25.6143C24.28 25.5862 23.3325 26.4761 21.7574 26.7C21.5772 26.7 21.397 26.7 21.2203 26.7C20.0636 26.5312 19.1302 25.6073 18.4501 24.7749C16.4448 22.3151 14.8952 19.1378 14.6069 15.0717C14.6069 14.6731 14.6069 14.2756 14.6069 13.877C14.729 10.967 16.1309 8.60101 17.9944 7.45436C18.9779 6.84469 20.3298 6.3253 21.8353 6.55744C22.4804 6.65827 23.1396 6.88103 23.7173 7.10145C24.2648 7.31367 24.9496 7.69002 25.5982 7.67009C26.0376 7.65719 26.4747 7.42622 26.9176 7.26325C28.215 6.79076 29.4867 6.24909 31.163 6.50351C33.1776 6.81069 34.6075 7.71347 35.491 9.10633C33.7868 10.2002 32.4394 11.8487 32.6696 14.6637C32.8742 17.2208 34.3482 18.7169 36.1896 19.5985Z" fill="white"/>
<path d="M4.21033 35.9173H1.46777V38.1415H3.99542V39.1788H1.46777V42.2751H0.25V34.8749H4.21033V35.9173Z" fill="white"/>
<path d="M7.50057 42.3989C6.69213 42.3989 6.04572 42.153 5.56134 41.661C5.08037 41.1656 4.83989 40.5102 4.83989 39.6948C4.83989 38.8072 5.0906 38.114 5.59204 37.6151C6.09689 37.1163 6.7757 36.8669 7.62849 36.8669C8.44716 36.8669 9.08504 37.1094 9.54213 37.5945C9.99922 38.0796 10.2278 38.7522 10.2278 39.6123C10.2278 40.4551 9.98046 41.1312 9.48585 41.6403C8.99465 42.1461 8.33289 42.3989 7.50057 42.3989ZM7.55685 37.8216C7.09294 37.8216 6.72624 37.985 6.45676 38.3118C6.18728 38.6386 6.05254 39.0893 6.05254 39.6639C6.05254 40.2178 6.18899 40.6547 6.46188 40.9746C6.73477 41.2912 7.09976 41.4494 7.55685 41.4494C8.02418 41.4494 8.38235 41.2929 8.63136 40.9798C8.88378 40.6667 9.01 40.2212 9.01 39.6432C9.01 39.0618 8.88378 38.6128 8.63136 38.2963C8.38235 37.9798 8.02418 37.8216 7.55685 37.8216Z" fill="white"/>
<path d="M15.8001 42.2751H14.613V41.4391H14.5925C14.248 42.079 13.7124 42.3989 12.9859 42.3989C11.7476 42.3989 11.1285 41.6489 11.1285 40.149V36.9907H12.3156V40.0251C12.3156 40.9746 12.6789 41.4494 13.4054 41.4494C13.7568 41.4494 14.045 41.3187 14.2702 41.0572C14.4987 40.7957 14.613 40.4534 14.613 40.0303V36.9907H15.8001V42.2751Z" fill="white"/>
<path d="M21.8073 42.2751H20.6202V39.2975C20.6202 38.3101 20.274 37.8164 19.5815 37.8164C19.2199 37.8164 18.9215 37.954 18.6861 38.2292C18.4507 38.501 18.333 38.8451 18.333 39.2613V42.2751H17.1408V36.9907H18.333V37.868H18.3535C18.7458 37.2006 19.312 36.8669 20.0522 36.8669C20.6219 36.8669 21.0568 37.0544 21.357 37.4294C21.6572 37.8009 21.8073 38.3393 21.8073 39.0446V42.2751Z" fill="white"/>
<path d="M27.8145 42.2751H26.6274V41.3772H26.6069C26.2249 42.0584 25.6365 42.3989 24.8417 42.3989C24.197 42.3989 23.6802 42.1633 23.2913 41.692C22.9059 41.2172 22.7131 40.5721 22.7131 39.7568C22.7131 38.8829 22.9263 38.1828 23.3527 37.6564C23.7825 37.13 24.3539 36.8669 25.0668 36.8669C25.7729 36.8669 26.2863 37.1524 26.6069 37.7235H26.6274V34.4517H27.8145V42.2751ZM26.6428 39.86V39.1685C26.6428 38.7935 26.5217 38.4752 26.2795 38.2138C26.0373 37.9523 25.7286 37.8216 25.3534 37.8216C24.9099 37.8216 24.5603 37.9884 24.3044 38.3221C24.052 38.6558 23.9258 39.1186 23.9258 39.7103C23.9258 40.247 24.0469 40.6719 24.2891 40.985C24.5347 41.2946 24.8639 41.4494 25.2766 41.4494C25.6825 41.4494 26.0117 41.2998 26.2641 41.0004C26.5165 40.6977 26.6428 40.3175 26.6428 39.86Z" fill="white"/>
<path d="M33.177 42.2751H32.0257V41.4494H32.0053C31.6437 42.0824 31.1133 42.3989 30.414 42.3989C29.8989 42.3989 29.4947 42.2579 29.2013 41.9758C28.9114 41.6937 28.7664 41.3204 28.7664 40.8559C28.7664 39.8582 29.3361 39.2768 30.4754 39.1117L32.0309 38.8898C32.0309 38.1363 31.6761 37.7596 30.9666 37.7596C30.3423 37.7596 29.7795 37.9764 29.2781 38.4099V37.3623C29.8307 37.032 30.4686 36.8669 31.1917 36.8669C32.5152 36.8669 33.177 37.524 33.177 38.8382V42.2751ZM32.0309 39.6793L30.9308 39.8342C30.5896 39.8789 30.3321 39.9632 30.1581 40.087C29.9876 40.2074 29.9023 40.4207 29.9023 40.7269C29.9023 40.9506 29.9808 41.1346 30.1377 41.2791C30.298 41.4202 30.5112 41.4907 30.7773 41.4907C31.1388 41.4907 31.4373 41.3634 31.6727 41.1088C31.9115 40.8508 32.0309 40.5274 32.0309 40.1386V39.6793Z" fill="white"/>
<path d="M37.1836 42.2183C36.9516 42.3353 36.6463 42.3938 36.2677 42.3938C35.2512 42.3938 34.7429 41.9018 34.7429 40.9179V37.9299H33.868V36.9907H34.7429V35.7677L35.93 35.4271V36.9907H37.1836V37.9299H35.93V40.5721C35.93 40.8852 35.9863 41.1088 36.0988 41.243C36.2114 41.3772 36.399 41.4442 36.6617 41.4442C36.8629 41.4442 37.0369 41.3858 37.1836 41.2688V42.2183Z" fill="white"/>
<path d="M38.596 35.8812C38.4016 35.8812 38.2344 35.8175 38.0945 35.6903C37.9581 35.563 37.8899 35.4013 37.8899 35.2052C37.8899 35.0091 37.9581 34.8456 38.0945 34.7149C38.2344 34.5842 38.4016 34.5188 38.596 34.5188C38.7972 34.5188 38.9678 34.5842 39.1077 34.7149C39.2475 34.8456 39.3174 35.0091 39.3174 35.2052C39.3174 35.3909 39.2475 35.5509 39.1077 35.6851C38.9678 35.8158 38.7972 35.8812 38.596 35.8812ZM39.1844 42.2751H37.9973V36.9907H39.1844V42.2751Z" fill="white"/>
<path d="M42.8533 42.3989C42.0448 42.3989 41.3984 42.153 40.9141 41.661C40.4331 41.1656 40.1926 40.5102 40.1926 39.6948C40.1926 38.8072 40.4433 38.114 40.9448 37.6151C41.4496 37.1163 42.1284 36.8669 42.9812 36.8669C43.7999 36.8669 44.4378 37.1094 44.8949 37.5945C45.3519 38.0796 45.5805 38.7522 45.5805 39.6123C45.5805 40.4551 45.3332 41.1312 44.8386 41.6403C44.3474 42.1461 43.6856 42.3989 42.8533 42.3989ZM42.9096 37.8216C42.4457 37.8216 42.079 37.985 41.8095 38.3118C41.54 38.6386 41.4053 39.0893 41.4053 39.6639C41.4053 40.2178 41.5417 40.6547 41.8146 40.9746C42.0875 41.2912 42.4525 41.4494 42.9096 41.4494C43.3769 41.4494 43.7351 41.2929 43.9841 40.9798C44.2365 40.6667 44.3627 40.2212 44.3627 39.6432C44.3627 39.0618 44.2365 38.6128 43.9841 38.2963C43.7351 37.9798 43.3769 37.8216 42.9096 37.8216Z" fill="white"/>
<path d="M51.25 42.2751H50.0629V39.2975C50.0629 38.3101 49.7167 37.8164 49.0242 37.8164C48.6627 37.8164 48.3642 37.954 48.1288 38.2292C47.8934 38.501 47.7758 38.8451 47.7758 39.2613V42.2751H46.5836V36.9907H47.7758V37.868H47.7962C48.1885 37.2006 48.7548 36.8669 49.495 36.8669C50.0646 36.8669 50.4996 37.0544 50.7997 37.4294C51.0999 37.8009 51.25 38.3393 51.25 39.0446V42.2751Z" fill="white"/>
<path d="M7.82047 51.8291V54.5126H6.60781V47.1124H8.83357C9.67612 47.1124 10.3294 47.3102 10.7933 47.7059C11.2572 48.1015 11.4891 48.6589 11.4891 49.3779C11.4891 50.0969 11.2469 50.6852 10.7626 51.1428C10.2782 51.6004 9.62325 51.8291 8.79776 51.8291H7.82047ZM7.82047 48.1239V50.828H8.60844C9.13034 50.828 9.52774 50.7059 9.80063 50.4616C10.0735 50.2173 10.21 49.8733 10.21 49.4295C10.21 48.5591 9.70853 48.1239 8.70566 48.1239H7.82047Z" fill="white"/>
<path d="M15.4343 50.3687C15.2911 50.2552 15.0847 50.1984 14.8152 50.1984C14.4639 50.1984 14.1705 50.3584 13.9351 50.6783C13.6998 50.9983 13.5821 51.4335 13.5821 51.984V54.5126H12.395V49.2282H13.5821V50.3171H13.6025C13.7185 49.9455 13.8959 49.6566 14.1347 49.4501C14.3769 49.2403 14.6463 49.1353 14.9431 49.1353C15.158 49.1353 15.3218 49.168 15.4343 49.2334V50.3687Z" fill="white"/>
<path d="M18.2948 54.6365C17.4863 54.6365 16.8399 54.3905 16.3555 53.8985C15.8746 53.4031 15.6341 52.7477 15.6341 51.9324C15.6341 51.0447 15.8848 50.3515 16.3862 49.8527C16.8911 49.3538 17.5699 49.1044 18.4227 49.1044C19.2414 49.1044 19.8792 49.3469 20.3363 49.832C20.7934 50.3171 21.022 50.9897 21.022 51.8498C21.022 52.6927 20.7747 53.3687 20.28 53.8779C19.7888 54.3836 19.1271 54.6365 18.2948 54.6365ZM18.351 50.0591C17.8871 50.0591 17.5204 50.2225 17.251 50.5493C16.9815 50.8762 16.8467 51.3269 16.8467 51.9014C16.8467 52.4553 16.9832 52.8922 17.2561 53.2122C17.529 53.5287 17.894 53.6869 18.351 53.6869C18.8184 53.6869 19.1765 53.5304 19.4256 53.2173C19.678 52.9043 19.8042 52.4587 19.8042 51.8807C19.8042 51.2993 19.678 50.8504 19.4256 50.5338C19.1765 50.2173 18.8184 50.0591 18.351 50.0591Z" fill="white"/>
<path d="M26.7938 54.0895C26.7938 56.0298 25.8268 57 23.8926 57C23.2104 57 22.6152 56.8847 22.1069 56.6542V55.5602C22.68 55.8905 23.2241 56.0556 23.7391 56.0556C24.9842 56.0556 25.6067 55.4381 25.6067 54.203V53.625H25.5863C25.194 54.2993 24.6039 54.6365 23.8159 54.6365C23.178 54.6365 22.6629 54.4025 22.2706 53.9346C21.8818 53.4633 21.6873 52.832 21.6873 52.0407C21.6873 51.1428 21.8971 50.4289 22.3167 49.8991C22.7363 49.3693 23.3127 49.1044 24.0461 49.1044C24.7386 49.1044 25.252 49.3899 25.5863 49.961H25.6067V49.2282H26.7938V54.0895ZM25.617 52.0923V51.406C25.617 51.0344 25.4942 50.7179 25.2486 50.4564C25.0064 50.1915 24.7028 50.0591 24.3378 50.0591C23.8875 50.0591 23.5345 50.2277 23.2786 50.5648C23.0262 50.8985 22.9 51.3664 22.9 51.9685C22.9 52.488 23.0211 52.9043 23.2633 53.2173C23.5089 53.527 23.8329 53.6818 24.2355 53.6818C24.6448 53.6818 24.9774 53.5338 25.2332 53.238C25.489 52.9387 25.617 52.5568 25.617 52.0923Z" fill="white"/>
<path d="M31.1688 50.3687C31.0255 50.2552 30.8191 50.1984 30.5497 50.1984C30.1983 50.1984 29.905 50.3584 29.6696 50.6783C29.4342 50.9983 29.3165 51.4335 29.3165 51.984V54.5126H28.1295V49.2282H29.3165V50.3171H29.337C29.453 49.9455 29.6304 49.6566 29.8691 49.4501C30.1113 49.2403 30.3808 49.1353 30.6776 49.1353C30.8925 49.1353 31.0562 49.168 31.1688 49.2334V50.3687Z" fill="white"/>
<path d="M35.8201 54.5126H34.6688V53.6869H34.6484C34.2868 54.32 33.7563 54.6365 33.0571 54.6365C32.542 54.6365 32.1378 54.4954 31.8444 54.2133C31.5545 53.9312 31.4095 53.5579 31.4095 53.0935C31.4095 52.0958 31.9791 51.5144 33.1185 51.3492L34.6739 51.1273C34.6739 50.3739 34.3192 49.9972 33.6097 49.9972C32.9854 49.9972 32.4226 50.2139 31.9211 50.6474V49.5998C32.4738 49.2695 33.1116 49.1044 33.8348 49.1044C35.1583 49.1044 35.8201 49.7615 35.8201 51.0757V54.5126ZM34.6739 51.9169L33.5738 52.0717C33.2327 52.1164 32.9752 52.2007 32.8012 52.3246C32.6307 52.445 32.5454 52.6583 32.5454 52.9645C32.5454 53.1881 32.6238 53.3721 32.7808 53.5166C32.9411 53.6577 33.1543 53.7282 33.4203 53.7282C33.7819 53.7282 34.0804 53.6009 34.3158 53.3463C34.5545 53.0883 34.6739 52.7649 34.6739 52.3762V51.9169Z" fill="white"/>
<path d="M44.8973 54.5126H43.7102V51.633C43.7102 51.0791 43.6318 50.6783 43.4749 50.4306C43.3214 50.1829 43.0604 50.0591 42.692 50.0591C42.3816 50.0591 42.1172 50.2156 41.8989 50.5287C41.684 50.8418 41.5766 51.2168 41.5766 51.6537V54.5126H40.3844V51.535C40.3844 50.5511 40.0399 50.0591 39.3508 50.0591C39.0302 50.0591 38.7658 50.207 38.5577 50.5029C38.353 50.7988 38.2507 51.1824 38.2507 51.6537V54.5126H37.0636V49.2282H38.2507V50.0642H38.2712C38.6498 49.4243 39.2007 49.1044 39.9239 49.1044C40.2855 49.1044 40.601 49.2059 40.8705 49.4089C41.1434 49.6084 41.3293 49.8716 41.4282 50.1984C41.8171 49.4691 42.3969 49.1044 43.1679 49.1044C44.3208 49.1044 44.8973 49.8217 44.8973 51.2563V54.5126Z" fill="white"/>
</svg>
