<svg width="35" height="35" viewBox="0 0 35 35" fill="none" xmlns="http://www.w3.org/2000/svg">
<path d="M7.72843 13.4389C7.55327 12.6499 7.58016 11.8294 7.80663 11.0535C8.03309 10.2777 8.45179 9.57154 9.02391 9.00063C9.59602 8.42971 10.303 8.01249 11.0794 7.78765C11.8557 7.56281 12.6763 7.53763 13.4649 7.71445C13.899 7.03555 14.497 6.47685 15.2038 6.08985C15.9106 5.70285 16.7035 5.5 17.5093 5.5C18.3151 5.5 19.1079 5.70285 19.8147 6.08985C20.5215 6.47685 21.1195 7.03555 21.5536 7.71445C22.3435 7.53686 23.1655 7.56193 23.943 7.78731C24.7206 8.0127 25.4286 8.43108 26.001 9.00354C26.5735 9.57601 26.9919 10.284 27.2173 11.0615C27.4426 11.8391 27.4677 12.6611 27.2901 13.4509C27.969 13.885 28.5277 14.483 28.9147 15.1898C29.3017 15.8966 29.5046 16.6895 29.5046 17.4953C29.5046 18.3011 29.3017 19.094 28.9147 19.8008C28.5277 20.5076 27.969 21.1056 27.2901 21.5396C27.4669 22.3283 27.4418 23.1489 27.2169 23.9252C26.9921 24.7015 26.5749 25.4086 26.0039 25.9807C25.433 26.5528 24.7269 26.9715 23.951 27.1979C23.1752 27.4244 22.3547 27.4513 21.5656 27.2761C21.1321 27.9576 20.5336 28.5187 19.8256 28.9075C19.1176 29.2962 18.323 29.5 17.5153 29.5C16.7076 29.5 15.9129 29.2962 15.2049 28.9075C14.4969 28.5187 13.8985 27.9576 13.4649 27.2761C12.6763 27.453 11.8557 27.4278 11.0794 27.2029C10.303 26.9781 9.59602 26.5609 9.02391 25.99C8.45179 25.419 8.03309 24.7129 7.80663 23.937C7.58016 23.1612 7.55327 22.3407 7.72843 21.5516C7.04432 21.1187 6.48082 20.5198 6.09035 19.8106C5.69988 19.1013 5.49512 18.3049 5.49512 17.4953C5.49512 16.6857 5.69988 15.8892 6.09035 15.18C6.48082 14.4708 7.04432 13.8719 7.72843 13.4389Z" stroke="#EF5F63" stroke-width="3" stroke-linecap="round" stroke-linejoin="round"/>
<path d="M13.9082 17.4953L16.3084 19.8955L21.1088 15.0951" stroke="#EF5F63" stroke-width="3" stroke-linecap="round" stroke-linejoin="round"/>
</svg>
