<svg width="22" height="22" viewBox="0 0 22 22" fill="none" xmlns="http://www.w3.org/2000/svg">
<path d="M11 0C4.93466 0 0 4.93466 0 11C0 17.0653 4.93466 22 11 22C17.0653 22 22 17.0653 22 11C22 4.93466 17.0653 0 11 0ZM16.7248 7.31341L9.61707 15.775C9.5391 15.8678 9.44209 15.9428 9.33259 15.9949C9.2231 16.047 9.10369 16.075 8.98245 16.0769H8.96817C8.84957 16.0769 8.73231 16.0519 8.62398 16.0036C8.51565 15.9553 8.41869 15.8848 8.33938 15.7966L5.29322 12.412C5.21586 12.33 5.15568 12.2333 5.11622 12.1276C5.07676 12.022 5.05882 11.9095 5.06344 11.7969C5.06807 11.6842 5.09517 11.5736 5.14315 11.4715C5.19114 11.3695 5.25904 11.278 5.34286 11.2026C5.42669 11.1272 5.52475 11.0692 5.63128 11.0322C5.73781 10.9952 5.85066 10.9799 5.9632 10.9871C6.07574 10.9944 6.18569 11.024 6.2866 11.0744C6.38752 11.1247 6.47735 11.1947 6.55082 11.2803L8.94596 13.9414L15.4291 6.22505C15.5745 6.05692 15.7803 5.95277 16.0019 5.93511C16.2234 5.91745 16.4431 5.9877 16.6133 6.13068C16.7835 6.27366 16.8906 6.47788 16.9115 6.6992C16.9323 6.92052 16.8653 7.14115 16.7248 7.31341Z" fill="#EF5F63"/>
</svg>
