<svg width="35" height="35" viewBox="0 0 35 35" fill="none" xmlns="http://www.w3.org/2000/svg">
<path d="M13.5 5.5H6.83333C6.47971 5.5 6.14057 5.64048 5.89052 5.89052C5.64048 6.14057 5.5 6.47971 5.5 6.83333V13.5C5.5 13.8536 5.64048 14.1928 5.89052 14.4428C6.14057 14.6929 6.47971 14.8333 6.83333 14.8333H13.5C13.8536 14.8333 14.1928 14.6929 14.4428 14.4428C14.6929 14.1928 14.8333 13.8536 14.8333 13.5V6.83333C14.8333 6.47971 14.6929 6.14057 14.4428 5.89052C14.1928 5.64048 13.8536 5.5 13.5 5.5ZM13.5 20.1667H6.83333C6.47971 20.1667 6.14057 20.3071 5.89052 20.5572C5.64048 20.8072 5.5 21.1464 5.5 21.5V28.1667C5.5 28.5203 5.64048 28.8594 5.89052 29.1095C6.14057 29.3595 6.47971 29.5 6.83333 29.5H13.5C13.8536 29.5 14.1928 29.3595 14.4428 29.1095C14.6929 28.8594 14.8333 28.5203 14.8333 28.1667V21.5C14.8333 21.1464 14.6929 20.8072 14.4428 20.5572C14.1928 20.3071 13.8536 20.1667 13.5 20.1667ZM24.8333 14.8333C25.4462 14.8333 26.053 14.7126 26.6192 14.4781C27.1854 14.2436 27.6998 13.8998 28.1332 13.4665C28.5665 13.0332 28.9102 12.5187 29.1448 11.9525C29.3793 11.3863 29.5 10.7795 29.5 10.1667C29.5 9.55383 29.3793 8.947 29.1448 8.38081C28.9102 7.81462 28.5665 7.30018 28.1332 6.86684C27.6998 6.4335 27.1854 6.08975 26.6192 5.85523C26.053 5.62071 25.4462 5.5 24.8333 5.5C23.5957 5.5 22.4087 5.99167 21.5335 6.86684C20.6583 7.74201 20.1667 8.92899 20.1667 10.1667C20.1667 11.4043 20.6583 12.5913 21.5335 13.4665C22.4087 14.3417 23.5957 14.8333 24.8333 14.8333ZM28.1667 20.1667H21.5C21.1464 20.1667 20.8072 20.3071 20.5572 20.5572C20.3071 20.8072 20.1667 21.1464 20.1667 21.5V28.1667C20.1667 28.5203 20.3071 28.8594 20.5572 29.1095C20.8072 29.3595 21.1464 29.5 21.5 29.5H28.1667C28.5203 29.5 28.8594 29.3595 29.1095 29.1095C29.3595 28.8594 29.5 28.5203 29.5 28.1667V21.5C29.5 21.1464 29.3595 20.8072 29.1095 20.5572C28.8594 20.3071 28.5203 20.1667 28.1667 20.1667Z" stroke="#EF5F63" stroke-width="3" stroke-linejoin="round"/>
</svg>
