<svg width="35" height="35" viewBox="0 0 35 35" fill="none" xmlns="http://www.w3.org/2000/svg">
<path d="M8.70198 15.486L4.46709 11.3267C4.31904 11.1817 4.20157 11.0096 4.12141 10.82C4.04126 10.6304 4 10.4271 4 10.2218C4 10.0165 4.04126 9.81327 4.12141 9.62368C4.20157 9.43409 4.31904 9.2619 4.46709 9.11699L8.70198 4.95764C8.8497 4.81255 9.02508 4.69746 9.21809 4.61894C9.41109 4.54041 9.61796 4.5 9.82687 4.5C10.0358 4.5 10.2427 4.54041 10.4357 4.61894C10.6287 4.69746 10.804 4.81255 10.9518 4.95764C11.0995 5.10272 11.2167 5.27497 11.2966 5.46454C11.3766 5.6541 11.4177 5.85728 11.4177 6.06247C11.4177 6.26765 11.3766 6.47083 11.2966 6.66039C11.2167 6.84996 11.0995 7.02221 10.9518 7.16729L7.84044 10.2231L10.9491 13.279C11.2475 13.572 11.4151 13.9694 11.4151 14.3838C11.4151 14.7982 11.2475 15.1956 10.9491 15.4886C10.6508 15.7816 10.2461 15.9462 9.82423 15.9462C9.40231 15.9462 8.99767 15.7816 8.69933 15.4886L8.70198 15.486ZM15.0543 15.486C15.2019 15.6314 15.3772 15.7468 15.5702 15.8255C15.7632 15.9042 15.9702 15.9448 16.1792 15.9448C16.3882 15.9448 16.5952 15.9042 16.7882 15.8255C16.9812 15.7468 17.1566 15.6314 17.3041 15.486L21.539 11.3267C21.687 11.1817 21.8045 11.0096 21.8847 10.82C21.9648 10.6304 22.0061 10.4271 22.0061 10.2218C22.0061 10.0165 21.9648 9.81327 21.8847 9.62368C21.8045 9.43409 21.687 9.2619 21.539 9.11699L17.3041 4.95764C17.0058 4.66462 16.6011 4.5 16.1792 4.5C15.7573 4.5 15.3527 4.66462 15.0543 4.95764C14.756 5.25065 14.5884 5.64807 14.5884 6.06247C14.5884 6.47686 14.756 6.87428 15.0543 7.16729L18.163 10.2231L15.0543 13.279C14.9067 13.4238 14.7895 13.5958 14.7096 13.7852C14.6297 13.9745 14.5886 14.1775 14.5886 14.3825C14.5886 14.5875 14.6297 14.7904 14.7096 14.9798C14.7895 15.1691 14.9067 15.3412 15.0543 15.486ZM28.3532 6.58368H25.7064C25.2852 6.58368 24.8813 6.74802 24.5834 7.04053C24.2856 7.33304 24.1183 7.72977 24.1183 8.14344C24.1183 8.55712 24.2856 8.95385 24.5834 9.24636C24.8813 9.53887 25.2852 9.7032 25.7064 9.7032H27.8238V27.3805H9.82555V20.1016C9.82555 19.6879 9.65823 19.2912 9.36041 18.9987C9.06259 18.7062 8.65865 18.5418 8.23747 18.5418C7.81628 18.5418 7.41234 18.7062 7.11452 18.9987C6.8167 19.2912 6.64938 19.6879 6.64938 20.1016V27.9004C6.64938 28.5899 6.92824 29.2511 7.42461 29.7386C7.92099 30.2261 8.59421 30.5 9.29619 30.5H28.3532C29.0552 30.5 29.7284 30.2261 30.2248 29.7386C30.7211 29.2511 31 28.5899 31 27.9004V9.18328C31 8.49383 30.7211 7.83261 30.2248 7.34509C29.7284 6.85757 29.0552 6.58368 28.3532 6.58368Z" fill="#EF5F63"/>
<path d="M8.70198 15.486L4.46709 11.3267C4.31904 11.1817 4.20157 11.0096 4.12141 10.82C4.04126 10.6304 4 10.4271 4 10.2218C4 10.0165 4.04126 9.81327 4.12141 9.62368C4.20157 9.43409 4.31904 9.2619 4.46709 9.11699L8.70198 4.95764C8.8497 4.81255 9.02508 4.69746 9.21809 4.61894C9.41109 4.54041 9.61796 4.5 9.82687 4.5C10.0358 4.5 10.2427 4.54041 10.4357 4.61894C10.6287 4.69746 10.804 4.81255 10.9518 4.95764C11.0995 5.10272 11.2167 5.27497 11.2966 5.46454C11.3766 5.6541 11.4177 5.85728 11.4177 6.06247C11.4177 6.26765 11.3766 6.47083 11.2966 6.66039C11.2167 6.84996 11.0995 7.02221 10.9518 7.16729L7.84044 10.2231L10.9491 13.279C11.2475 13.572 11.4151 13.9694 11.4151 14.3838C11.4151 14.7982 11.2475 15.1956 10.9491 15.4886C10.6508 15.7816 10.2461 15.9462 9.82423 15.9462C9.40231 15.9462 8.99767 15.7816 8.69933 15.4886L8.70198 15.486ZM15.0543 15.486C15.2019 15.6314 15.3772 15.7468 15.5702 15.8255C15.7632 15.9042 15.9702 15.9448 16.1792 15.9448C16.3882 15.9448 16.5952 15.9042 16.7882 15.8255C16.9812 15.7468 17.1566 15.6314 17.3041 15.486L21.539 11.3267C21.687 11.1817 21.8045 11.0096 21.8847 10.82C21.9648 10.6304 22.0061 10.4271 22.0061 10.2218C22.0061 10.0165 21.9648 9.81327 21.8847 9.62368C21.8045 9.43409 21.687 9.2619 21.539 9.11699L17.3041 4.95764C17.0058 4.66462 16.6011 4.5 16.1792 4.5C15.7573 4.5 15.3527 4.66462 15.0543 4.95764C14.756 5.25065 14.5884 5.64807 14.5884 6.06247C14.5884 6.47686 14.756 6.87428 15.0543 7.16729L18.163 10.2231L15.0543 13.279C14.9067 13.4238 14.7895 13.5958 14.7096 13.7852C14.6297 13.9745 14.5886 14.1775 14.5886 14.3825C14.5886 14.5875 14.6297 14.7904 14.7096 14.9798C14.7895 15.1691 14.9067 15.3412 15.0543 15.486ZM28.3532 6.58368H25.7064C25.2852 6.58368 24.8813 6.74802 24.5834 7.04053C24.2856 7.33304 24.1183 7.72977 24.1183 8.14344C24.1183 8.55712 24.2856 8.95385 24.5834 9.24636C24.8813 9.53887 25.2852 9.7032 25.7064 9.7032H27.8238V27.3805H9.82555V20.1016C9.82555 19.6879 9.65823 19.2912 9.36041 18.9987C9.06259 18.7062 8.65865 18.5418 8.23747 18.5418C7.81628 18.5418 7.41234 18.7062 7.11452 18.9987C6.8167 19.2912 6.64938 19.6879 6.64938 20.1016V27.9004C6.64938 28.5899 6.92824 29.2511 7.42461 29.7386C7.92099 30.2261 8.59421 30.5 9.29619 30.5H28.3532C29.0552 30.5 29.7284 30.2261 30.2248 29.7386C30.7211 29.2511 31 28.5899 31 27.9004V9.18328C31 8.49383 30.7211 7.83261 30.2248 7.34509C29.7284 6.85757 29.0552 6.58368 28.3532 6.58368Z" stroke="#EF5F63"/>
</svg>
