<svg width="35" height="35" viewBox="0 0 35 35" fill="none" xmlns="http://www.w3.org/2000/svg">
<path d="M5.7619 7.7H16.8095V6.3H5.7619V7.7ZM5.7619 31.5C5.00238 31.5 4.35241 31.2261 3.812 30.6782C3.27159 30.1303 3.00092 29.4709 3 28.7V6.3C3 5.53 3.27067 4.87107 3.812 4.3232C4.35333 3.77533 5.0033 3.50093 5.7619 3.5H16.8095C17.569 3.5 18.2195 3.7744 18.7608 4.3232C19.3021 4.872 19.5723 5.53093 19.5714 6.3V11.69C19.0421 11.97 18.5472 12.2911 18.0869 12.6532C17.6266 13.0153 17.2008 13.4176 16.8095 13.86V10.5H5.7619V24.5H14.6345C14.8187 25.0133 15.0318 25.5033 15.2739 25.97C15.516 26.4367 15.7977 26.88 16.119 27.3H5.7619V28.7H16.8095V28.14C17.1548 28.5367 17.523 28.8983 17.9143 29.225C18.3056 29.5517 18.7313 29.8433 19.1917 30.1C18.9385 30.52 18.6107 30.8583 18.2084 31.115C17.8061 31.3717 17.3398 31.5 16.8095 31.5H5.7619ZM24.4048 25.9C25.7397 25.9 26.879 25.4217 27.8226 24.465C28.7663 23.5083 29.2381 22.3533 29.2381 21C29.2381 19.6467 28.7663 18.4917 27.8226 17.535C26.879 16.5783 25.7397 16.1 24.4048 16.1C23.0698 16.1 21.9306 16.5783 20.9869 17.535C20.0433 18.4917 19.5714 19.6467 19.5714 21C19.5714 22.3533 20.0433 23.5083 20.9869 24.465C21.9306 25.4217 23.0698 25.9 24.4048 25.9ZM20.9524 31.5V27.86C19.7095 27.23 18.7083 26.3083 17.9488 25.095C17.1893 23.8817 16.8095 22.5167 16.8095 21C16.8095 19.4833 17.1893 18.1183 17.9488 16.905C18.7083 15.6917 19.7095 14.77 20.9524 14.14V10.5H27.8571V14.14C29.1 14.77 30.1012 15.6917 30.8607 16.905C31.6202 18.1183 32 19.4833 32 21C32 22.5167 31.6202 23.8817 30.8607 25.095C30.1012 26.3083 29.1 27.23 27.8571 27.86V31.5H20.9524Z" fill="#EF5F63"/>
</svg>
