<svg width="105" height="45" viewBox="0 0 105 45" fill="none" xmlns="http://www.w3.org/2000/svg">
<path d="M90.9849 28.8037L90.5342 29.2372C90.1354 28.8558 89.598 28.6477 89.0432 28.6824C88.6965 28.6304 88.3498 28.7344 88.0897 28.9771C87.8297 29.2025 87.6736 29.5492 87.691 29.896C87.6736 30.1733 87.7777 30.4507 87.9857 30.6414C88.2457 30.8321 88.5405 30.9535 88.8525 30.9882L89.5633 31.0922C89.9967 31.1095 90.3955 31.2655 90.7422 31.5429C91.1063 31.855 91.3143 32.3404 91.297 32.8258C91.297 33.9354 90.4128 34.6462 89.0779 34.6462H89.0952C88.2631 34.7155 87.4483 34.4035 86.8762 33.7967L87.3442 33.3286C87.795 33.814 88.4364 34.0741 89.0952 34.0394C90.0314 34.0394 90.6035 33.5886 90.6035 32.8432C90.6209 32.5484 90.5168 32.2537 90.2915 32.0283C90.0488 31.8376 89.754 31.7336 89.4593 31.7163L88.7138 31.5949C88.2804 31.5429 87.8817 31.3696 87.5349 31.1095C87.2056 30.7975 87.0322 30.364 87.0495 29.9133C87.0495 28.8037 87.8297 28.0929 89.0952 28.0929C89.7887 28.0583 90.4648 28.301 90.9849 28.8037ZM55.4969 28.145V32.4098C55.4969 32.9645 55.7917 33.4846 56.2771 33.762C56.7625 34.0394 57.352 34.0394 57.8374 33.762C58.3228 33.4846 58.6175 32.9645 58.6175 32.4098V28.145H59.259V32.4618C59.2763 33.0512 59.0509 33.6233 58.6175 34.0394C58.2015 34.4555 57.6293 34.6808 57.0399 34.6462C56.4505 34.6808 55.8783 34.4555 55.4623 34.0394C55.0635 33.658 54.8382 33.1206 54.8208 32.5831V28.145H55.4969ZM85.1078 28.613C85.4719 28.9598 85.6626 29.4452 85.6453 29.948C85.6799 30.7975 85.0905 31.5429 84.241 31.6816L85.7666 34.6115L84.9691 34.6462L83.4955 31.7163H81.9699V34.5768H81.2764V28.145H83.7382C84.241 28.0929 84.7438 28.2663 85.1078 28.613ZM101.005 28.145L102.514 31.2309L104.005 28.145H104.75L102.86 31.9243V34.5942H102.167V31.9243L100.26 28.145H101.005ZM99.3065 28.145V28.7517H97.4515V34.5942H96.7753V28.7517H94.9203V28.145H99.3065ZM93.4987 28.145V34.5942H92.8226V28.145H93.4987ZM79.7508 28.145V28.7517H76.4569V31.0228H79.2654V31.6296H76.4569V33.97H79.7508V34.5942H75.7807V28.145H79.7508ZM61.7208 28.145L65.1187 33.2939V28.145H65.7949V34.5942H65.1534L61.7555 29.4279V34.5942H61.0793V28.145H61.7208ZM68.378 28.145V34.5942H67.7019V28.145H68.378ZM70.4064 28.145L72.0707 33.3633L73.735 28.145H74.4632L72.3481 34.5942H71.7933L69.6783 28.145H70.4064ZM83.6689 28.7517H81.9699V31.1442H83.6689C84.1196 31.1962 84.5531 30.9708 84.7784 30.5894C85.0211 30.208 85.0211 29.7226 84.7784 29.3412C84.5357 28.9598 84.1023 28.7344 83.6689 28.7864V28.7517ZM71.4639 21.037H70.129C70.0597 20.4822 69.5742 20.0661 69.0195 20.0661C68.6901 20.0488 68.378 20.1701 68.17 20.4128C67.9099 20.6902 67.8406 21.0023 67.8406 22.1985V22.3372C67.8406 23.6548 67.8926 23.9668 68.17 24.2616C68.378 24.5043 68.6901 24.643 69.0195 24.6256C69.5742 24.6256 70.0597 24.2096 70.129 23.6548H71.4639C71.3252 24.9204 70.233 25.8565 68.9675 25.8045C68.2913 25.8219 67.6152 25.5445 67.1471 25.059C66.8697 24.7817 66.6617 24.4176 66.5924 24.0362C66.5057 23.4814 66.471 22.9266 66.471 22.3545C66.4537 21.7998 66.5057 21.2277 66.5924 20.6729C66.6617 20.2915 66.8524 19.9274 67.1471 19.65C67.6152 19.1473 68.274 18.8699 68.9675 18.8699C70.2504 18.8179 71.3426 19.754 71.4639 21.037ZM65.4308 18.9392V20.1181H62.2929V21.7131H64.9627V22.892H62.2929V24.5563H65.4308V25.7352H60.9753V18.9219H65.4308V18.9392ZM73.9257 18.9392V21.9038L76.3182 18.9392H77.9131L75.6767 21.6437L78.0692 25.7525H76.5262L74.7926 22.6493L73.9084 23.6895V25.7352H72.5908V18.9219H73.9257V18.9392ZM57.4386 18.9392C58.7562 18.9392 59.5364 19.6847 59.5364 20.8463C59.5364 21.4357 59.207 21.9731 58.6869 22.2505C59.2763 22.5106 59.6577 23.1173 59.6231 23.7761C59.6231 25.0417 58.7562 25.7352 57.56 25.7352H54.7168V18.9219H57.4386V18.9392ZM95.059 18.9392V20.1181H93.2907V25.7352H91.9731V20.1181H90.2048V18.9392H95.059ZM83.3742 18.9392V20.1181H80.2362V21.7131H82.9061V22.892H80.2362V24.5563H83.3742V25.7352H78.9187V18.9219H83.3742V18.9392ZM89.2686 18.9392V20.1181H87.5003V25.7352H86.1827V20.1181H84.4144V18.9392H89.2686ZM57.4213 22.892H56.0344V24.5736H57.4213C57.6467 24.591 57.8894 24.5216 58.0628 24.3656C58.2361 24.2096 58.3228 23.9668 58.3055 23.7415C58.3228 23.5161 58.2188 23.2734 58.0628 23.1173C57.8894 22.9266 57.6467 22.8573 57.4213 22.892ZM57.3346 20.1008H56.0344V21.6784H57.3346C57.6293 21.6957 57.9067 21.5571 58.0628 21.3143C58.2188 21.0543 58.2188 20.7422 58.0628 20.4822C57.9067 20.2221 57.6293 20.0834 57.3346 20.1008ZM82.5247 10.8257L81.6752 11.6405C81.2938 11.2938 80.791 11.1378 80.2883 11.1724C79.5775 11.1724 79.2481 11.5712 79.2481 12.0393C79.2481 12.23 79.3174 12.4033 79.4561 12.5247C79.6295 12.6807 79.8548 12.7674 80.0802 12.7847L80.8777 12.8888C81.3458 12.9234 81.7965 13.1141 82.1779 13.4262C82.542 13.8076 82.7327 14.3277 82.698 14.8651C82.698 16.1827 81.5885 16.9282 80.1842 16.9282V16.9455C79.2654 17.0149 78.3639 16.6855 77.7224 16.044L78.5719 15.1772C79.0227 15.5759 79.6121 15.784 80.2016 15.732C80.9817 15.732 81.3978 15.4372 81.3978 14.8825C81.4151 14.6744 81.3285 14.4664 81.1898 14.3277C81.0164 14.189 80.8084 14.1023 80.583 14.085L79.7508 13.9636C79.2654 13.929 78.7973 13.7209 78.4332 13.4089C78.1038 13.0448 77.9305 12.5594 77.9478 12.0739C77.9478 10.8604 78.832 10.0109 80.3056 10.0109C81.1378 9.95888 81.9352 10.2536 82.5247 10.8257ZM76.1968 10.7217C76.925 11.4672 76.8903 12.3513 76.8903 13.3222V13.4435C76.8903 14.4664 76.9596 15.4546 76.1968 16.2347V16.2521C75.7114 16.7028 75.0699 16.9282 74.4112 16.8935H71.9667V10.0629H74.4112C75.0526 10.0456 75.6941 10.2883 76.1968 10.7217ZM56.0517 10.0802V15.6973H59.1203V16.8762H54.7168V10.0629H56.0517V10.0802ZM64.7373 10.0802V11.2591H61.5994V12.8541H64.2693V14.033H61.5994V15.6973H64.7373V16.8762H60.2818V10.0629H64.7373V10.0802ZM70.5798 10.0802V11.2591H67.4418V12.8541H70.1117V14.033H67.4418V15.6973H70.5798V16.8762H66.1243V10.0629H70.5798V10.0802ZM74.2725 11.2591H73.2669V15.7146H74.2725C74.6539 15.7493 75.0179 15.5759 75.2606 15.2985C75.5034 15.0038 75.538 14.5531 75.5554 13.5996V13.4609C75.5554 12.4207 75.5207 12.0046 75.2606 11.6925V11.6752C75.0179 11.3978 74.6539 11.2418 74.2725 11.2591Z" fill="white"/>
<path d="M22.6288 24.7817H20.375V21.6958H22.6288C23.0275 21.6612 23.4263 21.7998 23.7383 22.0946C24.0331 22.3893 24.1891 22.8054 24.1717 23.2388C24.1891 23.6722 24.0331 24.0883 23.7383 24.383C23.4436 24.6777 23.0449 24.8164 22.6288 24.7817ZM20.375 17.5524H22.5074C23.0449 17.5004 23.565 17.7604 23.8423 18.2285C24.1197 18.7139 24.1197 19.3207 23.8423 19.7888C23.565 20.2569 23.0449 20.5343 22.5074 20.4649H20.375V17.5524ZM24.3451 21.2971L23.8077 21.037L24.3451 20.777C25.0039 20.4129 25.42 19.7021 25.42 18.922C25.42 17.2923 24.3971 16.3215 22.6808 16.3215H19.0228V26.0126H22.8368C24.5358 26.0126 25.5587 25.0071 25.5587 23.3428C25.5933 22.4586 25.1079 21.6438 24.3451 21.2971ZM13.4751 24.6777V17.6564H14.758V23.4468H17.7225V24.6604H13.4751V24.6777ZM29.6154 24.6777C28.974 24.7124 28.3499 24.487 27.8818 24.0189C27.4137 23.5508 27.1536 22.9094 27.171 22.2506V17.6737H28.4712V22.1812C28.4365 22.632 28.6619 23.0654 29.026 23.2908C29.3901 23.5335 29.8581 23.5335 30.2222 23.2908C30.5863 23.0481 30.8117 22.632 30.777 22.1812V17.6564H32.0599V22.2333C32.0599 22.9094 31.7998 23.5508 31.3491 24.0016C30.881 24.4697 30.2569 24.7124 29.6154 24.6777ZM22.6115 8.97077C17.7225 8.97077 13.319 11.9873 11.4467 16.5989C9.57434 21.2104 10.6145 26.5327 14.0645 30.0694C17.5145 33.6061 22.7155 34.6636 27.223 32.7566C31.7305 30.8495 34.6777 26.342 34.6777 21.3318C34.6777 14.5185 29.2687 8.97077 22.6115 8.97077ZM22.6115 33.19C17.9306 33.19 13.7004 30.3121 11.9148 25.8739C10.1291 21.4358 11.1173 16.3388 14.4286 12.9582C17.7399 9.56021 22.7155 8.55469 27.0496 10.3924C31.3664 12.23 34.1923 16.5469 34.1923 21.3491C34.175 27.8677 28.9913 33.1726 22.6115 33.19ZM22.6115 8.19062C17.4105 8.19062 12.7296 11.3979 10.7359 16.3041C8.74219 21.2104 9.85173 26.8795 13.5097 30.6415C17.1851 34.4035 22.6981 35.5304 27.5004 33.502C32.3026 31.4737 35.4232 26.6714 35.4232 21.3491C35.4405 14.0851 29.7021 8.19062 22.6115 8.19062ZM22.6115 35.7038C16.9424 35.7038 11.8108 32.2018 9.64369 26.8275C7.47662 21.4531 8.67284 15.2813 12.6776 11.1725C16.6823 7.06375 22.7328 5.83285 27.9685 8.05193C33.2041 10.271 36.6367 15.524 36.6194 21.3318C36.6194 29.2719 30.3436 35.6865 22.6115 35.7038ZM30.0662 0.787902C27.5004 0.181121 24.3798 1.32533 24.3798 1.32533C23.825 1.53337 23.2356 1.63739 22.6288 1.63739C22.022 1.65473 21.4152 1.56805 20.8431 1.36001C20.8431 1.36001 17.7052 0.181121 15.1567 0.822575C15.1567 0.822575 12.6429 1.308 13.2324 4.63662C13.2324 4.63662 13.3711 2.05347 16.561 2.05347C16.561 2.05347 17.7572 2.00146 20.271 3.18035C20.4964 3.30171 20.7391 3.40573 20.9818 3.49241C21.1378 3.54442 21.3112 3.59643 21.5192 3.6311L21.6926 3.66577C21.762 3.68311 21.8486 3.70045 21.918 3.70045C22.3861 3.76979 22.8542 3.76979 23.3049 3.70045L23.5303 3.61376L23.7383 3.56176H23.825C23.9464 3.52708 24.0677 3.49241 24.1891 3.4404C24.4318 3.35371 24.6745 3.2497 24.9172 3.12834C27.4137 1.96679 28.6272 2.00146 28.6272 2.00146C31.8172 2.00146 31.9559 4.58461 31.9559 4.58461C32.58 1.29066 30.0488 0.787902 30.0662 0.787902ZM0.767359 22.1292C1.11409 19.4421 3.2985 16.8416 3.2985 16.8416C3.69724 16.3735 4.0093 15.8534 4.21734 15.264C4.42538 14.6918 4.5294 14.0851 4.54673 13.4609C4.54673 13.4609 4.54673 10.011 6.02034 7.77454C6.02034 7.77454 7.35526 5.53813 10.2158 7.30646C10.2158 7.30646 7.77134 6.49164 6.64446 9.57755C6.64446 9.57755 6.17637 10.6871 6.36707 13.5476C6.40175 13.8077 6.41908 14.0851 6.40175 14.3624C6.40175 14.5531 6.38441 14.7439 6.36707 14.9172C6.36707 14.9866 6.36707 15.0386 6.3324 15.0906L6.28039 15.3333C6.17637 15.8014 6.00301 16.2521 5.77763 16.6682C5.74296 16.7376 5.70828 16.7896 5.67361 16.8589L5.55226 17.0496C5.53492 17.067 5.51758 17.1016 5.50025 17.119C5.4309 17.223 5.34422 17.327 5.25753 17.431C5.08417 17.6217 4.9108 17.8124 4.7201 17.9858C2.76107 20.0142 2.36232 21.1757 2.36232 21.1757C1.23545 24.2443 3.59322 25.3192 3.59322 25.3192C0.35128 24.7124 0.767359 22.1292 0.767359 22.1292ZM44.4729 22.1466C44.1262 19.4594 41.9244 16.8589 41.9244 16.8589C41.543 16.3908 41.2309 15.8707 41.0229 15.2813C40.7975 14.7092 40.6935 14.1024 40.6935 13.4783C40.6935 13.4783 40.6935 10.0283 39.2199 7.77454C39.2199 7.77454 37.885 5.53813 35.0071 7.30646C35.0071 7.30646 37.4689 6.49164 38.5958 9.57755C38.5958 9.57755 39.0639 10.7044 38.8732 13.565C38.8385 13.825 38.8212 14.1024 38.8212 14.3798C38.8212 14.5532 38.8212 14.7439 38.8732 14.9346V15.1079C38.8732 15.1599 38.9078 15.264 38.9252 15.3506C39.0292 15.8187 39.2026 16.2695 39.4279 16.6856L39.532 16.8763L39.6533 17.067L39.7053 17.1363C39.7747 17.2403 39.8614 17.3617 39.948 17.4484C40.1214 17.6391 40.2948 17.8298 40.4855 18.0031C42.4618 19.9968 42.8432 21.1757 42.8432 21.1757C43.9875 24.2616 41.6123 25.3365 41.6123 25.3365C44.9063 24.7124 44.4555 22.1119 44.4555 22.1119M4.35603 33.7101C6.17637 35.7038 9.48766 36.4839 9.48766 36.4839C10.6665 36.7787 11.7067 37.4895 12.4349 38.4776C12.4349 38.4776 14.4286 41.2862 16.9251 42.2223C16.9251 42.2223 19.3175 43.2452 20.6524 40.0726C20.6524 40.0726 19.0921 42.2223 16.405 40.3847C16.405 40.3847 15.3648 39.7432 13.8912 37.2988C13.7698 37.056 13.6138 36.8307 13.4577 36.6053C13.3537 36.4493 13.2324 36.3106 13.0937 36.1719L12.9723 36.0505L12.7989 35.8945C12.4522 35.5651 12.0535 35.305 11.6374 35.097L11.4467 35.0103L11.2387 34.9236L11.152 34.889C11.0306 34.837 10.9093 34.8023 10.7879 34.785C10.5279 34.7156 10.2678 34.6809 9.99042 34.6636C7.25124 34.2302 6.24572 33.502 6.24572 33.502C3.54121 31.6644 4.87613 29.3759 4.87613 29.3759C2.51835 31.8551 4.37337 33.7101 4.35603 33.7101ZM40.8322 33.7101C39.0119 35.7038 35.7179 36.4839 35.7179 36.4839C34.539 36.7787 33.4815 37.4721 32.7534 38.4776C32.7534 38.4776 30.777 41.2862 28.2805 42.2223C28.2805 42.2223 25.8881 43.2452 24.5532 40.0726C24.5532 40.0726 26.1134 42.2223 28.8006 40.3847C28.8006 40.3847 29.8408 39.7432 31.2971 37.2988C31.4184 37.056 31.5745 36.8307 31.7305 36.6053C31.8345 36.4666 31.9559 36.3106 32.0946 36.1719C32.1292 36.1199 32.1812 36.0852 32.2159 36.0505L32.3893 35.8945C32.736 35.5824 33.1348 35.305 33.5682 35.097L33.7589 35.0103L33.9669 34.9236L34.0536 34.889C34.279 34.8023 34.4177 34.785 34.4177 34.785C34.6777 34.7156 34.9551 34.6809 35.2151 34.6463C37.9543 34.2128 38.9599 33.4847 38.9599 33.4847C41.647 31.647 40.3294 29.3586 40.3294 29.3586C42.6872 31.8551 40.8322 33.7101 40.8322 33.7101ZM22.7675 44.3894L23.9117 36.7093H22.7675H21.6233L22.7675 44.3894ZM44.1435 28.3531L37.3649 24.6777L37.0008 25.8566L36.6367 27.0355L44.1435 28.3531ZM1.06208 28.3531L7.84068 24.6777L8.20475 25.8566L8.56882 27.0355L1.06208 28.3531ZM35.978 2.27885L32.3546 9.30017L31.3838 8.57203L30.4129 7.84389L35.978 2.27885ZM9.22761 2.27885L12.851 9.30017L13.8218 8.57203L14.7927 7.84389L9.22761 2.27885Z" fill="white"/>
</svg>
