<svg width="600" height="600" viewBox="0 0 600 600" fill="none" xmlns="http://www.w3.org/2000/svg">
<path d="M0.306797 58.2021C-0.238972 37.9941 -0.511857 27.89 3.59172 19.7816C6.86352 13.3167 12.3042 7.74367 18.6975 4.30849C26.716 0 37.0013 0 57.5718 0C78.7152 0 89.2869 0 97.2467 4.22928C103.715 7.66639 108.96 12.9578 112.33 19.4482C116.477 27.4345 116.352 37.94 116.102 58.951C114.729 174.299 112.373 422.726 116.861 470C119.568 498.504 119.785 528.275 119.231 552.125C118.935 564.838 118.788 571.194 116.463 577.118C112.845 586.337 104.541 594.427 95.2143 597.82C89.2207 600 82.4024 600 68.7659 600C46.3568 600 35.1523 600 28.8282 597.542C17.2054 593.025 11.0929 586.465 7.42833 574.576C5.4344 568.106 6.34029 555.837 8.15208 531.299C11.5786 484.891 13.6481 411.327 8.94021 300C3.96878 178.387 1.51648 102.992 0.306797 58.2021Z" fill="#5366AA"/>
<path d="M278.764 58.2021C279.31 37.9941 279.583 27.89 275.479 19.7816C272.208 13.3167 266.767 7.74367 260.374 4.30849C252.355 0 242.07 0 221.499 0C200.356 0 189.784 0 181.824 4.22928C175.356 7.66639 170.111 12.9578 166.741 19.4482C162.595 27.4345 162.72 37.94 162.97 58.951C164.342 174.299 166.698 422.726 162.21 470C159.504 498.504 159.286 528.275 159.84 552.125C160.136 564.838 160.283 571.194 162.608 577.118C166.226 586.337 174.53 594.427 183.857 597.82C189.85 600 196.669 600 210.305 600C232.714 600 243.919 600 250.243 597.542C261.866 593.025 267.978 586.465 271.643 574.576C273.637 568.106 272.731 555.837 270.919 531.299C267.493 484.891 265.423 411.327 270.131 300C275.102 178.387 277.555 102.992 278.764 58.2021Z" fill="#7F59AE"/>
<path d="M599.693 58.2021C600.239 37.9941 600.512 27.89 596.408 19.7816C593.137 13.3167 587.696 7.74367 581.303 4.30849C573.284 0 562.999 0 542.428 0C521.285 0 510.713 0 502.753 4.22928C496.285 7.66639 491.04 12.9578 487.67 19.4482C483.523 27.4345 483.648 37.94 483.898 58.951C485.271 174.299 487.627 422.726 483.139 470C480.433 498.504 480.215 528.275 480.769 552.125C481.065 564.838 481.212 571.194 483.537 577.118C487.155 586.337 495.459 594.427 504.786 597.82C510.779 600 517.598 600 531.234 600C553.643 600 564.848 600 571.172 597.542C582.795 593.025 588.907 586.465 592.572 574.576C594.566 568.106 593.66 555.837 591.848 531.299C588.421 484.891 586.352 411.327 591.06 300C596.031 178.387 598.484 102.992 599.693 58.2021Z" fill="#EF5F63"/>
<path d="M321.236 541.798C320.69 562.006 320.417 572.11 324.521 580.218C327.792 586.683 333.233 592.256 339.626 595.692C347.645 600 357.93 600 378.501 600C399.644 600 410.216 600 418.176 595.771C424.644 592.334 429.889 587.042 433.259 580.552C437.405 572.565 437.28 562.06 437.03 541.049C435.658 425.701 433.302 177.274 437.79 130C440.496 101.496 440.714 71.7247 440.16 47.8752C439.864 35.1624 439.717 28.806 437.392 22.8819C433.774 13.6632 425.47 5.57277 416.143 2.18017C410.15 0 403.331 0 389.695 0C367.286 0 356.081 0 349.757 2.45778C338.134 6.97485 332.022 13.5349 328.357 25.4244C326.363 31.8937 327.269 44.1628 329.081 68.7011C332.508 115.109 334.577 188.673 329.869 300C324.898 421.613 322.445 497.008 321.236 541.798Z" fill="#BC6479"/>
</svg>
