<svg width="664" height="664" viewBox="0 0 664 664" fill="none" xmlns="http://www.w3.org/2000/svg">
<path d="M0.339522 64.4103C-0.264462 42.0468 -0.566455 30.865 3.97484 21.8916C7.59562 14.7371 13.6167 8.56966 20.6919 4.76807C29.5658 0 40.9481 0 63.7128 0C87.1115 0 98.8109 0 107.62 4.68041C114.778 8.48414 120.582 14.34 124.312 21.5227C128.901 30.3609 128.762 41.987 128.486 65.2391C126.967 192.891 124.359 467.817 129.326 520.133C132.321 551.677 132.563 584.625 131.949 611.018C131.622 625.087 131.458 632.121 128.886 638.677C124.882 648.879 115.692 657.833 105.37 661.587C98.7376 664 91.192 664 76.1009 664C51.3016 664 38.9019 664 31.9032 661.28C19.0407 656.281 12.2761 649.021 8.22068 635.864C6.01407 628.704 7.01659 615.127 9.02164 587.971C12.8137 536.613 15.1039 455.202 9.89383 332C4.39212 197.415 1.67823 113.978 0.339522 64.4103Z" fill="white"/>
<path d="M308.499 64.4103C309.103 42.0468 309.405 30.865 304.864 21.8916C301.243 14.7371 295.222 8.56966 288.147 4.76807C279.273 0 267.891 0 245.126 0C221.727 0 210.028 0 201.219 4.68041C194.06 8.48414 188.257 14.34 184.527 21.5227C179.938 30.3609 180.076 41.987 180.353 65.2391C181.872 192.891 184.479 467.817 179.512 520.133C176.517 551.677 176.276 584.625 176.89 611.018C177.217 625.087 177.38 632.121 179.953 638.677C183.957 648.879 193.147 657.833 203.468 661.587C210.101 664 217.647 664 232.738 664C257.537 664 269.937 664 276.935 661.28C289.798 656.281 296.563 649.021 300.618 635.864C302.825 628.704 301.822 615.127 299.817 587.971C296.025 536.613 293.735 455.202 298.945 332C304.447 197.415 307.161 113.978 308.499 64.4103Z" fill="white"/>
<path d="M663.66 64.4103C664.264 42.0468 664.566 30.865 660.025 21.8916C656.404 14.7371 650.383 8.56966 643.308 4.76807C634.434 0 623.052 0 600.287 0C576.888 0 565.189 0 556.38 4.68041C549.222 8.48414 543.418 14.34 539.688 21.5227C535.099 30.3609 535.238 41.987 535.514 65.2391C537.033 192.891 539.641 467.817 534.674 520.133C531.679 551.677 531.437 584.625 532.051 611.018C532.378 625.087 532.542 632.121 535.114 638.677C539.118 648.879 548.308 657.833 558.63 661.587C565.262 664 572.808 664 587.899 664C612.698 664 625.098 664 632.097 661.28C644.959 656.281 651.724 649.021 655.779 635.864C657.986 628.704 656.983 615.127 654.978 587.971C651.186 536.613 648.896 455.202 654.106 332C659.608 197.415 662.322 113.978 663.66 64.4103Z" fill="white"/>
<path d="M355.501 599.59C354.897 621.953 354.595 633.135 359.136 642.108C362.757 649.263 368.778 655.43 375.853 659.232C384.727 664 396.109 664 418.874 664C442.273 664 453.972 664 462.781 659.32C469.94 655.516 475.743 649.66 479.473 642.477C484.062 633.639 483.924 622.013 483.647 598.761C482.128 471.109 479.521 196.183 484.488 143.867C487.483 112.323 487.724 79.3753 487.11 52.9819C486.783 38.913 486.62 31.8786 484.047 25.3226C480.043 15.1207 470.853 6.1672 460.532 2.41272C453.899 0 446.353 0 431.262 0C406.463 0 394.063 0 387.065 2.71995C374.202 7.71884 367.437 14.9786 363.382 28.1364C361.175 35.2956 362.178 48.8735 364.183 76.0292C367.975 127.387 370.265 208.798 365.055 332C359.553 466.585 356.84 550.022 355.501 599.59Z" fill="white"/>
</svg>
