<svg width="35" height="35" viewBox="0 0 35 35" fill="none" xmlns="http://www.w3.org/2000/svg">
<path d="M33 17.5C33 21.1691 26.0604 24.1429 17.5 24.1429C8.93957 24.1429 2 21.1691 2 17.5C2 13.8309 8.93957 10.8571 17.5 10.8571C26.0604 10.8571 33 13.8309 33 17.5Z" stroke="#EF5F63" stroke-width="2.5"/>
<path d="M10.1166 31.1289C13.3428 32.8782 19.2616 28.1906 23.3403 20.6642C27.4168 13.1356 28.1077 5.61814 24.8815 3.87106C21.6553 2.12178 15.7365 6.80942 11.6578 14.3358C7.58127 21.8644 6.89041 29.3818 10.1166 31.1289Z" stroke="#EF5F63" stroke-width="2.5"/>
<path d="M24.8815 31.1289C21.6553 32.8782 15.7365 28.1906 11.6578 20.6642C7.58127 13.1356 6.89041 5.61814 10.1166 3.87106C13.3428 2.12178 19.2616 6.80942 23.3403 14.3358C27.4168 21.8644 28.1077 29.3818 24.8815 31.1289Z" stroke="#EF5F63" stroke-width="2.5"/>
<path d="M15.2852 17.5C15.2852 18.0873 15.5184 18.6505 15.9337 19.0657C16.349 19.481 16.9122 19.7143 17.4994 19.7143C18.0867 19.7143 18.6499 19.481 19.0652 19.0657C19.4804 18.6505 19.7137 18.0873 19.7137 17.5C19.7137 16.9127 19.4804 16.3495 19.0652 15.9343C18.6499 15.519 18.0867 15.2857 17.4994 15.2857C16.9122 15.2857 16.349 15.519 15.9337 15.9343C15.5184 16.3495 15.2852 16.9127 15.2852 17.5Z" stroke="#EF5F63" stroke-width="2.5"/>
</svg>
