<svg width="35" height="35" viewBox="0 0 35 35" fill="none" xmlns="http://www.w3.org/2000/svg">
<path d="M25 29.5H32.5V26.5C32.4999 25.5648 32.2085 24.6529 31.6662 23.8909C31.1239 23.129 30.3577 22.555 29.4741 22.2486C28.5905 21.9423 27.6334 21.9188 26.7359 22.1815C25.8383 22.4442 25.045 22.9801 24.466 23.7145M25 29.5H10M25 29.5V26.5C25 25.516 24.811 24.5755 24.466 23.7145M24.466 23.7145C23.909 22.3224 22.9476 21.1292 21.706 20.2887C20.4644 19.4482 18.9994 18.9989 17.5 18.9989C16.0006 18.9989 14.5356 19.4482 13.294 20.2887C12.0524 21.1292 11.091 22.3224 10.534 23.7145M10 29.5H2.5V26.5C2.50007 25.5648 2.7915 24.6529 3.33379 23.8909C3.87608 23.129 4.64228 22.555 5.52588 22.2486C6.40947 21.9423 7.36657 21.9188 8.26411 22.1815C9.16165 22.4442 9.95504 22.9801 10.534 23.7145M10 29.5V26.5C10 25.516 10.189 24.5755 10.534 23.7145M22 10C22 11.1935 21.5259 12.3381 20.682 13.182C19.8381 14.0259 18.6935 14.5 17.5 14.5C16.3065 14.5 15.1619 14.0259 14.318 13.182C13.4741 12.3381 13 11.1935 13 10C13 8.80653 13.4741 7.66193 14.318 6.81802C15.1619 5.97411 16.3065 5.5 17.5 5.5C18.6935 5.5 19.8381 5.97411 20.682 6.81802C21.5259 7.66193 22 8.80653 22 10ZM31 14.5C31 15.2956 30.6839 16.0587 30.1213 16.6213C29.5587 17.1839 28.7956 17.5 28 17.5C27.2044 17.5 26.4413 17.1839 25.8787 16.6213C25.3161 16.0587 25 15.2956 25 14.5C25 13.7044 25.3161 12.9413 25.8787 12.3787C26.4413 11.8161 27.2044 11.5 28 11.5C28.7956 11.5 29.5587 11.8161 30.1213 12.3787C30.6839 12.9413 31 13.7044 31 14.5ZM10 14.5C10 15.2956 9.68393 16.0587 9.12132 16.6213C8.55871 17.1839 7.79565 17.5 7 17.5C6.20435 17.5 5.44129 17.1839 4.87868 16.6213C4.31607 16.0587 4 15.2956 4 14.5C4 13.7044 4.31607 12.9413 4.87868 12.3787C5.44129 11.8161 6.20435 11.5 7 11.5C7.79565 11.5 8.55871 11.8161 9.12132 12.3787C9.68393 12.9413 10 13.7044 10 14.5Z" stroke="#EF5F63" stroke-width="3" stroke-linecap="round" stroke-linejoin="round"/>
</svg>
