<svg width="30" height="30" viewBox="0 0 30 30" fill="none" xmlns="http://www.w3.org/2000/svg">
<path d="M29.5175 5.12929L24.869 0.480402C24.717 0.328117 24.5365 0.207299 24.3378 0.124865C24.1391 0.0424313 23.9261 0 23.7109 0C23.4958 0 23.2828 0.0424313 23.0841 0.124865C22.8854 0.207299 22.7049 0.328117 22.5529 0.480402L15.1776 7.8562L8.78791 1.46603C7.50668 0.184714 5.42058 0.184714 4.13935 1.46603L1.01841 4.58719C-0.262816 5.86851 -0.262816 7.95476 1.01841 9.23608L7.40813 15.6262L0 23.0349V30H6.96462L14.3892 22.5749L20.7789 28.9651C22.3394 30.5257 24.4419 29.9507 25.4274 28.9651L28.5484 25.8439C29.8296 24.5626 29.8296 22.4764 28.5484 21.195L22.1587 14.8049L29.5339 7.42909C29.8355 7.12131 30.003 6.7067 30 6.2758C29.9969 5.84491 29.8234 5.43273 29.5175 5.12929ZM3.3509 6.90342L6.45542 3.78226L8.54152 5.86851L6.60325 7.82334L8.91932 10.1396L10.874 8.18474L12.8451 10.156L9.72419 13.2772L3.3509 6.90342ZM5.60127 26.7146H3.2852V24.3983L19.0706 8.61184L21.206 10.7474L21.3867 10.9281L5.60127 26.7146ZM22.1751 23.3963L24.1298 21.4415L26.2159 23.5277L23.095 26.6489L16.7052 20.2587L19.8262 17.1375L21.7973 19.1088L19.8426 21.0636L22.1751 23.3963ZM23.7191 8.61184L21.4031 6.29562L23.7191 3.97939L26.0352 6.29562L23.7191 8.61184Z" fill="#F27F82"/>
</svg>
