<svg width="32" height="32" viewBox="0 0 32 32" fill="none" xmlns="http://www.w3.org/2000/svg">
<path d="M0.515851 3.57791C0.487653 2.53383 0.473554 2.01179 0.685572 1.59285C0.854615 1.25883 1.13572 0.97089 1.46604 0.793406C1.88033 0.570801 2.41173 0.570801 3.47454 0.570801C4.56695 0.570801 5.11316 0.570801 5.52441 0.789314C5.85863 0.966897 6.12958 1.24029 6.3037 1.57563C6.51796 1.98825 6.5115 2.53103 6.49858 3.6166C6.42767 9.57624 6.30593 22.4117 6.53783 24.8541C6.67766 26.3268 6.68892 27.865 6.66027 29.0972C6.645 29.7541 6.63736 30.0825 6.51725 30.3886C6.33034 30.8649 5.90129 31.2829 5.4194 31.4582C5.10974 31.5708 4.75746 31.5708 4.0529 31.5708C2.8951 31.5708 2.3162 31.5708 1.98946 31.4438C1.38895 31.2104 1.07313 30.8715 0.883797 30.2572C0.780777 29.923 0.827582 29.2891 0.921191 28.0212C1.09823 25.6235 1.20515 21.8227 0.961911 16.0708C0.705054 9.78749 0.578351 5.89208 0.515851 3.57791Z" fill="#5366AA"/>
<path d="M14.9028 3.57791C14.931 2.53383 14.9451 2.01179 14.7331 1.59285C14.5641 1.25883 14.283 0.97089 13.9526 0.793406C13.5383 0.570801 13.0069 0.570801 11.9441 0.570801C10.8517 0.570801 10.3055 0.570801 9.89426 0.789314C9.56004 0.966897 9.28909 1.24029 9.11497 1.57563C8.90072 1.98825 8.90718 2.53103 8.92009 3.6166C8.99101 9.57624 9.11275 22.4117 8.88085 24.8541C8.74102 26.3268 8.72976 27.865 8.75841 29.0972C8.77368 29.7541 8.78131 30.0825 8.90143 30.3886C9.08834 30.8649 9.51739 31.2829 9.99927 31.4582C10.3089 31.5708 10.6612 31.5708 11.3658 31.5708C12.5236 31.5708 13.1025 31.5708 13.4292 31.4438C14.0297 31.2104 14.3455 30.8715 14.5349 30.2572C14.6379 29.923 14.5911 29.2891 14.4975 28.0212C14.3204 25.6235 14.2135 21.8227 14.4568 16.0708C14.7136 9.78749 14.8403 5.89208 14.9028 3.57791Z" fill="#7F59AE"/>
<path d="M31.4841 3.57791C31.5123 2.53383 31.5264 2.01179 31.3144 1.59285C31.1454 1.25883 30.8643 0.97089 30.534 0.793406C30.1197 0.570801 29.5883 0.570801 28.5255 0.570801C27.433 0.570801 26.8868 0.570801 26.4756 0.789314C26.1414 0.966897 25.8704 1.24029 25.6963 1.57563C25.482 1.98825 25.4885 2.53103 25.5014 3.6166C25.5723 9.57624 25.6941 22.4117 25.4622 24.8541C25.3223 26.3268 25.3111 27.865 25.3397 29.0972C25.355 29.7541 25.3626 30.0825 25.4827 30.3886C25.6697 30.8649 26.0987 31.2829 26.5806 31.4582C26.8903 31.5708 27.2425 31.5708 27.9471 31.5708C29.1049 31.5708 29.6838 31.5708 30.0105 31.4438C30.6111 31.2104 30.9269 30.8715 31.1162 30.2572C31.2192 29.923 31.1724 29.2891 31.0788 28.0212C30.9018 25.6235 30.7948 21.8227 31.0381 16.0708C31.2949 9.78749 31.4216 5.89208 31.4841 3.57791Z" fill="#EF5F63"/>
<path d="M17.0972 28.5637C17.069 29.6078 17.0549 30.1298 17.2669 30.5487C17.4359 30.8828 17.717 31.1707 18.0474 31.3482C18.4617 31.5708 18.9931 31.5708 20.0559 31.5708C21.1483 31.5708 21.6945 31.5708 22.1057 31.3523C22.44 31.1747 22.7109 30.9013 22.885 30.566C23.0993 30.1533 23.0928 29.6106 23.0799 28.525C23.009 22.5654 22.8873 9.72993 23.1192 7.28747C23.259 5.81478 23.2702 4.27657 23.2416 3.04435C23.2263 2.38752 23.2187 2.05911 23.0986 1.75303C22.9117 1.27674 22.4826 0.858727 22.0007 0.683443C21.6911 0.570801 21.3388 0.570801 20.6342 0.570801C19.4764 0.570801 18.8975 0.570801 18.5708 0.697786C17.9703 0.931168 17.6545 1.2701 17.4651 1.8844C17.3621 2.21864 17.4089 2.85255 17.5025 4.12036C17.6796 6.5181 17.7865 10.3189 17.5432 16.0708C17.2864 22.3541 17.1597 26.2495 17.0972 28.5637Z" fill="#BC6479"/>
</svg>
