<svg width="71" height="78" viewBox="0 0 71 78" fill="none" xmlns="http://www.w3.org/2000/svg">
<path d="M42.0092 0C42.0938 0 42.1783 0 42.2677 0C42.4751 2.56248 41.497 4.47716 40.3083 5.86371C39.1419 7.24069 37.5448 8.57618 34.9616 8.37354C34.7892 5.84776 35.7689 4.07508 36.956 2.69172C38.057 1.4025 40.0754 0.255291 42.0092 0Z" fill="white"/>
<path d="M49.8289 26.6715C49.8289 26.697 49.8289 26.7193 49.8289 26.7433C49.1029 28.942 48.0674 30.8263 46.8037 32.5751C45.6501 34.1627 44.2364 36.2991 41.7122 36.2991C39.5311 36.2991 38.0823 34.8966 35.8469 34.8583C33.4823 34.82 32.1819 36.0311 30.0199 36.3358C29.7726 36.3358 29.5253 36.3358 29.2828 36.3358C27.6952 36.1061 26.4139 34.8487 25.4805 33.7159C22.7282 30.3684 20.6013 26.0444 20.2056 20.511C20.2056 19.9685 20.2056 19.4276 20.2056 18.8851C20.3731 14.9249 22.2974 11.705 24.8551 10.1446C26.2049 9.31487 28.0606 8.60804 30.1268 8.92396C31.0124 9.06118 31.917 9.36434 32.71 9.6643C33.4616 9.9531 34.4013 10.4653 35.2917 10.4382C35.8948 10.4206 36.4947 10.1063 37.1026 9.88449C38.8833 9.24148 40.6288 8.50432 42.9297 8.85056C45.6948 9.2686 47.6573 10.4972 48.87 12.3927C46.5309 13.8814 44.6816 16.1248 44.9975 19.9557C45.2783 23.4356 47.3015 25.4716 49.8289 26.6715Z" fill="white"/>
<path d="M5.93574 48.8795H2.17146V51.9064H5.64078V53.318H2.17146V57.5318H0.5V47.4609H5.93574V48.8795Z" fill="white"/>
<path d="M10.4518 57.7003C9.34214 57.7003 8.45491 57.3656 7.79007 56.6961C7.12992 56.0219 6.79984 55.1299 6.79984 54.0203C6.79984 52.8124 7.14397 51.869 7.83221 51.1901C8.52514 50.5112 9.45685 50.1718 10.6273 50.1718C11.751 50.1718 12.6265 50.5018 13.2539 51.162C13.8813 51.8222 14.195 52.7375 14.195 53.908C14.195 55.055 13.8555 55.975 13.1767 56.668C12.5025 57.3562 11.5942 57.7003 10.4518 57.7003ZM10.529 51.471C9.89227 51.471 9.38896 51.6934 9.01909 52.1382C8.64921 52.583 8.46428 53.1963 8.46428 53.9782C8.46428 54.732 8.65155 55.3266 9.02611 55.762C9.40067 56.1928 9.90163 56.4081 10.529 56.4081C11.1704 56.4081 11.662 56.1951 12.0038 55.769C12.3503 55.343 12.5235 54.7367 12.5235 53.9501C12.5235 53.1588 12.3503 52.5479 12.0038 52.1171C11.662 51.6864 11.1704 51.471 10.529 51.471Z" fill="white"/>
<path d="M21.8432 57.5318H20.2139V56.3941H20.1858C19.7129 57.2649 18.9779 57.7003 17.9806 57.7003C16.2811 57.7003 15.4313 56.6797 15.4313 54.6383V50.3403H17.0606V54.4698C17.0606 55.762 17.5592 56.4081 18.5565 56.4081C19.0387 56.4081 19.4344 56.2302 19.7434 55.8744C20.0571 55.5186 20.2139 55.0527 20.2139 54.4768V50.3403H21.8432V57.5318Z" fill="white"/>
<path d="M30.0884 57.5318H28.4591V53.4796C28.4591 52.1358 27.9839 51.464 27.0334 51.464C26.5372 51.464 26.1275 51.6513 25.8044 52.0258C25.4814 52.3957 25.3199 52.8639 25.3199 53.4304V57.5318H23.6835V50.3403H25.3199V51.5342H25.3479C25.8864 50.6259 26.6636 50.1718 27.6796 50.1718C28.4614 50.1718 29.0584 50.4269 29.4704 50.9373C29.8824 51.4429 30.0884 52.1756 30.0884 53.1354V57.5318Z" fill="white"/>
<path d="M38.3336 57.5318H36.7043V56.3098H36.6762C36.1518 57.2368 35.3442 57.7003 34.2533 57.7003C33.3684 57.7003 32.6591 57.3796 32.1253 56.7382C31.5963 56.0921 31.3318 55.2142 31.3318 54.1046C31.3318 52.9154 31.6244 51.9626 32.2096 51.2463C32.7995 50.5299 33.5838 50.1718 34.5623 50.1718C35.5315 50.1718 36.2361 50.5604 36.6762 51.3376H36.7043V46.885H38.3336V57.5318ZM36.7254 54.2451V53.304C36.7254 52.7937 36.5592 52.3606 36.2267 52.0047C35.8943 51.6489 35.4706 51.471 34.9556 51.471C34.3469 51.471 33.867 51.6981 33.5159 52.1522C33.1694 52.6064 32.9962 53.2361 32.9962 54.0414C32.9962 54.7718 33.1624 55.35 33.4948 55.7761C33.8319 56.1974 34.2837 56.4081 34.8502 56.4081C35.4074 56.4081 35.8592 56.2045 36.2057 55.7971C36.5521 55.3851 36.7254 54.8678 36.7254 54.2451Z" fill="white"/>
<path d="M45.6939 57.5318H44.1138V56.4081H44.0857C43.5894 57.2696 42.8613 57.7003 41.9015 57.7003C41.1946 57.7003 40.6397 57.5084 40.2371 57.1245C39.8391 56.7405 39.6402 56.2325 39.6402 55.6005C39.6402 54.2427 40.422 53.4515 41.9858 53.2267L44.1208 52.9248C44.1208 51.8994 43.6339 51.3867 42.66 51.3867C41.8032 51.3867 41.0307 51.6817 40.3424 52.2716V50.846C41.1009 50.3965 41.9764 50.1718 42.969 50.1718C44.7856 50.1718 45.6939 51.066 45.6939 52.8545V57.5318ZM44.1208 53.9993L42.6109 54.2099C42.1427 54.2708 41.7892 54.3855 41.5504 54.5541C41.3163 54.7179 41.1992 55.0082 41.1992 55.4249C41.1992 55.7292 41.3069 55.9797 41.5223 56.1764C41.7423 56.3683 42.035 56.4643 42.4002 56.4643C42.8965 56.4643 43.3061 56.2911 43.6292 55.9446C43.9569 55.5935 44.1208 55.1534 44.1208 54.6243V53.9993Z" fill="white"/>
<path d="M51.1931 57.4545C50.8748 57.6137 50.4557 57.6933 49.936 57.6933C48.5408 57.6933 47.8432 57.0238 47.8432 55.6848V51.6185H46.6423V50.3403H47.8432V48.6759L49.4725 48.2124V50.3403H51.1931V51.6185H49.4725V55.2142C49.4725 55.6403 49.5498 55.9446 49.7043 56.1272C49.8588 56.3098 50.1163 56.4011 50.4768 56.4011C50.753 56.4011 50.9918 56.3215 51.1931 56.1623V57.4545Z" fill="white"/>
<path d="M53.1317 48.8304C52.8649 48.8304 52.6355 48.7438 52.4435 48.5705C52.2562 48.3973 52.1626 48.1773 52.1626 47.9104C52.1626 47.6435 52.2562 47.4211 52.4435 47.2432C52.6355 47.0653 52.8649 46.9763 53.1317 46.9763C53.408 46.9763 53.6421 47.0653 53.834 47.2432C54.026 47.4211 54.122 47.6435 54.122 47.9104C54.122 48.1632 54.026 48.3809 53.834 48.5635C53.6421 48.7414 53.408 48.8304 53.1317 48.8304ZM53.9394 57.5318H52.3101V50.3403H53.9394V57.5318Z" fill="white"/>
<path d="M58.9751 57.7003C57.8655 57.7003 56.9783 57.3656 56.3134 56.6961C55.6533 56.0219 55.3232 55.1299 55.3232 54.0203C55.3232 52.8124 55.6673 51.869 56.3556 51.1901C57.0485 50.5112 57.9802 50.1718 59.1507 50.1718C60.2743 50.1718 61.1499 50.5018 61.7772 51.162C62.4046 51.8222 62.7183 52.7375 62.7183 53.908C62.7183 55.055 62.3789 55.975 61.7 56.668C61.0258 57.3562 60.1175 57.7003 58.9751 57.7003ZM59.0524 51.471C58.4156 51.471 57.9123 51.6934 57.5424 52.1382C57.1726 52.583 56.9876 53.1963 56.9876 53.9782C56.9876 54.732 57.1749 55.3266 57.5494 55.762C57.924 56.1928 58.425 56.4081 59.0524 56.4081C59.6938 56.4081 60.1854 56.1951 60.5272 55.769C60.8736 55.343 61.0469 54.7367 61.0469 53.9501C61.0469 53.1588 60.8736 52.5479 60.5272 52.1171C60.1854 51.6864 59.6938 51.471 59.0524 51.471Z" fill="white"/>
<path d="M70.5 57.5318H68.8707V53.4796C68.8707 52.1358 68.3955 51.464 67.445 51.464C66.9487 51.464 66.5391 51.6513 66.216 52.0258C65.893 52.3957 65.7314 52.8639 65.7314 53.4304V57.5318H64.0951V50.3403H65.7314V51.5342H65.7595C66.298 50.6259 67.0752 50.1718 68.0911 50.1718C68.873 50.1718 69.47 50.4269 69.882 50.9373C70.294 51.4429 70.5 52.1756 70.5 53.1354V57.5318Z" fill="white"/>
<path d="M10.8908 70.5338V74.1857H9.2264V64.1149H12.2814C13.4378 64.1149 14.3344 64.3841 14.9712 64.9225C15.6079 65.4609 15.9263 66.2194 15.9263 67.1979C15.9263 68.1764 15.5939 68.9771 14.929 69.5998C14.2642 70.2225 13.3652 70.5338 12.2322 70.5338H10.8908ZM10.8908 65.4913V69.1714H11.9724C12.6887 69.1714 13.2342 69.0051 13.6087 68.6727C13.9833 68.3403 14.1705 67.8721 14.1705 67.2682C14.1705 66.0836 13.4823 65.4913 12.1058 65.4913H10.8908Z" fill="white"/>
<path d="M21.3412 68.5463C21.1446 68.3918 20.8613 68.3146 20.4915 68.3146C20.0092 68.3146 19.6066 68.5323 19.2835 68.9677C18.9605 69.4031 18.7989 69.9954 18.7989 70.7445V74.1857H17.1696V66.9943H18.7989V68.4761H18.827C18.9862 67.9704 19.2297 67.5772 19.5574 67.2962C19.8898 67.0106 20.2597 66.8678 20.667 66.8678C20.962 66.8678 21.1867 66.9123 21.3412 67.0013V68.5463Z" fill="white"/>
<path d="M25.2673 74.3543C24.1577 74.3543 23.2705 74.0195 22.6056 73.35C21.9455 72.6758 21.6154 71.7839 21.6154 70.6743C21.6154 69.4663 21.9595 68.5229 22.6478 67.844C23.3407 67.1651 24.2724 66.8257 25.4429 66.8257C26.5666 66.8257 27.4421 67.1558 28.0695 67.8159C28.6968 68.4761 29.0105 69.3914 29.0105 70.5619C29.0105 71.709 28.6711 72.629 27.9922 73.3219C27.318 74.0102 26.4097 74.3543 25.2673 74.3543ZM25.3446 68.1249C24.7078 68.1249 24.2045 68.3473 23.8346 68.7921C23.4648 69.2369 23.2798 69.8502 23.2798 70.6321C23.2798 71.3859 23.4671 71.9805 23.8417 72.416C24.2162 72.8467 24.7172 73.0621 25.3446 73.0621C25.986 73.0621 26.4776 72.849 26.8194 72.423C27.1658 71.9969 27.3391 71.3906 27.3391 70.604C27.3391 69.8128 27.1658 69.2018 26.8194 68.7711C26.4776 68.3403 25.986 68.1249 25.3446 68.1249Z" fill="white"/>
<path d="M36.9327 73.6098C36.9327 76.2505 35.6053 77.5708 32.9507 77.5708C32.0143 77.5708 31.1973 77.4139 30.4997 77.1002V75.6114C31.2862 76.0609 32.033 76.2856 32.74 76.2856C34.4489 76.2856 35.3034 75.4452 35.3034 73.7644V72.9778H35.2753C34.7368 73.8954 33.9269 74.3543 32.8453 74.3543C31.9698 74.3543 31.2628 74.0359 30.7244 73.3992C30.1907 72.7577 29.9238 71.8986 29.9238 70.8217C29.9238 69.5998 30.2117 68.6283 30.7876 67.9072C31.3635 67.1862 32.1547 66.8257 33.1614 66.8257C34.1118 66.8257 34.8164 67.2143 35.2753 67.9915H35.3034V66.9943H36.9327V73.6098ZM35.3174 70.892V69.9579C35.3174 69.4523 35.1489 69.0215 34.8118 68.6657C34.4793 68.3052 34.0626 68.1249 33.5617 68.1249C32.9437 68.1249 32.4591 68.3544 32.1079 68.8132C31.7615 69.2673 31.5882 69.9041 31.5882 70.7234C31.5882 71.4304 31.7544 71.9969 32.0869 72.423C32.424 72.8444 32.8687 73.055 33.4212 73.055C33.9831 73.055 34.4395 72.8537 34.7907 72.4511C35.1418 72.0437 35.3174 71.524 35.3174 70.892Z" fill="white"/>
<path d="M42.9376 68.5463C42.7409 68.3918 42.4577 68.3146 42.0878 68.3146C41.6055 68.3146 41.2029 68.5323 40.8798 68.9677C40.5568 69.4031 40.3953 69.9954 40.3953 70.7445V74.1857H38.7659V66.9943H40.3953V68.4761H40.4234C40.5825 67.9704 40.826 67.5772 41.1537 67.2962C41.4862 67.0106 41.856 66.8678 42.2634 66.8678C42.5583 66.8678 42.7831 66.9123 42.9376 67.0013V68.5463Z" fill="white"/>
<path d="M49.3217 74.1857H47.7415V73.0621H47.7134C47.2171 73.9235 46.4891 74.3543 45.5293 74.3543C44.8223 74.3543 44.2675 74.1623 43.8649 73.7784C43.4669 73.3945 43.2679 72.8865 43.2679 72.2544C43.2679 70.8967 44.0498 70.1054 45.6136 69.8807L47.7485 69.5787C47.7485 68.5533 47.2616 68.0407 46.2878 68.0407C45.431 68.0407 44.6585 68.3356 43.9702 68.9256V67.4999C44.7287 67.0504 45.6042 66.8257 46.5968 66.8257C48.4134 66.8257 49.3217 67.72 49.3217 69.5085V74.1857ZM47.7485 70.6532L46.2386 70.8639C45.7704 70.9248 45.4169 71.0395 45.1782 71.208C44.9441 71.3719 44.827 71.6622 44.827 72.0788C44.827 72.3832 44.9347 72.6337 45.1501 72.8303C45.3701 73.0223 45.6627 73.1182 46.0279 73.1182C46.5242 73.1182 46.9339 72.945 47.2569 72.5985C47.5847 72.2474 47.7485 71.8073 47.7485 71.2782V70.6532Z" fill="white"/>
<path d="M61.7806 74.1857H60.1513V70.2669C60.1513 69.5131 60.0436 68.9677 59.8283 68.6306C59.6176 68.2935 59.2594 68.1249 58.7537 68.1249C58.3277 68.1249 57.9648 68.338 57.6652 68.764C57.3702 69.1901 57.2227 69.7004 57.2227 70.295V74.1857H55.5864V70.1335C55.5864 68.7945 55.1135 68.1249 54.1678 68.1249C53.7277 68.1249 53.3648 68.3263 53.0792 68.7289C52.7983 69.1316 52.6578 69.6536 52.6578 70.295V74.1857H51.0285V66.9943H52.6578V68.132H52.6859C53.2056 67.2611 53.9618 66.8257 54.9543 66.8257C55.4506 66.8257 55.8837 66.9638 56.2536 67.2401C56.6281 67.5116 56.8833 67.8698 57.0191 68.3146C57.5528 67.322 58.3488 66.8257 59.4069 66.8257C60.9894 66.8257 61.7806 67.8019 61.7806 69.7543V74.1857Z" fill="white"/>
</svg>
