<svg width="161" height="34" viewBox="0 0 161 34" fill="none" xmlns="http://www.w3.org/2000/svg">
<path d="M132.8 23.708C132.8 24.6992 131.996 25.5026 131.005 25.5026C130.014 25.5026 129.211 24.6992 129.211 23.708C129.211 22.7169 130.014 21.9135 131.005 21.9135C131.996 21.9135 132.8 22.7169 132.8 23.708Z" fill="white"/>
<path d="M139.973 2.17239C139.973 3.16351 139.17 3.96698 138.179 3.96698C137.188 3.96698 136.384 3.16351 136.384 2.17239C136.384 1.18127 137.188 0.377808 138.179 0.377808C139.17 0.377808 139.973 1.18127 139.973 2.17239Z" fill="white"/>
<path d="M160.1 16.7825C160.1 21.3827 156.371 25.1118 151.771 25.1118C147.171 25.1118 143.442 21.3827 143.442 16.7825C143.442 12.1824 147.171 8.45322 151.771 8.45322C156.371 8.45322 160.1 12.1824 160.1 16.7825Z" stroke="white" stroke-width="1.8"/>
<rect x="137.414" y="7.55322" width="2.05095" height="17.4331" fill="white"/>
<g clip-path="url(#clip0_89_1871)">
<path d="M36.0602 25.4466H32.4249C25.4703 25.4466 19.9382 19.7347 19.9382 12.9122C19.9382 6.08969 25.6283 0.377808 32.4249 0.377808H36.0602V25.4466Z" fill="white"/>
<path d="M-0.000244141 0.377808H3.6351C10.5897 0.377808 16.1217 6.08969 16.1217 12.9122C16.1217 19.7347 10.4316 25.4466 3.6351 25.4466H-0.000244141V0.377808Z" fill="white"/>
<path d="M86.7664 0.38208V25.4467H90.5473V0.38208H86.7664Z" fill="white"/>
<path d="M75.6765 8.08972C73.9672 8.08972 72.2962 8.59854 70.875 9.55183C69.4537 10.5051 68.3459 11.8601 67.6918 13.4453C67.0377 15.0306 66.8665 16.775 67.2 18.4579C67.5335 20.1408 68.3566 21.6867 69.5653 22.9C70.774 24.1133 72.3139 24.9396 73.9904 25.2743C75.6669 25.6091 77.4047 25.4373 78.9839 24.7806C80.5631 24.124 81.9129 23.012 82.8625 21.5853C83.8122 20.1586 84.3191 18.4812 84.3191 16.7654C84.3167 14.4652 83.4054 12.2599 81.7851 10.6334C80.1648 9.00694 77.9679 8.09213 75.6765 8.08972ZM75.6765 21.9643C74.9871 21.9723 74.303 21.8429 73.6638 21.5837C73.0246 21.3244 72.443 20.9404 71.9527 20.4538C71.4624 19.9673 71.0731 19.388 70.8075 18.7494C70.5418 18.1107 70.405 17.4256 70.405 16.7335C70.405 16.0414 70.5418 15.3563 70.8075 14.7176C71.0731 14.079 71.4624 13.4997 71.9527 13.0132C72.443 12.5266 73.0246 12.1426 73.6638 11.8833C74.303 11.6241 74.9871 11.4947 75.6765 11.5027C78.5371 11.5027 80.8877 13.863 80.8877 16.7339C80.8868 18.1209 80.3374 19.4508 79.3603 20.4316C78.3832 21.4123 77.0583 21.9636 75.6765 21.9643Z" fill="white"/>
<path d="M102.453 8.09132C100.685 8.08987 98.9588 8.63601 97.511 9.65528V0.382202H93.7224V25.4475H97.511V23.8787C98.6236 24.6578 99.9034 25.1629 101.247 25.3533C102.59 25.5436 103.959 25.4138 105.243 24.9743C106.527 24.5348 107.69 23.7979 108.637 22.8234C109.585 21.8489 110.291 20.6642 110.697 19.365C111.104 18.0658 111.2 16.6888 110.978 15.3454C110.756 14.0019 110.222 12.7299 109.42 11.6321C108.617 10.5344 107.568 9.6418 106.357 9.02665C105.147 8.41151 103.81 8.09109 102.453 8.09132ZM102.453 21.9659C101.081 21.95 99.7713 21.3919 98.8071 20.4126C97.8428 19.4334 97.302 18.112 97.302 16.7351C97.302 15.3582 97.8428 14.0368 98.8071 13.0576C99.7713 12.0783 101.081 11.5202 102.453 11.5043C105.314 11.5043 107.664 13.8646 107.664 16.7348C107.663 18.1219 107.114 19.4521 106.137 20.4329C105.16 21.4138 103.835 21.9652 102.453 21.9659Z" fill="white"/>
<path d="M52.6444 0.377808H43.6355V25.4172H52.6444C59.521 25.4172 65.116 19.8008 65.116 12.8979C65.116 5.99488 59.521 0.377808 52.6444 0.377808ZM52.6444 21.6211H47.4171V4.17389H52.6444C57.4314 4.17389 61.3344 8.09183 61.3344 12.8979C61.3344 17.7039 57.4314 21.6211 52.6444 21.6211Z" fill="white"/>
<path d="M124.951 8.09594L120.025 19.2131L115.099 8.09594H110.969L117.96 23.87C117.96 23.87 116.249 27.7347 116.246 27.7438C116.027 28.2333 115.625 28.6161 115.126 28.8086C114.627 29.0011 114.073 28.9877 113.584 28.7713L113.041 28.5282L111.514 31.9671H111.52L112.83 32.5533C114.016 33.0802 115.361 33.1137 116.572 32.6466C117.782 32.1796 118.759 31.2499 119.287 30.0614L129.08 8.09314L124.951 8.09594Z" fill="white"/>
</g>
<defs>
<clipPath id="clip0_89_1871">
<rect width="129.21" height="32.8153" fill="white" transform="translate(-0.000244141 0.377808)"/>
</clipPath>
</defs>
</svg>
