<svg width="127" height="27" viewBox="0 0 127 27" fill="none" xmlns="http://www.w3.org/2000/svg">
<path d="M104.428 18.9174C104.428 19.6931 103.799 20.3218 103.023 20.3218C102.247 20.3218 101.619 19.6931 101.619 18.9174C101.619 18.1417 102.247 17.5129 103.023 17.5129C103.799 17.5129 104.428 18.1417 104.428 18.9174Z" fill="white"/>
<path d="M110.042 2.06375C110.042 2.83941 109.414 3.46821 108.638 3.46821C107.862 3.46821 107.233 2.83941 107.233 2.06375C107.233 1.2881 107.862 0.659302 108.638 0.659302C109.414 0.659302 110.042 1.2881 110.042 2.06375Z" fill="white"/>
<path d="M125.6 13.4982C125.6 16.9902 122.769 19.8211 119.277 19.8211C115.785 19.8211 112.954 16.9902 112.954 13.4982C112.954 10.0061 115.785 7.17527 119.277 7.17527C122.769 7.17527 125.6 10.0061 125.6 13.4982Z" stroke="white" stroke-width="1.8"/>
<rect x="108.039" y="6.27527" width="1.60509" height="13.6433" fill="white"/>
<g clip-path="url(#clip0_245_539)">
<path d="M28.7212 20.2783H25.8761C20.4334 20.2783 16.104 15.8082 16.104 10.4688C16.104 5.12946 20.5571 0.659302 25.8761 0.659302H28.7212V20.2783Z" fill="white"/>
<path d="M0.5 0.659302H3.34504C8.78774 0.659302 13.1172 5.12946 13.1172 10.4688C13.1172 15.8082 8.66404 20.2783 3.34504 20.2783H0.5V0.659302Z" fill="white"/>
<path d="M68.4043 0.662598V20.2783H71.3633V0.662598H68.4043Z" fill="white"/>
<path d="M59.7252 6.6947C58.3874 6.6947 57.0797 7.09291 55.9674 7.83896C54.8551 8.58501 53.9882 9.64541 53.4763 10.886C52.9644 12.1267 52.8304 13.4919 53.0914 14.8089C53.3524 16.126 53.9966 17.3358 54.9425 18.2853C55.8884 19.2348 57.0936 19.8815 58.4056 20.1435C59.7177 20.4055 61.0776 20.271 62.3135 19.7571C63.5494 19.2432 64.6058 18.373 65.349 17.2564C66.0922 16.1399 66.4889 14.8272 66.4889 13.4843C66.487 11.6842 65.7738 9.95831 64.5058 8.68542C63.2377 7.41253 61.5184 6.69659 59.7252 6.6947ZM59.7252 17.553C59.1856 17.5593 58.6503 17.4581 58.15 17.2551C57.6498 17.0522 57.1946 16.7517 56.8109 16.3709C56.4272 15.9902 56.1225 15.5368 55.9146 15.037C55.7067 14.5372 55.5996 14.001 55.5996 13.4594C55.5996 12.9178 55.7067 12.3815 55.9146 11.8818C56.1225 11.382 56.4272 10.9286 56.8109 10.5478C57.1946 10.1671 57.6498 9.86653 58.15 9.66361C58.6503 9.4607 59.1856 9.35944 59.7252 9.36571C61.9639 9.36571 63.8035 11.2129 63.8035 13.4597C63.8028 14.5452 63.3728 15.586 62.6081 16.3535C61.8434 17.121 60.8065 17.5525 59.7252 17.553Z" fill="white"/>
<path d="M80.6807 6.69592C79.2968 6.69478 77.9462 7.1222 76.8131 7.91988V0.66272H73.8481V20.279H76.8131V19.0512C77.6839 19.6609 78.6854 20.0563 79.7367 20.2052C80.788 20.3542 81.8594 20.2526 82.8643 19.9086C83.8691 19.5647 84.7792 18.988 85.5208 18.2254C86.2624 17.4627 86.8147 16.5355 87.1329 15.5188C87.4512 14.502 87.5265 13.4244 87.3528 12.373C87.179 11.3216 86.7611 10.3261 86.1328 9.46697C85.5045 8.60786 84.6836 7.90933 83.7364 7.42792C82.7892 6.94651 81.7424 6.69574 80.6807 6.69592ZM80.6807 17.5543C79.6073 17.5418 78.5821 17.105 77.8274 16.3386C77.0728 15.5723 76.6496 14.5382 76.6496 13.4606C76.6496 12.383 77.0728 11.3489 77.8274 10.5825C78.5821 9.81619 79.6073 9.37941 80.6807 9.36693C82.9194 9.36693 84.759 11.2141 84.759 13.4603C84.7584 14.5459 84.3286 15.5869 83.5639 16.3545C82.7992 17.1222 81.7621 17.5537 80.6807 17.5543Z" fill="white"/>
<path d="M41.6998 0.659302H34.6494V20.2553H41.6998C47.0815 20.2553 51.4602 15.8599 51.4602 10.4576C51.4602 5.05526 47.0815 0.659302 41.6998 0.659302ZM41.6998 17.2845H37.6089V3.63014H41.6998C45.4462 3.63014 48.5007 6.69634 48.5007 10.4576C48.5007 14.2188 45.4462 17.2845 41.6998 17.2845Z" fill="white"/>
<path d="M98.2873 6.69958L94.4323 15.4L90.5772 6.69958H87.3447L92.816 19.0444C92.816 19.0444 91.4777 22.069 91.4749 22.0761C91.3038 22.4592 90.9886 22.7588 90.5983 22.9094C90.2079 23.0601 89.774 23.0496 89.3913 22.8802L88.9664 22.69L87.7717 25.3813H87.7766L88.8016 25.8401C89.7295 26.2524 90.7825 26.2787 91.7297 25.9131C92.677 25.5476 93.4412 24.82 93.8551 23.8899L101.519 6.69739L98.2873 6.69958Z" fill="white"/>
</g>
<defs>
<clipPath id="clip0_245_539">
<rect width="101.121" height="25.6814" fill="white" transform="translate(0.5 0.659302)"/>
</clipPath>
</defs>
</svg>
