<svg width="178" height="27" viewBox="0 0 178 27" fill="none" xmlns="http://www.w3.org/2000/svg">
<path d="M0.0128183 3.39676C-0.00998452 2.55239 -0.0213859 2.1302 0.150066 1.7914C0.286765 1.52127 0.514085 1.28841 0.781201 1.14487C1.11623 0.964844 1.54596 0.964844 2.40541 0.964844C3.28881 0.964844 3.73051 0.964844 4.06307 1.14156C4.33335 1.28518 4.55246 1.50627 4.69326 1.77747C4.86652 2.11117 4.8613 2.55013 4.85085 3.42806C4.79351 8.24775 4.69506 18.6281 4.88259 20.6033C4.99566 21.7943 5.00477 23.0383 4.98161 24.0349C4.96926 24.566 4.96308 24.8316 4.86595 25.0792C4.7148 25.4644 4.36784 25.8024 3.97816 25.9442C3.72774 26.0353 3.44287 26.0353 2.87312 26.0353C1.93684 26.0353 1.4687 26.0353 1.20448 25.9326C0.718861 25.7438 0.463474 25.4697 0.310364 24.9729C0.227055 24.7026 0.264904 24.19 0.340603 23.1647C0.483768 21.2256 0.570233 18.1518 0.373532 13.5001C0.16582 8.41859 0.06336 5.26828 0.0128183 3.39676Z" fill="white"/>
<path d="M11.6471 3.39676C11.6699 2.55239 11.6813 2.1302 11.5098 1.7914C11.3731 1.52127 11.1458 1.28841 10.8787 1.14487C10.5437 0.964844 10.1139 0.964844 9.25449 0.964844C8.37109 0.964844 7.9294 0.964844 7.59683 1.14156C7.32656 1.28518 7.10745 1.50627 6.96664 1.77747C6.79338 2.11117 6.7986 2.55013 6.80905 3.42806C6.8664 8.24775 6.96484 18.6281 6.77731 20.6033C6.66424 21.7943 6.65513 23.0383 6.6783 24.0349C6.69065 24.566 6.69682 24.8316 6.79395 25.0792C6.9451 25.4644 7.29206 25.8024 7.68174 25.9442C7.93216 26.0353 8.21704 26.0353 8.78679 26.0353C9.72306 26.0353 10.1912 26.0353 10.4554 25.9326C10.941 25.7438 11.1964 25.4697 11.3495 24.9729C11.4328 24.7026 11.395 24.19 11.3193 23.1647C11.1761 21.2256 11.0897 18.1518 11.2864 13.5001C11.4941 8.41859 11.5965 5.26828 11.6471 3.39676Z" fill="white"/>
<path d="M25.0559 3.39676C25.0787 2.55239 25.0901 2.1302 24.9186 1.7914C24.7819 1.52127 24.5546 1.28841 24.2875 1.14487C23.9524 0.964844 23.5227 0.964844 22.6633 0.964844C21.7799 0.964844 21.3382 0.964844 21.0056 1.14156C20.7353 1.28518 20.5162 1.50627 20.3754 1.77747C20.2021 2.11117 20.2074 2.55013 20.2178 3.42806C20.2752 8.24775 20.3736 18.6281 20.1861 20.6033C20.073 21.7943 20.0639 23.0383 20.0871 24.0349C20.0994 24.566 20.1056 24.8316 20.2027 25.0792C20.3539 25.4644 20.7008 25.8024 21.0905 25.9442C21.3409 26.0353 21.6258 26.0353 22.1956 26.0353C23.1318 26.0353 23.6 26.0353 23.8642 25.9326C24.3498 25.7438 24.6052 25.4697 24.7583 24.9729C24.8416 24.7026 24.8038 24.19 24.7281 23.1647C24.5849 21.2256 24.4984 18.1518 24.6951 13.5001C24.9028 8.41859 25.0053 5.26828 25.0559 3.39676Z" fill="white"/>
<path d="M13.4216 23.6034C13.3988 24.4477 13.3874 24.8699 13.5588 25.2087C13.6955 25.4788 13.9228 25.7117 14.19 25.8552C14.525 26.0353 14.9547 26.0353 15.8142 26.0353C16.6976 26.0353 17.1393 26.0353 17.4718 25.8586C17.7421 25.7149 17.9612 25.4938 18.102 25.2226C18.2753 24.8889 18.2701 24.45 18.2596 23.5721C18.2023 18.7524 18.1038 8.37205 18.2914 6.39677C18.4044 5.20577 18.4135 3.96179 18.3904 2.96526C18.378 2.43407 18.3718 2.16847 18.2747 1.92094C18.1236 1.53575 17.7766 1.1977 17.3869 1.05594C17.1365 0.964844 16.8516 0.964844 16.2819 0.964844C15.3456 0.964844 14.8775 0.964844 14.6132 1.06754C14.1276 1.25628 13.8722 1.53039 13.7191 2.02718C13.6358 2.29749 13.6737 2.81014 13.7494 3.83545C13.8925 5.77457 13.979 8.84836 13.7823 13.5001C13.5746 18.5815 13.4721 21.7318 13.4216 23.6034Z" fill="white"/>
<path d="M39.0526 21.4808C37.4926 21.4808 36.1688 21.1516 35.0811 20.4932C33.9934 19.8277 33.1669 18.9045 32.6016 17.7237C32.0363 16.5429 31.7536 15.1725 31.7536 13.6124C31.7536 12.1311 32.0435 10.8 32.6231 9.61919C33.2099 8.43123 34.0471 7.49376 35.1348 6.80675C36.2296 6.11258 37.5427 5.7655 39.0741 5.7655C40.7342 5.7655 42.101 6.11974 43.1744 6.82822C44.2477 7.52954 45.0456 8.47417 45.568 9.66212C46.0975 10.8429 46.3623 12.1597 46.3623 13.6124C46.3623 14.5714 46.2227 15.5196 45.9437 16.4571C45.6646 17.3874 45.2281 18.2318 44.6341 18.9904C44.0474 19.749 43.2924 20.3537 42.3693 20.8045C41.4462 21.2554 40.3406 21.4808 39.0526 21.4808ZM39.2243 20.2678C40.1474 20.2678 40.9131 19.9923 41.5214 19.4413C42.1296 18.8902 42.584 18.1388 42.8845 17.187C43.1922 16.2352 43.3461 15.1582 43.3461 13.9559C43.3461 12.5604 43.1851 11.3403 42.8631 10.2955C42.5482 9.25064 42.058 8.43839 41.3926 7.85873C40.7342 7.27191 39.8934 6.9785 38.8701 6.9785C37.8969 6.9785 37.1098 7.27191 36.5087 7.85873C35.9076 8.43839 35.4675 9.20412 35.1884 10.1559C34.9165 11.1005 34.7806 12.1311 34.7806 13.2475C34.7806 14.6072 34.9344 15.8166 35.2421 16.8757C35.557 17.9348 36.0436 18.765 36.7019 19.3661C37.3602 19.9672 38.2011 20.2678 39.2243 20.2678Z" fill="white"/>
<path d="M47.4929 21.1373V20.4503L48.781 20.0639C48.9313 20.0138 49.0458 19.9422 49.1245 19.8492C49.2103 19.7561 49.2533 19.6345 49.2533 19.4842V7.15025C49.2533 6.97134 49.2032 6.82822 49.103 6.72087C49.01 6.60637 48.8633 6.51334 48.6629 6.44177L47.4178 5.98019V5.38979L51.8723 4.76719V19.4842C51.8723 19.6416 51.9153 19.7669 52.0011 19.8599C52.0941 19.9458 52.2051 20.0138 52.3339 20.0639L53.5253 20.4503V21.1373H47.4929Z" fill="white"/>
<path d="M54.5515 21.1373V20.4503L55.8825 20.0639C56.0184 20.0209 56.1293 19.9529 56.2152 19.8599C56.3011 19.7669 56.344 19.6416 56.344 19.4842V12.5604C56.344 12.3815 56.2975 12.2384 56.2045 12.1311C56.1114 12.0237 55.9612 11.9307 55.7537 11.852L54.5944 11.4226V10.8322L58.9738 10.1666V19.4842C58.9738 19.6416 59.0167 19.7669 59.1026 19.8599C59.1885 19.9529 59.2994 20.0209 59.4353 20.0639L60.6912 20.4503V21.1373H54.5515Z" fill="white"/>
<path d="M66.2963 21.2339L62.3248 11.8734C62.2604 11.7231 62.1745 11.6086 62.0672 11.5299C61.967 11.4441 61.8203 11.3618 61.6271 11.283L60.8435 10.961V10.2847H66.4573V10.961L64.8902 11.4011L67.155 16.8328L67.6809 18.2927H67.7453L70.3322 11.5729L68.8294 10.961V10.2847H73.0478V10.961L72.2428 11.4226C72.0782 11.5085 71.9386 11.5943 71.8242 11.6802C71.7097 11.7589 71.6202 11.8734 71.5558 12.0237L68.7114 18.9153L67.5414 21.2339H66.2963Z" fill="white"/>
<path d="M78.7649 21.3842C77.7273 21.3842 76.8042 21.1695 75.9956 20.7401C75.1942 20.3108 74.5645 19.6774 74.1065 18.8401C73.6557 18.0028 73.4303 16.9759 73.4303 15.7593C73.4303 14.7145 73.6485 13.7556 74.085 12.8825C74.5287 12.0094 75.1548 11.3081 75.9634 10.7785C76.772 10.2489 77.7309 9.98416 78.8401 9.98416C79.8204 9.98416 80.6505 10.1881 81.3303 10.596C82.0101 10.9968 82.5289 11.5228 82.8867 12.174C83.2445 12.8252 83.4234 13.5158 83.4234 14.2458C83.4234 14.3316 83.4198 14.4533 83.4127 14.6107C83.4055 14.761 83.3948 14.9113 83.3805 15.0616C83.3733 15.2047 83.3626 15.3156 83.3483 15.3944H75.9849L76.0278 14.3638H80.7078C80.7078 13.7341 80.6434 13.1723 80.5145 12.6785C80.3929 12.1847 80.1818 11.7947 79.8813 11.5085C79.5879 11.2222 79.1836 11.0791 78.6683 11.0791C78.1674 11.0791 77.7524 11.2043 77.4232 11.4548C77.0941 11.7053 76.8364 12.038 76.6504 12.4531C76.4643 12.861 76.332 13.3119 76.2532 13.8056C76.1817 14.2923 76.1459 14.7753 76.1459 15.2548C76.1459 16.0849 76.2532 16.8399 76.4679 17.5198C76.6898 18.1925 77.0654 18.7256 77.595 19.1192C78.1317 19.5128 78.8651 19.7096 79.7954 19.7096C80.3249 19.7096 80.7972 19.6488 81.2122 19.5271C81.6273 19.3983 81.9922 19.248 82.3071 19.0763C82.6291 18.8974 82.8974 18.7399 83.1121 18.604H83.4019V19.5915C82.8939 20.0066 82.2319 20.4109 81.4162 20.8045C80.6076 21.191 79.7238 21.3842 78.7649 21.3842Z" fill="white"/>
<path d="M84.7231 21.1373V20.4503L85.9145 20.0746C86.0505 20.0317 86.1614 19.9637 86.2473 19.8706C86.3331 19.7704 86.3761 19.6452 86.3761 19.4949V12.6356C86.3761 12.4209 86.3331 12.2491 86.2473 12.1203C86.1614 11.9915 86.0111 11.8913 85.7964 11.8198L84.6587 11.3904V10.8L88.8663 10.07V12.4638H88.9092C89.2098 11.9915 89.521 11.5693 89.8431 11.1972C90.1651 10.825 90.5193 10.5316 90.9057 10.3169C91.2921 10.0951 91.7286 9.98416 92.2152 9.98416C92.6016 9.98416 92.9236 10.0199 93.1813 10.0915C93.446 10.1631 93.7108 10.2668 93.9756 10.4028V13.4407H92.8056L92.4299 12.6141C92.3655 12.4781 92.2152 12.3601 91.9791 12.2599C91.7501 12.1597 91.5211 12.1096 91.2921 12.1096C90.9916 12.1096 90.7089 12.1525 90.4441 12.2384C90.1865 12.3243 89.9397 12.4567 89.7035 12.6356C89.4674 12.8145 89.2312 13.0507 88.9951 13.3441V19.4949C88.9951 19.8027 89.1525 19.9959 89.4674 20.0746L90.9272 20.4503V21.1373H84.7231Z" fill="white"/>
<path d="M58.9531 6.54301C58.9531 7.52377 58.1581 8.31884 57.1774 8.31884C56.1968 8.31884 55.4018 7.52377 55.4018 6.54301C55.4018 5.56226 56.1968 4.76719 57.1774 4.76719C58.1581 4.76719 58.9531 5.56226 58.9531 6.54301Z" fill="white"/>
<path d="M99.1619 20.5362L98.9795 16.3712H99.9133L100.697 18.4966C100.725 18.5968 100.793 18.7006 100.901 18.8079C101.008 18.9153 101.101 18.994 101.18 19.0441C101.488 19.2445 101.842 19.4269 102.243 19.5915C102.643 19.7561 103.044 19.8885 103.445 19.9887C103.845 20.0818 104.196 20.1283 104.497 20.1283C105.405 20.1283 106.128 19.8921 106.665 19.4198C107.202 18.9475 107.47 18.3284 107.47 17.5627C107.47 16.9616 107.298 16.4785 106.955 16.1136C106.611 15.7414 106.121 15.4301 105.484 15.1797C104.919 14.9507 104.357 14.7682 103.799 14.6322C103.241 14.4891 102.69 14.3066 102.146 14.0847C101.287 13.7412 100.618 13.2367 100.139 12.5712C99.6593 11.9056 99.4195 11.122 99.4195 10.2203C99.4195 9.36872 99.6557 8.61014 100.128 7.94461C100.607 7.27191 101.248 6.74234 102.049 6.3559C102.858 5.9623 103.749 5.7655 104.722 5.7655C105.294 5.7655 105.853 5.80128 106.396 5.87285C106.947 5.93725 107.47 6.02313 107.964 6.13047C108.465 6.23782 108.922 6.35232 109.338 6.47398V10.3813H108.404L107.706 8.38472C107.67 8.28453 107.602 8.18792 107.502 8.09489C107.409 8.00186 107.32 7.92671 107.234 7.86946C107.04 7.72634 106.786 7.6011 106.472 7.49376C106.157 7.37925 105.831 7.2898 105.495 7.22539C105.159 7.16099 104.862 7.12878 104.604 7.12878C103.774 7.12878 103.126 7.3399 102.661 7.76212C102.203 8.18434 101.974 8.67813 101.974 9.24348C101.974 9.80167 102.117 10.299 102.404 10.7356C102.69 11.165 103.226 11.5192 104.014 11.7983C104.55 11.9915 105.08 12.1597 105.602 12.3028C106.125 12.4459 106.69 12.6427 107.298 12.8932C107.785 13.0864 108.243 13.3476 108.672 13.6768C109.109 13.9989 109.463 14.4139 109.735 14.922C110.007 15.423 110.143 16.0313 110.143 16.7469C110.143 17.5341 109.931 18.2927 109.509 19.0226C109.094 19.7454 108.439 20.3358 107.545 20.7938C106.65 21.2518 105.495 21.4808 104.078 21.4808C103.563 21.4808 103.026 21.4343 102.468 21.3413C101.91 21.2554 101.352 21.1409 100.793 20.9978C100.235 20.8475 99.6915 20.6936 99.1619 20.5362Z" fill="white"/>
<path d="M111.548 21.1373V20.4503L112.879 20.0639C113.015 20.0209 113.126 19.9529 113.211 19.8599C113.297 19.7669 113.34 19.6416 113.34 19.4842V12.5604C113.34 12.3815 113.294 12.2384 113.201 12.1311C113.108 12.0237 112.957 11.9307 112.75 11.852L111.591 11.4226V10.8322L115.97 10.1666V19.4842C115.97 19.6416 116.013 19.7669 116.099 19.8599C116.185 19.9529 116.296 20.0209 116.432 20.0639L117.687 20.4503V21.1373H111.548Z" fill="white"/>
<path d="M118.677 21.1373V20.4503L119.847 20.0746C119.983 20.0317 120.094 19.9637 120.18 19.8706C120.273 19.7704 120.319 19.6452 120.319 19.4949V12.5068C120.319 12.3279 120.269 12.1847 120.169 12.0774C120.076 11.9629 119.929 11.8699 119.729 11.7983L118.677 11.3904V10.8L122.831 10.07V11.852H122.884C123.278 11.3081 123.672 10.9037 124.065 10.639C124.459 10.3742 124.852 10.1989 125.246 10.113C125.639 10.0271 126.029 9.98416 126.416 9.98416C127.067 9.98416 127.654 10.113 128.176 10.3706C128.706 10.6282 129.124 11.0361 129.432 11.5943C129.74 12.1454 129.894 12.8682 129.894 13.7627V19.452C129.894 19.6237 129.94 19.7597 130.033 19.8599C130.126 19.9529 130.237 20.0245 130.366 20.0746L131.396 20.4503V21.1373H125.761V20.4503L126.813 20.0746C126.942 20.0245 127.049 19.9529 127.135 19.8599C127.228 19.7597 127.275 19.6237 127.275 19.452V14.7288C127.275 14.0847 127.224 13.5373 127.124 13.0864C127.024 12.6284 126.827 12.2813 126.534 12.0452C126.24 11.809 125.8 11.6909 125.214 11.6909C124.827 11.6909 124.423 11.7518 124.001 11.8734C123.579 11.9951 123.224 12.2599 122.938 12.6678V19.4949C122.938 19.6524 122.981 19.774 123.067 19.8599C123.16 19.9458 123.271 20.0173 123.4 20.0746L124.323 20.4503V21.1373H118.677Z" fill="white"/>
<path d="M141.508 18.5718H141.808V19.5701C141.321 19.9923 140.71 20.4002 139.973 20.7938C139.243 21.1874 138.405 21.3842 137.461 21.3842C136.416 21.3842 135.525 21.1445 134.788 20.665C134.051 20.1784 133.486 19.5271 133.092 18.7113C132.706 17.8883 132.513 16.9759 132.513 15.974C132.513 15.1582 132.652 14.3925 132.931 13.6768C133.21 12.954 133.611 12.3171 134.133 11.7661C134.663 11.215 135.293 10.7857 136.023 10.4779C136.76 10.1702 137.579 10.0164 138.481 10.0164C139.032 10.0164 139.504 10.0665 139.897 10.1666C140.291 10.2668 140.62 10.3813 140.885 10.5102C141.157 10.639 141.382 10.7499 141.561 10.8429L141.282 13.0328H140.842C140.491 12.7823 140.116 12.5354 139.715 12.2921C139.321 12.0416 138.917 11.8341 138.502 11.6695C138.094 11.4977 137.676 11.4118 137.246 11.4118C137.039 11.4118 136.835 11.4655 136.634 11.5729C136.434 11.6802 136.252 11.8412 136.087 12.0559C135.965 12.2134 135.84 12.4424 135.711 12.7429C135.582 13.0363 135.472 13.4013 135.379 13.8378C135.293 14.2744 135.25 14.7789 135.25 15.3514C135.25 16.7254 135.532 17.7917 136.098 18.5503C136.663 19.3089 137.532 19.6882 138.706 19.6882C139.107 19.6882 139.482 19.6273 139.833 19.5057C140.184 19.3769 140.499 19.2266 140.778 19.0548C141.064 18.8759 141.307 18.7149 141.508 18.5718Z" fill="white"/>
<path d="M142.697 21.1373V20.4503L143.985 20.0639C144.135 20.0138 144.249 19.9422 144.328 19.8492C144.414 19.7561 144.457 19.6345 144.457 19.4842V7.15025C144.457 6.97134 144.407 6.82822 144.307 6.72087C144.214 6.60637 144.067 6.51334 143.867 6.44177L142.622 5.98019V5.38979L147.076 4.76719V19.4842C147.076 19.6416 147.119 19.7669 147.205 19.8599C147.298 19.9458 147.409 20.0138 147.538 20.0639L148.729 20.4503V21.1373H142.697Z" fill="white"/>
<path d="M152.922 21.352C152.321 21.352 151.795 21.2125 151.344 20.9334C150.893 20.6471 150.542 20.2785 150.292 19.8277C150.049 19.3697 149.927 18.8795 149.927 18.3571C149.927 17.6701 150.095 17.0904 150.431 16.6181C150.775 16.1386 151.208 15.7522 151.73 15.4588C152.26 15.1653 152.818 14.9507 153.405 14.8147C153.991 14.6787 154.535 14.6107 155.036 14.6107C155.129 14.6107 155.276 14.6215 155.476 14.6429C155.677 14.6572 155.881 14.6751 156.088 14.6966C156.296 14.7109 156.446 14.7181 156.539 14.7181L156.55 13.1938C156.557 12.471 156.435 11.9736 156.185 11.7017C155.934 11.4297 155.53 11.2938 154.972 11.2938C154.65 11.2938 154.321 11.3582 153.984 11.487C153.648 11.6158 153.315 11.7804 152.986 11.9808C152.664 12.174 152.363 12.3708 152.084 12.5712C151.805 12.7716 151.566 12.9361 151.365 13.065H150.947L150.678 10.9288C151.036 10.7714 151.426 10.6211 151.848 10.4779C152.27 10.3348 152.732 10.2167 153.233 10.1237C153.741 10.0307 154.296 9.98416 154.897 9.98416C155.576 9.98416 156.246 10.0879 156.904 10.2955C157.562 10.503 158.106 10.8644 158.535 11.3796C158.965 11.8877 159.176 12.5962 159.169 13.5051L159.115 19.0763C159.115 19.3053 159.197 19.4914 159.362 19.6345C159.526 19.7776 159.745 19.8492 160.017 19.8492C160.117 19.8492 160.264 19.8313 160.457 19.7955C160.65 19.7526 160.825 19.706 160.983 19.6559H161.197V20.4396C161.054 20.5469 160.84 20.6721 160.553 20.8153C160.274 20.9584 159.97 21.0836 159.641 21.191C159.319 21.2983 159.011 21.352 158.718 21.352C158.052 21.352 157.53 21.216 157.151 20.9441C156.779 20.6721 156.593 20.1998 156.593 19.5271H156.528C156.178 20.0639 155.784 20.4646 155.347 20.7294C154.918 20.987 154.492 21.1552 154.07 21.2339C153.648 21.3126 153.265 21.352 152.922 21.352ZM154.371 19.7633C154.736 19.7633 155.122 19.6882 155.53 19.5379C155.938 19.3804 156.267 19.1121 156.517 18.7328L156.539 15.609C155.759 15.609 155.079 15.6842 154.499 15.8345C153.92 15.9776 153.469 16.2173 153.147 16.5537C152.832 16.89 152.675 17.3409 152.675 17.9062C152.675 18.3785 152.761 18.7507 152.932 19.0226C153.111 19.2946 153.33 19.4878 153.587 19.6023C153.852 19.7096 154.113 19.7633 154.371 19.7633Z" fill="white"/>
<path d="M161.618 21.1373V20.4503L162.949 20.0639C163.085 20.0209 163.196 19.9529 163.282 19.8599C163.368 19.7669 163.411 19.6416 163.411 19.4842V12.5604C163.411 12.3815 163.364 12.2384 163.271 12.1311C163.178 12.0237 163.028 11.9307 162.821 11.852L161.661 11.4226V10.8322L166.041 10.1666V19.4842C166.041 19.6416 166.084 19.7669 166.169 19.8599C166.255 19.9529 166.366 20.0209 166.502 20.0639L167.758 20.4503V21.1373H161.618Z" fill="white"/>
<path d="M168.748 21.1373V20.4503L169.939 20.0746C170.075 20.0317 170.186 19.9637 170.272 19.8706C170.358 19.7704 170.401 19.6452 170.401 19.4949V12.6356C170.401 12.4209 170.358 12.2491 170.272 12.1203C170.186 11.9915 170.036 11.8913 169.821 11.8198L168.683 11.3904V10.8L172.891 10.07V12.4638H172.934C173.234 11.9915 173.546 11.5693 173.868 11.1972C174.19 10.825 174.544 10.5316 174.93 10.3169C175.317 10.0951 175.753 9.98416 176.24 9.98416C176.626 9.98416 176.948 10.0199 177.206 10.0915C177.47 10.1631 177.735 10.2668 178 10.4028V13.4407H176.83L176.454 12.6141C176.39 12.4781 176.24 12.3601 176.004 12.2599C175.775 12.1597 175.546 12.1096 175.317 12.1096C175.016 12.1096 174.733 12.1525 174.469 12.2384C174.211 12.3243 173.964 12.4567 173.728 12.6356C173.492 12.8145 173.256 13.0507 173.02 13.3441V19.4949C173.02 19.8027 173.177 19.9959 173.492 20.0746L174.952 20.4503V21.1373H168.748Z" fill="white"/>
<path d="M115.943 6.54301C115.943 7.52377 115.148 8.31884 114.167 8.31884C113.186 8.31884 112.391 7.52377 112.391 6.54301C112.391 5.56226 113.186 4.76719 114.167 4.76719C115.148 4.76719 115.943 5.56226 115.943 6.54301Z" fill="white"/>
<path d="M166.038 6.54301C166.038 7.52377 165.243 8.31884 164.262 8.31884C163.282 8.31884 162.487 7.52377 162.487 6.54301C162.487 5.56226 163.282 4.76719 164.262 4.76719C165.243 4.76719 166.038 5.56226 166.038 6.54301Z" fill="white"/>
</svg>
