<svg width="213" height="31" viewBox="0 0 213 31" fill="none" xmlns="http://www.w3.org/2000/svg">
<path d="M0.0153388 3.6955C-0.0119478 2.6851 -0.025591 2.1799 0.179573 1.77448C0.343152 1.45124 0.615169 1.17258 0.934808 1.00083C1.33571 0.7854 1.84994 0.7854 2.87839 0.7854C3.93549 0.7854 4.46403 0.7854 4.86199 0.996864C5.18541 1.16872 5.4476 1.43329 5.6161 1.75781C5.82342 2.15713 5.81717 2.6824 5.80467 3.73295C5.73605 9.50034 5.61825 21.9217 5.84265 24.2854C5.97796 25.7106 5.98885 27.1992 5.96113 28.3916C5.94636 29.0273 5.93897 29.3451 5.82274 29.6413C5.64187 30.1022 5.22668 30.5068 4.76038 30.6764C4.46072 30.7854 4.11983 30.7854 3.43805 30.7854C2.31768 30.7854 1.75749 30.7854 1.44131 30.6625C0.86021 30.4367 0.554606 30.1087 0.37139 29.5142C0.271701 29.1907 0.316992 28.5773 0.407576 27.3503C0.578891 25.0299 0.682357 21.3518 0.446979 15.7854C0.198425 9.70477 0.0758184 5.93502 0.0153388 3.6955Z" fill="white"/>
<path d="M13.9372 3.6955C13.9645 2.6851 13.9782 2.1799 13.773 1.77448C13.6094 1.45124 13.3374 1.17258 13.0178 1.00083C12.6169 0.7854 12.1026 0.7854 11.0742 0.7854C10.0171 0.7854 9.48855 0.7854 9.09059 0.996864C8.76717 1.16872 8.50498 1.43329 8.33649 1.75781C8.12916 2.15713 8.13541 2.6824 8.14791 3.73295C8.21653 9.50034 8.33433 21.9217 8.10993 24.2854C7.97462 25.7106 7.96373 27.1992 7.99145 28.3916C8.00622 29.0273 8.01361 29.3451 8.12984 29.6413C8.31071 30.1022 8.7259 30.5068 9.1922 30.6764C9.49186 30.7854 9.83275 30.7854 10.5145 30.7854C11.6349 30.7854 12.1951 30.7854 12.5113 30.6625C13.0924 30.4367 13.398 30.1087 13.5812 29.5142C13.6809 29.1907 13.6356 28.5773 13.545 27.3503C13.3737 25.0299 13.2702 21.3518 13.5056 15.7854C13.7542 9.70477 13.8768 5.93502 13.9372 3.6955Z" fill="white"/>
<path d="M29.9826 3.6955C30.0098 2.6851 30.0235 2.1799 29.8183 1.77448C29.6548 1.45124 29.3827 1.17258 29.0631 1.00083C28.6622 0.7854 28.148 0.7854 27.1195 0.7854C26.0624 0.7854 25.5339 0.7854 25.1359 0.996864C24.8125 1.16872 24.5503 1.43329 24.3818 1.75781C24.1745 2.15713 24.1807 2.6824 24.1932 3.73295C24.2619 9.50034 24.3797 21.9217 24.1552 24.2854C24.0199 25.7106 24.009 27.1992 24.0368 28.3916C24.0515 29.0273 24.0589 29.3451 24.1752 29.6413C24.356 30.1022 24.7712 30.5068 25.2375 30.6764C25.5372 30.7854 25.8781 30.7854 26.5598 30.7854C27.6802 30.7854 28.2404 30.7854 28.5566 30.6625C29.1377 30.4367 29.4433 30.1087 29.6265 29.5142C29.7262 29.1907 29.6809 28.5773 29.5903 27.3503C29.419 25.0299 29.3155 21.3518 29.5509 15.7854C29.7995 9.70477 29.9221 5.93502 29.9826 3.6955Z" fill="white"/>
<path d="M16.0607 27.8753C16.0334 28.8857 16.0197 29.3909 16.2249 29.7963C16.3885 30.1196 16.6605 30.3982 16.9801 30.57C17.381 30.7854 17.8953 30.7854 18.9237 30.7854C19.9808 30.7854 20.5094 30.7854 20.9073 30.5739C21.2307 30.4021 21.4929 30.1375 21.6614 29.813C21.8687 29.4137 21.8625 28.8884 21.85 27.8379C21.7814 22.0705 21.6636 9.64908 21.888 7.2854C22.0233 5.86022 22.0342 4.37163 22.0065 3.17916C21.9917 2.54352 21.9843 2.2257 21.8681 1.92949C21.6872 1.46856 21.272 1.06404 20.8057 0.894409C20.506 0.7854 20.1652 0.7854 19.4834 0.7854C18.363 0.7854 17.8028 0.7854 17.4866 0.90829C16.9055 1.13414 16.5999 1.46214 16.4167 2.05662C16.317 2.38008 16.3623 2.99354 16.4529 4.22045C16.6242 6.54085 16.7277 10.219 16.4923 15.7854C16.2437 21.866 16.1211 25.6358 16.0607 27.8753Z" fill="white"/>
<path d="M46.7315 25.3354C44.8648 25.3354 43.2806 24.9415 41.9791 24.1536C40.6775 23.3572 39.6885 22.2525 39.012 20.8396C38.3356 19.4266 37.9973 17.7867 37.9973 15.9199C37.9973 14.1472 38.3441 12.5544 39.0377 11.1414C39.7399 9.7199 40.7417 8.59808 42.0433 7.77599C43.3534 6.94533 44.9247 6.53 46.7572 6.53C48.7437 6.53 50.3793 6.9539 51.6637 7.80168C52.9481 8.6409 53.9029 9.77128 54.528 11.1928C55.1616 12.6058 55.4785 14.1815 55.4785 15.9199C55.4785 17.0674 55.3115 18.202 54.9775 19.3238C54.6436 20.4371 54.1212 21.4476 53.4105 22.3553C52.7084 23.263 51.805 23.9867 50.7004 24.5262C49.5958 25.0656 48.2728 25.3354 46.7315 25.3354ZM46.937 23.8839C48.0416 23.8839 48.9578 23.5542 49.6857 22.8948C50.4135 22.2354 50.9573 21.3363 51.3169 20.1973C51.6851 19.0584 51.8692 17.7696 51.8692 16.3309C51.8692 14.661 51.6765 13.201 51.2912 11.9507C50.9144 10.7004 50.3279 9.72846 49.5315 9.03482C48.7438 8.33262 47.7376 7.98151 46.5131 7.98151C45.3486 7.98151 44.4067 8.33262 43.6874 9.03482C42.9681 9.72846 42.4415 10.6448 42.1075 11.7837C41.7821 12.9141 41.6194 14.1472 41.6194 15.4831C41.6194 17.1102 41.8035 18.5574 42.1717 19.8248C42.5485 21.0922 43.1308 22.0856 43.9186 22.8049C44.7064 23.5242 45.7125 23.8839 46.937 23.8839Z" fill="white"/>
<path d="M56.8314 24.9244V24.1023L58.3728 23.6398C58.5526 23.5799 58.6896 23.4943 58.7838 23.3829C58.8865 23.2716 58.9379 23.126 58.9379 22.9462V8.18704C58.9379 7.97295 58.878 7.80168 58.7581 7.67323C58.6468 7.53621 58.4712 7.42489 58.2315 7.33925L56.7415 6.78691V6.08042L62.0719 5.3354V22.9462C62.0719 23.1346 62.1233 23.2844 62.2261 23.3958C62.3374 23.4985 62.4701 23.5799 62.6242 23.6398L64.0499 24.1023V24.9244H56.8314Z" fill="white"/>
<path d="M65.2779 24.9244V24.1023L66.8706 23.6398C67.0333 23.5885 67.166 23.5071 67.2688 23.3958C67.3715 23.2844 67.4229 23.1346 67.4229 22.9462V14.661C67.4229 14.4469 67.3672 14.2757 67.2559 14.1472C67.1446 14.0188 66.9648 13.9074 66.7165 13.8132L65.3293 13.2994V12.5929L70.5697 11.7965V22.9462C70.5697 23.1346 70.6211 23.2844 70.7239 23.3958C70.8266 23.5071 70.9594 23.5885 71.122 23.6398L72.6248 24.1023V24.9244H65.2779Z" fill="white"/>
<path d="M79.3321 25.04L74.5797 13.8389C74.5026 13.6591 74.3998 13.5221 74.2714 13.4279C74.1515 13.3251 73.976 13.2266 73.7448 13.1324L72.8071 12.7471V11.9378H79.5247V12.7471L77.6494 13.2737L80.3596 19.7734L80.989 21.5204H81.066L84.1615 13.4793L82.3633 12.7471V11.9378H87.4111V12.7471L86.4478 13.2994C86.2509 13.4022 86.0839 13.505 85.9469 13.6077C85.8099 13.7019 85.7028 13.8389 85.6258 14.0188L82.222 22.2654L80.822 25.04H79.3321Z" fill="white"/>
<path d="M94.2524 25.2198C93.0108 25.2198 91.9062 24.9629 90.9386 24.4491C89.9796 23.9353 89.226 23.1774 88.678 22.1755C88.1385 21.1735 87.8688 19.9447 87.8688 18.4889C87.8688 17.2386 88.13 16.0911 88.6523 15.0464C89.1832 14.0016 89.9325 13.1624 90.9001 12.5287C91.8677 11.895 93.0151 11.5782 94.3423 11.5782C95.5155 11.5782 96.5088 11.8222 97.3222 12.3104C98.1357 12.7899 98.7565 13.4193 99.1846 14.1986C99.6128 14.9779 99.8269 15.8042 99.8269 16.6777C99.8269 16.7805 99.8226 16.9261 99.814 17.1145C99.8055 17.2943 99.7926 17.4741 99.7755 17.654C99.7669 17.8252 99.7541 17.958 99.7369 18.0522H90.9258L90.9771 16.819H96.5773C96.5773 16.0654 96.5002 15.3932 96.3461 14.8023C96.2005 14.2114 95.9479 13.7447 95.5882 13.4022C95.2372 13.0597 94.7534 12.8884 94.1368 12.8884C93.5374 12.8884 93.0408 13.0382 92.6469 13.338C92.253 13.6377 91.9447 14.0359 91.7221 14.5326C91.4995 15.0207 91.3411 15.5602 91.2469 16.1511C91.1612 16.7334 91.1184 17.3114 91.1184 17.8852C91.1184 18.8785 91.2469 19.782 91.5037 20.5955C91.7692 21.4005 92.2188 22.0385 92.8524 22.5095C93.4946 22.9804 94.3723 23.2159 95.4855 23.2159C96.1191 23.2159 96.6843 23.1432 97.1809 22.9976C97.6776 22.8434 98.1143 22.6636 98.4911 22.4581C98.8764 22.244 99.1975 22.0556 99.4544 21.8929H99.8012V23.0746C99.1932 23.5713 98.4011 24.0552 97.425 24.5262C96.4574 24.9886 95.3999 25.2198 94.2524 25.2198Z" fill="white"/>
<path d="M101.382 24.9244V24.1023L102.808 23.6527C102.97 23.6013 103.103 23.5199 103.206 23.4086C103.309 23.2887 103.36 23.1389 103.36 22.959V14.7509C103.36 14.494 103.309 14.2885 103.206 14.1344C103.103 13.9802 102.923 13.8603 102.667 13.7747L101.305 13.2609V12.5544L106.34 11.6809V14.5454H106.391C106.751 13.9802 107.123 13.475 107.509 13.0297C107.894 12.5844 108.318 12.2333 108.78 11.9764C109.243 11.7109 109.765 11.5782 110.347 11.5782C110.81 11.5782 111.195 11.621 111.503 11.7066C111.82 11.7923 112.137 11.9164 112.454 12.0791V15.7143H111.054L110.604 14.7253C110.527 14.5625 110.347 14.4212 110.065 14.3014C109.791 14.1815 109.517 14.1215 109.243 14.1215C108.883 14.1215 108.545 14.1729 108.228 14.2757C107.92 14.3784 107.624 14.5369 107.342 14.7509C107.059 14.965 106.777 15.2476 106.494 15.5987V22.959C106.494 23.3273 106.683 23.5585 107.059 23.6527L108.806 24.1023V24.9244H101.382Z" fill="white"/>
<path d="M70.5451 7.4604C70.5451 8.63401 69.5937 9.5854 68.4202 9.5854C67.2467 9.5854 66.2954 8.63401 66.2954 7.4604C66.2954 6.2868 67.2467 5.3354 68.4202 5.3354C69.5937 5.3354 70.5451 6.2868 70.5451 7.4604Z" fill="white"/>
<path d="M118.66 24.205L118.442 19.2211H119.559L120.497 21.7644C120.531 21.8843 120.612 22.0085 120.741 22.1369C120.869 22.2654 120.981 22.3596 121.075 22.4195C121.443 22.6593 121.867 22.8777 122.346 23.0746C122.826 23.2716 123.305 23.43 123.785 23.5499C124.264 23.6612 124.684 23.7169 125.044 23.7169C126.131 23.7169 126.996 23.4343 127.638 22.8691C128.28 22.3039 128.602 21.5632 128.602 20.6469C128.602 19.9276 128.396 19.3495 127.985 18.9128C127.574 18.4675 126.987 18.095 126.225 17.7953C125.549 17.5212 124.877 17.3029 124.209 17.1402C123.541 16.9689 122.882 16.7505 122.231 16.485C121.203 16.074 120.403 15.4703 119.829 14.6739C119.255 13.8775 118.968 12.9398 118.968 11.8608C118.968 10.8417 119.251 9.93399 119.816 9.13758C120.39 8.33262 121.156 7.69892 122.115 7.23649C123.083 6.7655 124.149 6.53 125.313 6.53C125.998 6.53 126.666 6.57282 127.317 6.65846C127.976 6.73553 128.602 6.83829 129.192 6.96674C129.792 7.09519 130.34 7.23221 130.836 7.37779V12.0534H129.719L128.884 9.66424C128.841 9.54435 128.76 9.42874 128.64 9.31742C128.529 9.20609 128.422 9.11617 128.319 9.04767C128.088 8.8764 127.784 8.72654 127.407 8.59808C127.03 8.46107 126.641 8.35402 126.238 8.27695C125.836 8.19988 125.48 8.16135 125.172 8.16135C124.179 8.16135 123.404 8.41397 122.847 8.91922C122.299 9.42446 122.025 10.0153 122.025 10.6919C122.025 11.3598 122.197 11.955 122.539 12.4773C122.882 12.9911 123.524 13.415 124.466 13.749C125.108 13.9802 125.742 14.1815 126.367 14.3527C126.992 14.524 127.668 14.7595 128.396 15.0592C128.978 15.2904 129.526 15.603 130.04 15.9969C130.562 16.3823 130.986 16.879 131.312 17.487C131.637 18.0864 131.8 18.8143 131.8 19.6707C131.8 20.6126 131.547 21.5204 131.042 22.3938C130.545 23.2588 129.762 23.9652 128.691 24.5133C127.621 25.0614 126.238 25.3354 124.543 25.3354C123.926 25.3354 123.284 25.2797 122.616 25.1684C121.948 25.0657 121.28 24.9286 120.612 24.7574C119.944 24.5775 119.294 24.3934 118.66 24.205Z" fill="white"/>
<path d="M133.481 24.9244V24.1023L135.074 23.6398C135.237 23.5885 135.369 23.5071 135.472 23.3958C135.575 23.2844 135.626 23.1346 135.626 22.9462V14.661C135.626 14.4469 135.571 14.2757 135.459 14.1472C135.348 14.0188 135.168 13.9074 134.92 13.8132L133.533 13.2994V12.5929L138.773 11.7965V22.9462C138.773 23.1346 138.824 23.2844 138.927 23.3958C139.03 23.5071 139.163 23.5885 139.325 23.6398L140.828 24.1023V24.9244H133.481Z" fill="white"/>
<path d="M142.012 24.9244V24.1023L143.412 23.6527C143.575 23.6013 143.708 23.5199 143.81 23.4086C143.922 23.2887 143.977 23.1389 143.977 22.959V14.5968C143.977 14.3827 143.917 14.2114 143.797 14.083C143.686 13.946 143.511 13.8347 143.271 13.749L142.012 13.2609V12.5544L146.983 11.6809V13.8132H147.047C147.518 13.1624 147.989 12.6786 148.46 12.3617C148.931 12.0449 149.402 11.8351 149.873 11.7323C150.344 11.6296 150.81 11.5782 151.273 11.5782C152.052 11.5782 152.754 11.7323 153.379 12.0406C154.013 12.3489 154.514 12.837 154.882 13.505C155.25 14.1643 155.434 15.0293 155.434 16.0997V22.9077C155.434 23.1132 155.49 23.2759 155.601 23.3958C155.713 23.5071 155.845 23.5927 156 23.6527L157.233 24.1023V24.9244H150.489V24.1023L151.748 23.6527C151.902 23.5927 152.031 23.5071 152.133 23.3958C152.245 23.2759 152.3 23.1132 152.3 22.9077V17.2558C152.3 16.485 152.24 15.8299 152.121 15.2904C152.001 14.7424 151.765 14.3271 151.414 14.0445C151.063 13.7619 150.536 13.6206 149.834 13.6206C149.372 13.6206 148.888 13.6934 148.383 13.8389C147.878 13.9845 147.454 14.3014 147.111 14.7895V22.959C147.111 23.1474 147.163 23.293 147.265 23.3958C147.377 23.4985 147.509 23.5842 147.664 23.6527L148.768 24.1023V24.9244H142.012Z" fill="white"/>
<path d="M169.332 21.8543H169.692V23.049C169.109 23.5542 168.377 24.0423 167.495 24.5133C166.622 24.9843 165.62 25.2198 164.49 25.2198C163.24 25.2198 162.173 24.9329 161.291 24.3592C160.41 23.7768 159.733 22.9976 159.262 22.0213C158.8 21.0365 158.569 19.9447 158.569 18.7458C158.569 17.7696 158.735 16.8533 159.069 15.9969C159.403 15.132 159.883 14.3699 160.508 13.7105C161.142 13.0511 161.895 12.5373 162.769 12.1691C163.651 11.8008 164.631 11.6167 165.71 11.6167C166.369 11.6167 166.934 11.6767 167.405 11.7965C167.876 11.9164 168.27 12.0534 168.587 12.2076C168.912 12.3617 169.182 12.4945 169.396 12.6058L169.062 15.2262H168.536C168.116 14.9265 167.667 14.6311 167.187 14.3399C166.716 14.0402 166.232 13.7918 165.736 13.5949C165.248 13.3893 164.747 13.2866 164.233 13.2866C163.985 13.2866 163.74 13.3508 163.501 13.4793C163.261 13.6077 163.043 13.8004 162.846 14.0573C162.7 14.2457 162.55 14.5197 162.396 14.8794C162.242 15.2305 162.109 15.6672 161.998 16.1896C161.895 16.712 161.844 17.3157 161.844 18.0008C161.844 19.645 162.182 20.9209 162.858 21.8287C163.535 22.7364 164.575 23.1902 165.98 23.1902C166.459 23.1902 166.909 23.1175 167.328 22.9719C167.748 22.8177 168.125 22.6379 168.459 22.4324C168.801 22.2183 169.092 22.0256 169.332 21.8543Z" fill="white"/>
<path d="M170.755 24.9244V24.1023L172.296 23.6398C172.476 23.5799 172.613 23.4943 172.707 23.3829C172.81 23.2716 172.861 23.126 172.861 22.9462V8.18704C172.861 7.97295 172.801 7.80168 172.682 7.67323C172.57 7.53621 172.395 7.42489 172.155 7.33925L170.665 6.78691V6.08042L175.995 5.3354V22.9462C175.995 23.1346 176.047 23.2844 176.15 23.3958C176.261 23.4985 176.394 23.5799 176.548 23.6398L177.973 24.1023V24.9244H170.755Z" fill="white"/>
<path d="M182.99 25.1813C182.271 25.1813 181.642 25.0143 181.102 24.6803C180.563 24.3378 180.143 23.8967 179.844 23.3572C179.552 22.8092 179.407 22.2226 179.407 21.5974C179.407 20.7753 179.608 20.0817 180.011 19.5165C180.422 18.9428 180.94 18.4803 181.565 18.1292C182.198 17.7781 182.866 17.5212 183.568 17.3585C184.271 17.1958 184.921 17.1145 185.521 17.1145C185.632 17.1145 185.808 17.1273 186.047 17.153C186.287 17.1701 186.531 17.1915 186.78 17.2172C187.028 17.2344 187.208 17.2429 187.319 17.2429L187.332 15.4189C187.34 14.554 187.195 13.9588 186.895 13.6334C186.595 13.308 186.112 13.1453 185.444 13.1453C185.058 13.1453 184.665 13.2224 184.262 13.3765C183.86 13.5306 183.461 13.7276 183.068 13.9674C182.682 14.1986 182.323 14.4341 181.989 14.6739C181.655 14.9136 181.368 15.1106 181.128 15.2648H180.627L180.306 12.7086C180.734 12.5202 181.201 12.3403 181.706 12.1691C182.211 11.9978 182.764 11.8565 183.363 11.7452C183.971 11.6338 184.635 11.5782 185.354 11.5782C186.167 11.5782 186.968 11.7023 187.756 11.9507C188.544 12.199 189.194 12.6315 189.708 13.2481C190.222 13.8561 190.474 14.7038 190.466 15.7914L190.402 22.4581C190.402 22.7321 190.5 22.9548 190.697 23.126C190.894 23.2973 191.155 23.3829 191.481 23.3829C191.6 23.3829 191.776 23.3615 192.007 23.3187C192.238 23.2673 192.448 23.2117 192.637 23.1517H192.893V24.0894C192.722 24.2179 192.465 24.3677 192.123 24.539C191.789 24.7103 191.425 24.8601 191.031 24.9886C190.646 25.117 190.277 25.1813 189.926 25.1813C189.13 25.1813 188.505 25.0186 188.051 24.6931C187.606 24.3677 187.383 23.8025 187.383 22.9976H187.306C186.887 23.6398 186.416 24.1194 185.893 24.4362C185.38 24.7445 184.87 24.9458 184.365 25.04C183.86 25.1342 183.402 25.1813 182.99 25.1813ZM184.724 23.2802C185.161 23.2802 185.624 23.1902 186.112 23.0104C186.6 22.822 186.994 22.5009 187.293 22.047L187.319 18.3091C186.386 18.3091 185.572 18.399 184.879 18.5788C184.185 18.7501 183.646 19.037 183.26 19.4394C182.883 19.8419 182.695 20.3814 182.695 21.0579C182.695 21.6231 182.798 22.0684 183.003 22.3938C183.217 22.7193 183.479 22.9505 183.787 23.0875C184.104 23.2159 184.416 23.2802 184.724 23.2802Z" fill="white"/>
<path d="M193.397 24.9244V24.1023L194.99 23.6398C195.153 23.5885 195.285 23.5071 195.388 23.3958C195.491 23.2844 195.542 23.1346 195.542 22.9462V14.661C195.542 14.4469 195.487 14.2757 195.375 14.1472C195.264 14.0188 195.084 13.9074 194.836 13.8132L193.449 13.2994V12.5929L198.689 11.7965V22.9462C198.689 23.1346 198.741 23.2844 198.843 23.3958C198.946 23.5071 199.079 23.5885 199.241 23.6398L200.744 24.1023V24.9244H193.397Z" fill="white"/>
<path d="M201.928 24.9244V24.1023L203.354 23.6527C203.517 23.6013 203.649 23.5199 203.752 23.4086C203.855 23.2887 203.906 23.1389 203.906 22.959V14.7509C203.906 14.494 203.855 14.2885 203.752 14.1344C203.649 13.9802 203.47 13.8603 203.213 13.7747L201.851 13.2609V12.5544L206.886 11.6809V14.5454H206.937C207.297 13.9802 207.67 13.475 208.055 13.0297C208.44 12.5844 208.864 12.2333 209.327 11.9764C209.789 11.7109 210.311 11.5782 210.894 11.5782C211.356 11.5782 211.741 11.621 212.05 11.7066C212.366 11.7923 212.683 11.9164 213 12.0791V15.7143H211.6L211.15 14.7253C211.073 14.5625 210.894 14.4212 210.611 14.3014C210.337 14.1815 210.063 14.1215 209.789 14.1215C209.429 14.1215 209.091 14.1729 208.774 14.2757C208.466 14.3784 208.171 14.5369 207.888 14.7509C207.605 14.965 207.323 15.2476 207.04 15.5987V22.959C207.04 23.3273 207.229 23.5585 207.605 23.6527L209.352 24.1023V24.9244H201.928Z" fill="white"/>
<path d="M138.74 7.4604C138.74 8.63401 137.789 9.5854 136.615 9.5854C135.442 9.5854 134.491 8.63401 134.491 7.4604C134.491 6.2868 135.442 5.3354 136.615 5.3354C137.789 5.3354 138.74 6.2868 138.74 7.4604Z" fill="white"/>
<path d="M198.686 7.4604C198.686 8.63401 197.735 9.5854 196.561 9.5854C195.388 9.5854 194.436 8.63401 194.436 7.4604C194.436 6.2868 195.388 5.3354 196.561 5.3354C197.735 5.3354 198.686 6.2868 198.686 7.4604Z" fill="white"/>
</svg>
