<svg width="195" height="46" viewBox="0 0 195 46" fill="none" xmlns="http://www.w3.org/2000/svg">
<path fill-rule="evenodd" clip-rule="evenodd" d="M60.8835 16.0595H67.3295V40.4837H73.9147V16.0595H80.3606V10.2065H60.8835V16.0595Z" fill="white"/>
<mask id="mask0_89_1858" style="mask-type:luminance" maskUnits="userSpaceOnUse" x="0" y="9" width="105" height="37">
<path d="M0 9.75305V45.0238H104.767V9.75305H0Z" fill="white"/>
</mask>
<g mask="url(#mask0_89_1858)">
<path fill-rule="evenodd" clip-rule="evenodd" d="M48.4836 31.1377C48.4836 33.5783 47.0551 35.0996 44.8002 35.0996C42.4973 35.0996 41.1168 33.5783 41.1168 31.1362V10.2142H34.5301V31.229C34.5301 37.2183 38.6732 40.9526 44.7987 40.9526C50.9227 40.9526 55.0657 37.2198 55.0657 31.229V10.2142H48.4851L48.4836 31.1377ZM97.4023 22.5191L93.6261 21.0907C91.5538 20.3061 91.1854 18.9705 91.1854 18.0946C91.1854 16.4356 92.3833 15.1913 94.5005 15.1913C96.5728 15.1913 97.9533 16.5733 97.9533 18.7399V19.5694H104.124V18.8777C104.124 13.2553 100.256 9.75305 94.5005 9.75305C88.4678 9.75305 84.9686 13.9006 84.9686 18.5093C84.9686 22.9339 87.2715 25.5617 91.6466 27.2192L95.881 28.8318C97.7691 29.57 98.5058 30.5837 98.5058 32.1049C98.5058 34.2236 97.1253 35.4679 94.6383 35.4679C92.1527 35.4679 90.6329 34.315 90.6329 31.8744V30.7678H84.4161V31.8279C84.4161 37.4504 88.7433 40.9526 94.6383 40.9526C101.084 40.9526 104.769 37.0356 104.769 31.4596C104.769 25.8821 101.176 23.9476 97.4023 22.5191ZM5.7083 22.6928L2.84843 19.83L-0.0129395 22.6928L2.84693 25.5557L5.7083 22.6928ZM12.1138 23.3756L14.2924 25.5557L17.1523 22.6928L14.2385 19.7761C13.9596 19.4969 13.6283 19.2755 13.2638 19.1244C12.8992 18.9733 12.5084 18.8955 12.1138 18.8955C11.7192 18.8955 11.3284 18.9733 10.9638 19.1244C10.5993 19.2755 10.2681 19.4969 9.98912 19.7761L-0.0129395 29.7856L2.84693 32.6485L12.1153 23.3756M11.4325 35.5128L8.57116 32.6485L6.39257 34.8301L4.21398 32.6485L1.34962 35.5128L4.26489 38.4311C4.54373 38.7104 4.87491 38.932 5.23949 39.0832C5.60407 39.2344 5.99488 39.3123 6.38957 39.3123C6.78426 39.3123 7.17508 39.2344 7.53966 39.0832C7.90424 38.932 8.23542 38.7104 8.51426 38.4311L11.431 35.5113M12.1138 40.5558L9.93521 38.3757L7.07385 41.2401L9.98912 44.1568C10.2681 44.436 10.5993 44.6574 10.9638 44.8085C11.3284 44.9596 11.7192 45.0374 12.1138 45.0374C12.5084 45.0374 12.8992 44.9596 13.2638 44.8085C13.6283 44.6574 13.9596 44.436 14.2385 44.1568L17.1538 41.2401L14.2939 38.3757L12.1138 40.5558Z" fill="white"/>
</g>
<path fill-rule="evenodd" clip-rule="evenodd" d="M17.829 34.8266L15.6504 32.645L12.7906 35.5079L15.7058 38.4277C15.9847 38.707 16.3159 38.9286 16.6804 39.0798C17.045 39.231 17.4358 39.3088 17.8305 39.3088C18.2252 39.3088 18.616 39.231 18.9806 39.0798C19.3452 38.9286 19.6764 38.707 19.9552 38.4277L22.869 35.5094L20.0091 32.645L17.829 34.8266ZM18.5118 29.7807L21.3747 32.645L24.2345 29.7822L21.3732 26.9178L18.5118 29.7807ZM12.1078 29.1009L9.9292 26.9193L7.06934 29.7822L9.98311 32.6989C10.262 32.9781 10.5933 33.1995 10.9578 33.3506C11.3224 33.5017 11.7132 33.5795 12.1078 33.5795C12.5024 33.5795 12.8932 33.5017 13.2578 33.3506C13.6223 33.1995 13.9535 32.9781 14.2325 32.6989L24.2345 22.6894L21.3732 19.825L12.1078 29.1009ZM15.923 4.36826L12.1093 0.547119L8.29264 4.36527L12.1093 8.18642L15.923 4.36826Z" fill="white"/>
<path fill-rule="evenodd" clip-rule="evenodd" d="M7.34792 13.0596H10.0835V18.4798C10.6965 18.118 11.3953 17.9272 12.1071 17.9272C12.8189 17.9272 13.5177 18.118 14.1307 18.4798V13.0596H16.8678L18.6601 14.8533L22.4753 11.0352L18.6601 7.21704L16.8678 9.01082H7.34792L5.55563 7.21704L1.74048 11.0352L5.55563 14.8533L7.34792 13.0596Z" fill="white"/>
<path d="M120.177 14.547C120.177 16.1199 119.432 16.9064 117.942 16.9064C116.515 16.9064 115.802 16.1499 115.802 14.6368V11.2111H116.731V14.4454C116.731 15.5444 117.158 16.0939 118.012 16.0939C118.835 16.0939 119.247 15.5639 119.247 14.504V11.2111H120.177V14.547ZM126.683 16.8126H125.667L122.992 12.6954C122.924 12.5913 122.868 12.4832 122.824 12.3712H122.8C122.821 12.491 122.831 12.7475 122.831 13.1407V16.8126H121.933V11.2111H123.015L125.601 15.2306C125.71 15.3973 125.781 15.5118 125.812 15.5743H125.827C125.801 15.4259 125.788 15.1746 125.788 14.8204V11.2111H126.683V16.8126ZM129.467 16.8126H128.51V11.2111H129.467V16.8126ZM135.68 11.2111L133.668 16.8126H132.629L130.653 11.2111H131.668L133.051 15.4611C133.095 15.5965 133.129 15.754 133.153 15.9337H133.168C133.187 15.7853 133.224 15.6251 133.282 15.4532L134.696 11.2111H135.68ZM140.007 16.8126H136.862V11.2111H139.882V12.0001H137.792V13.5861H139.718V14.3712H137.792V16.0275H140.007V16.8126ZM145.771 16.8126H144.685L143.791 15.3126C143.71 15.1746 143.63 15.0574 143.552 14.9611C143.477 14.8621 143.399 14.7814 143.318 14.7189C143.24 14.6564 143.154 14.6108 143.06 14.5822C142.966 14.5535 142.861 14.5392 142.744 14.5392H142.369V16.8126H141.443V11.2111H143.287C143.55 11.2111 143.792 11.2423 144.013 11.3048C144.235 11.3673 144.427 11.4624 144.591 11.59C144.755 11.715 144.883 11.8725 144.974 12.0626C145.068 12.2501 145.115 12.4702 145.115 12.7228C145.115 12.9207 145.085 13.103 145.025 13.2697C144.968 13.4337 144.884 13.5809 144.775 13.7111C144.668 13.8387 144.538 13.948 144.384 14.0392C144.233 14.1303 144.063 14.2006 143.873 14.2501V14.2657C143.974 14.323 144.063 14.3868 144.138 14.4572C144.214 14.5249 144.285 14.5952 144.353 14.6681C144.421 14.741 144.487 14.8243 144.552 14.9181C144.62 15.0092 144.694 15.116 144.775 15.2384L145.771 16.8126ZM142.369 11.965V13.7853H143.142C143.285 13.7853 143.417 13.7631 143.537 13.7189C143.659 13.6746 143.765 13.6108 143.853 13.5275C143.942 13.4441 144.011 13.3426 144.06 13.2228C144.11 13.103 144.134 12.9689 144.134 12.8204C144.134 12.5522 144.05 12.3426 143.88 12.1915C143.711 12.0405 143.468 11.965 143.15 11.965H142.369ZM146.609 16.59V15.6329C146.695 15.7111 146.797 15.7814 146.914 15.8439C147.034 15.9064 147.16 15.9598 147.293 16.004C147.426 16.0457 147.559 16.0782 147.692 16.1017C147.824 16.1251 147.947 16.1368 148.059 16.1368C148.449 16.1368 148.74 16.0717 148.93 15.9415C149.123 15.8113 149.219 15.6225 149.219 15.3751C149.219 15.2423 149.186 15.1277 149.121 15.0314C149.059 14.9324 148.97 14.8426 148.856 14.7618C148.741 14.6811 148.606 14.6043 148.449 14.5314C148.296 14.4559 148.13 14.3777 147.953 14.297C147.763 14.1954 147.586 14.0926 147.422 13.9884C147.258 13.8842 147.115 13.7697 146.992 13.6447C146.873 13.517 146.777 13.3738 146.707 13.215C146.639 13.0561 146.606 12.8699 146.606 12.6564C146.606 12.3934 146.664 12.1655 146.781 11.9728C146.901 11.7775 147.057 11.6173 147.25 11.4923C147.445 11.3647 147.667 11.271 147.914 11.2111C148.162 11.1486 148.414 11.1173 148.672 11.1173C149.258 11.1173 149.685 11.1837 149.953 11.3165V12.2345C149.636 12.0053 149.227 11.8907 148.727 11.8907C148.589 11.8907 148.451 11.9038 148.313 11.9298C148.177 11.9559 148.055 11.9988 147.945 12.0587C147.839 12.1186 147.751 12.1954 147.684 12.2892C147.616 12.3829 147.582 12.4962 147.582 12.629C147.582 12.754 147.608 12.8621 147.66 12.9532C147.712 13.0444 147.788 13.1277 147.887 13.2032C147.988 13.2788 148.111 13.353 148.254 13.4259C148.4 13.4962 148.568 13.573 148.758 13.6564C148.953 13.7579 149.137 13.8647 149.309 13.9767C149.483 14.0887 149.636 14.2124 149.766 14.3478C149.899 14.4832 150.003 14.6342 150.078 14.8009C150.156 14.965 150.195 15.1525 150.195 15.3634C150.195 15.6473 150.138 15.8868 150.024 16.0822C149.909 16.2775 149.754 16.4363 149.559 16.5587C149.366 16.6811 149.143 16.7697 148.891 16.8243C148.638 16.879 148.371 16.9064 148.09 16.9064C147.996 16.9064 147.88 16.8986 147.742 16.8829C147.607 16.8699 147.468 16.8491 147.324 16.8204C147.181 16.7944 147.046 16.7618 146.918 16.7228C146.79 16.6837 146.688 16.6394 146.609 16.59ZM152.62 16.8126H151.663V11.2111H152.62V16.8126ZM158.036 12.0001H156.427V16.8126H155.497V12.0001H153.892V11.2111H158.036V12.0001ZM163.332 11.2111L161.496 14.7775V16.8126H160.566V14.797L158.777 11.2111H159.836L160.937 13.6134C160.95 13.642 160.989 13.7501 161.054 13.9376H161.066C161.09 13.8543 161.133 13.7462 161.195 13.6134L162.347 11.2111H163.332ZM118.177 26.9064C117.369 26.9064 116.722 26.6447 116.235 26.1212C115.751 25.5978 115.509 24.9168 115.509 24.0782C115.509 23.1772 115.756 22.4585 116.251 21.922C116.746 21.3855 117.417 21.1173 118.266 21.1173C119.053 21.1173 119.686 21.3777 120.165 21.8986C120.647 22.4194 120.887 23.1004 120.887 23.9415C120.887 24.8556 120.641 25.5782 120.149 26.1095C119.657 26.6407 118.999 26.9064 118.177 26.9064ZM118.219 21.9337C117.706 21.9337 117.288 22.1251 116.966 22.5079C116.645 22.8907 116.485 23.3947 116.485 24.0197C116.485 24.642 116.641 25.1434 116.954 25.5236C117.266 25.9038 117.675 26.0939 118.18 26.0939C118.717 26.0939 119.14 25.9129 119.45 25.5509C119.76 25.1889 119.915 24.6824 119.915 24.0314C119.915 23.3621 119.764 22.8452 119.462 22.4806C119.162 22.116 118.748 21.9337 118.219 21.9337ZM125.378 22.0001H123.284V23.6837H125.214V24.4689H123.284V26.8126H122.355V21.2111H125.378V22.0001ZM133.055 22.0001H131.446V26.8126H130.516V22.0001H128.911V21.2111H133.055V22.0001ZM137.46 26.8126H134.315V21.2111H137.335V22.0001H135.245V23.5861H137.171V24.3712H135.245V26.0275H137.46V26.8126ZM142.802 26.5782C142.38 26.797 141.856 26.9064 141.228 26.9064C140.416 26.9064 139.765 26.6499 139.275 26.1368C138.785 25.6238 138.541 24.9506 138.541 24.1173C138.541 23.2215 138.815 22.4975 139.365 21.9454C139.917 21.3934 140.613 21.1173 141.455 21.1173C141.996 21.1173 142.446 21.1941 142.802 21.3478V22.2697C142.425 22.0457 142.008 21.9337 141.552 21.9337C140.946 21.9337 140.453 22.1277 140.076 22.5157C139.701 22.9038 139.513 23.422 139.513 24.0704C139.513 24.6876 139.689 25.1798 140.041 25.547C140.392 25.9116 140.854 26.0939 141.427 26.0939C141.956 26.0939 142.414 25.9689 142.802 25.7189V26.5782ZM148.805 26.8126H147.871V24.3829H145.234V26.8126H144.305V21.2111H145.234V23.5665H147.871V21.2111H148.805V26.8126ZM155.378 26.8126H154.362L151.686 22.6954C151.618 22.5913 151.563 22.4832 151.518 22.3712H151.495C151.516 22.491 151.526 22.7475 151.526 23.1407V26.8126H150.628V21.2111H151.71L154.296 25.2306C154.405 25.3973 154.475 25.5118 154.507 25.5743H154.522C154.496 25.4259 154.483 25.1746 154.483 24.8204V21.2111H155.378V26.8126ZM159.517 26.9064C158.71 26.9064 158.062 26.6447 157.575 26.1212C157.091 25.5978 156.849 24.9168 156.849 24.0782C156.849 23.1772 157.096 22.4585 157.591 21.922C158.086 21.3855 158.758 21.1173 159.607 21.1173C160.393 21.1173 161.026 21.3777 161.505 21.8986C161.987 22.4194 162.228 23.1004 162.228 23.9415C162.228 24.8556 161.982 25.5782 161.489 26.1095C160.997 26.6407 160.34 26.9064 159.517 26.9064ZM159.56 21.9337C159.047 21.9337 158.629 22.1251 158.306 22.5079C157.986 22.8907 157.825 23.3947 157.825 24.0197C157.825 24.642 157.982 25.1434 158.294 25.5236C158.607 25.9038 159.016 26.0939 159.521 26.0939C160.057 26.0939 160.48 25.9129 160.79 25.5509C161.1 25.1889 161.255 24.6824 161.255 24.0314C161.255 23.3621 161.104 22.8452 160.802 22.4806C160.503 22.116 160.088 21.9337 159.56 21.9337ZM166.797 26.8126H163.695V21.2111H164.625V26.0275H166.797V26.8126ZM170.116 26.9064C169.308 26.9064 168.661 26.6447 168.174 26.1212C167.69 25.5978 167.448 24.9168 167.448 24.0782C167.448 23.1772 167.695 22.4585 168.19 21.922C168.685 21.3855 169.356 21.1173 170.205 21.1173C170.992 21.1173 171.625 21.3777 172.104 21.8986C172.586 22.4194 172.827 23.1004 172.827 23.9415C172.827 24.8556 172.58 25.5782 172.088 26.1095C171.596 26.6407 170.938 26.9064 170.116 26.9064ZM170.159 21.9337C169.646 21.9337 169.228 22.1251 168.905 22.5079C168.584 22.8907 168.424 23.3947 168.424 24.0197C168.424 24.642 168.58 25.1434 168.893 25.5236C169.205 25.9038 169.614 26.0939 170.119 26.0939C170.656 26.0939 171.079 25.9129 171.389 25.5509C171.699 25.1889 171.854 24.6824 171.854 24.0314C171.854 23.3621 171.703 22.8452 171.401 22.4806C171.101 22.116 170.687 21.9337 170.159 21.9337ZM178.665 26.4298C178.082 26.7475 177.432 26.9064 176.716 26.9064C175.888 26.9064 175.217 26.6486 174.704 26.1329C174.191 25.6173 173.934 24.935 173.934 24.0861C173.934 23.2189 174.214 22.5079 174.774 21.9532C175.337 21.396 176.05 21.1173 176.915 21.1173C177.537 21.1173 178.061 21.2085 178.485 21.3907V22.3478C178.056 22.0613 177.544 21.9181 176.95 21.9181C176.354 21.9181 175.864 22.1147 175.481 22.5079C175.101 22.9012 174.911 23.4103 174.911 24.0353C174.911 24.6785 175.075 25.185 175.403 25.5548C175.731 25.922 176.177 26.1056 176.739 26.1056C177.125 26.1056 177.458 26.0314 177.739 25.8829V24.5509H176.559V23.7697H178.665V26.4298ZM184.214 21.2111L182.378 24.7775V26.8126H181.449V24.797L179.66 21.2111H180.718L181.82 23.6134C181.833 23.642 181.872 23.7501 181.937 23.9376H181.949C181.972 23.8543 182.015 23.7462 182.078 23.6134L183.23 21.2111H184.214ZM115.61 36.59V35.6329C115.696 35.7111 115.798 35.7814 115.915 35.8439C116.035 35.9064 116.161 35.9598 116.294 36.004C116.427 36.0457 116.559 36.0782 116.692 36.1017C116.825 36.1251 116.947 36.1368 117.059 36.1368C117.45 36.1368 117.74 36.0717 117.93 35.9415C118.123 35.8113 118.219 35.6225 118.219 35.3751C118.219 35.2423 118.187 35.1277 118.122 35.0314C118.059 34.9324 117.971 34.8426 117.856 34.7618C117.742 34.6811 117.606 34.6043 117.45 34.5314C117.296 34.4559 117.131 34.3777 116.954 34.297C116.764 34.1954 116.587 34.0926 116.423 33.9884C116.259 33.8842 116.115 33.7697 115.993 33.6447C115.873 33.517 115.778 33.3738 115.708 33.215C115.64 33.0561 115.606 32.8699 115.606 32.6564C115.606 32.3934 115.665 32.1655 115.782 31.9728C115.902 31.7775 116.058 31.6173 116.251 31.4923C116.446 31.3647 116.667 31.271 116.915 31.2111C117.162 31.1486 117.415 31.1173 117.673 31.1173C118.259 31.1173 118.686 31.1837 118.954 31.3165V32.2345C118.636 32.0053 118.227 31.8907 117.727 31.8907C117.589 31.8907 117.451 31.9038 117.313 31.9298C117.178 31.9559 117.055 31.9988 116.946 32.0587C116.839 32.1186 116.752 32.1954 116.684 32.2892C116.617 32.3829 116.583 32.4962 116.583 32.629C116.583 32.754 116.609 32.8621 116.661 32.9532C116.713 33.0444 116.788 33.1277 116.887 33.2032C116.989 33.2788 117.111 33.353 117.255 33.4259C117.4 33.4962 117.568 33.573 117.759 33.6564C117.954 33.7579 118.137 33.8647 118.309 33.9767C118.484 34.0887 118.636 34.2124 118.766 34.3478C118.899 34.4832 119.003 34.6342 119.079 34.8009C119.157 34.965 119.196 35.1525 119.196 35.3634C119.196 35.6473 119.139 35.8868 119.024 36.0822C118.91 36.2775 118.755 36.4363 118.559 36.5587C118.367 36.6811 118.144 36.7697 117.891 36.8243C117.639 36.879 117.372 36.9064 117.091 36.9064C116.997 36.9064 116.881 36.8986 116.743 36.8829C116.608 36.8699 116.468 36.8491 116.325 36.8204C116.182 36.7944 116.046 36.7618 115.919 36.7228C115.791 36.6837 115.688 36.6394 115.61 36.59ZM124.57 31.2111L122.734 34.7775V36.8126H121.804V34.797L120.015 31.2111H121.074L122.175 33.6134C122.188 33.642 122.227 33.7501 122.292 33.9376H122.304C122.327 33.8543 122.37 33.7462 122.433 33.6134L123.585 31.2111H124.57ZM125.724 36.8126V31.2111H127.342C129.407 31.2111 130.439 32.1212 130.439 33.9415C130.439 34.8061 130.153 35.5014 129.58 36.0275C129.007 36.5509 128.239 36.8126 127.275 36.8126H125.724ZM126.65 32.0001V36.0275H127.392C128.046 36.0275 128.554 35.8478 128.916 35.4884C129.28 35.129 129.463 34.6212 129.463 33.965C129.463 32.6551 128.784 32.0001 127.428 32.0001H126.65ZM136.657 36.8126H135.641L132.965 32.6954C132.898 32.5913 132.842 32.4832 132.797 32.3712H132.774C132.795 32.491 132.805 32.7475 132.805 33.1407V36.8126H131.907V31.2111H132.989L135.575 35.2306C135.684 35.3973 135.754 35.5118 135.786 35.5743H135.801C135.775 35.4259 135.762 35.1746 135.762 34.8204V31.2111H136.657V36.8126ZM141.632 36.8126H138.487V31.2111H141.507V32.0001H139.417V33.5861H141.343V34.3712H139.417V36.0275H141.632V36.8126ZM146.97 31.2111L145.134 34.7775V36.8126H144.205V34.797L142.416 31.2111H143.474L144.576 33.6134C144.589 33.642 144.628 33.7501 144.693 33.9376H144.705C144.728 33.8543 144.771 33.7462 144.834 33.6134L145.986 31.2111H146.97Z" fill="white"/>
</svg>
