<svg width="166" height="37" viewBox="0 0 166 37" fill="none" xmlns="http://www.w3.org/2000/svg">
<path fill-rule="evenodd" clip-rule="evenodd" d="M49.9595 12.981H55.2485V33.0216H60.6518V12.981H65.9408V8.17847H49.9595V12.981Z" fill="white"/>
<mask id="mask0_245_526" style="mask-type:luminance" maskUnits="userSpaceOnUse" x="0" y="7" width="86" height="30">
<path d="M0 7.80627V36.7467H85.9637V7.80627H0Z" fill="white"/>
</mask>
<g mask="url(#mask0_245_526)">
<path fill-rule="evenodd" clip-rule="evenodd" d="M39.7802 25.3528C39.7802 27.3554 38.6082 28.6037 36.7579 28.6037C34.8684 28.6037 33.7356 27.3554 33.7356 25.3516V8.18468H28.3311V25.4278C28.3311 30.3421 31.7306 33.4062 36.7567 33.4062C41.7816 33.4062 45.1811 30.3433 45.1811 25.4278V8.18468H39.7815L39.7802 25.3528ZM79.9191 18.2811L76.8207 17.1091C75.1203 16.4653 74.8181 15.3694 74.8181 14.6507C74.8181 13.2894 75.801 12.2685 77.5382 12.2685C79.2385 12.2685 80.3713 13.4025 80.3713 15.1802V15.8608H85.4342V15.2932C85.4342 10.6799 82.2608 7.80627 77.5382 7.80627C72.5882 7.80627 69.717 11.2094 69.717 14.991C69.717 18.6215 71.6066 20.7776 75.1965 22.1376L78.6709 23.4608C80.2201 24.0665 80.8246 24.8983 80.8246 26.1465C80.8246 27.8849 79.6919 28.9059 77.6512 28.9059C75.6117 28.9059 74.3647 27.9599 74.3647 25.9573V25.0494H69.2637V25.9192C69.2637 30.5325 72.8143 33.4062 77.6512 33.4062C82.9402 33.4062 85.9638 30.1922 85.9638 25.617C85.9638 21.0405 83.0152 19.4532 79.9191 18.2811ZM4.68219 18.4237L2.33561 16.0746L-0.012207 18.4237L2.33438 20.7727L4.68219 18.4237ZM9.93805 18.9839L11.7256 20.7727L14.0722 18.4237L11.6814 16.0304C11.4525 15.8013 11.1808 15.6196 10.8816 15.4957C10.5825 15.3717 10.2619 15.3079 9.93805 15.3079C9.61425 15.3079 9.29362 15.3717 8.99448 15.4957C8.69535 15.6196 8.42358 15.8013 8.1947 16.0304L-0.012207 24.2434L2.33438 26.5925L9.93928 18.9839M9.37905 28.9427L7.03124 26.5925L5.24365 28.3825L3.45607 26.5925L1.1058 28.9427L3.49784 31.3372C3.72664 31.5664 3.99838 31.7483 4.29753 31.8723C4.59667 31.9964 4.91735 32.0603 5.2412 32.0603C5.56505 32.0603 5.88572 31.9964 6.18487 31.8723C6.48401 31.7483 6.75576 31.5664 6.98455 31.3372L9.37782 28.9415M9.93805 33.0806L8.15047 31.2918L5.80266 33.6421L8.1947 36.0353C8.42358 36.2644 8.69535 36.4461 8.99448 36.5701C9.29362 36.694 9.61425 36.7578 9.93805 36.7578C10.2619 36.7578 10.5825 36.694 10.8816 36.5701C11.1808 36.4461 11.4525 36.2644 11.6814 36.0353L14.0735 33.6421L11.7269 31.2918L9.93805 33.0806Z" fill="white"/>
</g>
<path fill-rule="evenodd" clip-rule="evenodd" d="M14.6308 28.3803L12.8432 26.5902L10.4966 28.9393L12.8887 31.335C13.1175 31.5642 13.3892 31.746 13.6884 31.8701C13.9875 31.9942 14.3082 32.058 14.632 32.058C14.9559 32.058 15.2766 31.9942 15.5757 31.8701C15.8749 31.746 16.1466 31.5642 16.3754 31.335L18.7662 28.9405L16.4196 26.5902L14.6308 28.3803ZM15.191 24.24L17.5401 26.5902L19.8867 24.2412L17.5389 21.8909L15.191 24.24ZM9.93641 23.6822L8.14883 21.8921L5.80225 24.2412L8.19306 26.6345C8.42194 26.8635 8.69371 27.0452 8.99284 27.1692C9.29198 27.2932 9.61261 27.357 9.93641 27.357C10.2602 27.357 10.5809 27.2932 10.88 27.1692C11.1791 27.0452 11.4509 26.8635 11.6798 26.6345L19.8867 18.4214L17.5389 16.0711L9.93641 23.6822ZM13.0668 3.38851L9.93764 0.253174L6.80599 3.38605L9.93764 6.52138L13.0668 3.38851Z" fill="white"/>
<path fill-rule="evenodd" clip-rule="evenodd" d="M6.0312 10.5202H8.27582V14.9677C8.77881 14.6708 9.35218 14.5142 9.93624 14.5142C10.5203 14.5142 11.0937 14.6708 11.5967 14.9677V10.5202H13.8425L15.3131 11.9921L18.4435 8.85919L15.3131 5.72632L13.8425 7.19816H6.0312L4.5606 5.72632L1.43018 8.85919L4.5606 11.9921L6.0312 10.5202Z" fill="white"/>
<path d="M100 12.345C100 13.9179 99.2552 14.7043 97.7656 14.7043C96.3385 14.7043 95.625 13.9478 95.625 12.4348V9.00903H96.5547V12.2434C96.5547 13.3424 96.9818 13.8918 97.8359 13.8918C98.6589 13.8918 99.0703 13.3619 99.0703 12.302V9.00903H100V12.345ZM106.506 14.6106H105.491L102.815 10.4934C102.747 10.3892 102.691 10.2812 102.647 10.1692H102.624C102.644 10.289 102.655 10.5455 102.655 10.9387V14.6106H101.756V9.00903H102.838L105.424 13.0286C105.534 13.1952 105.604 13.3098 105.635 13.3723H105.651C105.625 13.2239 105.612 12.9726 105.612 12.6184V9.00903H106.506V14.6106ZM109.29 14.6106H108.333V9.00903H109.29V14.6106ZM115.504 9.00903L113.492 14.6106H112.453L110.476 9.00903H111.492L112.875 13.259C112.919 13.3944 112.953 13.552 112.976 13.7317H112.992C113.01 13.5833 113.048 13.4231 113.105 13.2512L114.519 9.00903H115.504ZM119.83 14.6106H116.686V9.00903H119.705V9.7981H117.615V11.384H119.541V12.1692H117.615V13.8254H119.83V14.6106ZM125.595 14.6106H124.509L123.614 13.1106C123.533 12.9726 123.454 12.8554 123.376 12.759C123.3 12.6601 123.222 12.5793 123.141 12.5168C123.063 12.4543 122.977 12.4088 122.884 12.3801C122.79 12.3515 122.684 12.3372 122.567 12.3372H122.192V14.6106H121.266V9.00903H123.11C123.373 9.00903 123.615 9.04028 123.837 9.10278C124.058 9.16528 124.251 9.26034 124.415 9.38794C124.579 9.51294 124.707 9.67049 124.798 9.8606C124.891 10.0481 124.938 10.2681 124.938 10.5208C124.938 10.7187 124.908 10.901 124.848 11.0676C124.791 11.2317 124.708 11.3788 124.598 11.509C124.492 11.6366 124.361 11.746 124.208 11.8372C124.057 11.9283 123.886 11.9986 123.696 12.0481V12.0637C123.798 12.121 123.886 12.1848 123.962 12.2551C124.037 12.3228 124.109 12.3931 124.177 12.4661C124.244 12.539 124.311 12.6223 124.376 12.7161C124.443 12.8072 124.518 12.914 124.598 13.0364L125.595 14.6106ZM122.192 9.76294V11.5833H122.966C123.109 11.5833 123.24 11.5611 123.36 11.5168C123.483 11.4726 123.588 11.4088 123.677 11.3254C123.765 11.2421 123.834 11.1405 123.884 11.0208C123.933 10.901 123.958 10.7668 123.958 10.6184C123.958 10.3502 123.873 10.1405 123.704 9.9895C123.535 9.83846 123.291 9.76294 122.973 9.76294H122.192ZM126.433 14.3879V13.4309C126.519 13.509 126.62 13.5793 126.738 13.6418C126.857 13.7043 126.984 13.7577 127.117 13.802C127.249 13.8437 127.382 13.8762 127.515 13.8997C127.648 13.9231 127.77 13.9348 127.882 13.9348C128.273 13.9348 128.563 13.8697 128.753 13.7395C128.946 13.6093 129.042 13.4205 129.042 13.1731C129.042 13.0403 129.01 12.9257 128.945 12.8293C128.882 12.7304 128.794 12.6405 128.679 12.5598C128.564 12.4791 128.429 12.4023 128.273 12.3293C128.119 12.2538 127.954 12.1757 127.777 12.095C127.587 11.9934 127.41 11.8905 127.245 11.7864C127.081 11.6822 126.938 11.5676 126.816 11.4426C126.696 11.315 126.601 11.1718 126.531 11.0129C126.463 10.8541 126.429 10.6679 126.429 10.4543C126.429 10.1913 126.488 9.96346 126.605 9.77075C126.725 9.57544 126.881 9.41528 127.074 9.29028C127.269 9.16268 127.49 9.06893 127.738 9.00903C127.985 8.94653 128.238 8.91528 128.495 8.91528C129.081 8.91528 129.508 8.98169 129.777 9.1145V10.0325C129.459 9.8033 129.05 9.68872 128.55 9.68872C128.412 9.68872 128.274 9.70174 128.136 9.72778C128.001 9.75382 127.878 9.79679 127.769 9.85669C127.662 9.91659 127.575 9.99341 127.507 10.0872C127.439 10.1809 127.406 10.2942 127.406 10.427C127.406 10.552 127.432 10.6601 127.484 10.7512C127.536 10.8424 127.611 10.9257 127.71 11.0012C127.812 11.0767 127.934 11.151 128.077 11.2239C128.223 11.2942 128.391 11.371 128.581 11.4543C128.777 11.5559 128.96 11.6627 129.132 11.7747C129.307 11.8866 129.459 12.0103 129.589 12.1458C129.722 12.2812 129.826 12.4322 129.902 12.5989C129.98 12.7629 130.019 12.9504 130.019 13.1614C130.019 13.4452 129.962 13.6848 129.847 13.8801C129.732 14.0754 129.577 14.2343 129.382 14.3567C129.189 14.4791 128.967 14.5676 128.714 14.6223C128.462 14.677 128.195 14.7043 127.913 14.7043C127.82 14.7043 127.704 14.6965 127.566 14.6809C127.43 14.6679 127.291 14.6471 127.148 14.6184C127.005 14.5924 126.869 14.5598 126.742 14.5208C126.614 14.4817 126.511 14.4374 126.433 14.3879ZM132.443 14.6106H131.486V9.00903H132.443V14.6106ZM137.86 9.7981H136.25V14.6106H135.321V9.7981H133.715V9.00903H137.86V9.7981ZM143.155 9.00903L141.319 12.5754V14.6106H140.39V12.595L138.601 9.00903H139.659L140.761 11.4114C140.774 11.44 140.813 11.5481 140.878 11.7356H140.89C140.913 11.6523 140.956 11.5442 141.019 11.4114L142.171 9.00903H143.155ZM98 24.7043C97.1927 24.7043 96.5456 24.4426 96.0586 23.9192C95.5742 23.3958 95.332 22.7148 95.332 21.8762C95.332 20.9752 95.5794 20.2564 96.0742 19.72C96.569 19.1835 97.2409 18.9153 98.0898 18.9153C98.8763 18.9153 99.5091 19.1757 99.9883 19.6965C100.47 20.2174 100.711 20.8984 100.711 21.7395C100.711 22.6536 100.465 23.3762 99.9727 23.9075C99.4805 24.4387 98.8229 24.7043 98 24.7043ZM98.043 19.7317C97.5299 19.7317 97.112 19.9231 96.7891 20.3059C96.4688 20.6887 96.3086 21.1926 96.3086 21.8176C96.3086 22.44 96.4648 22.9413 96.7773 23.3215C97.0898 23.7017 97.4987 23.8918 98.0039 23.8918C98.5404 23.8918 98.9635 23.7109 99.2734 23.3489C99.5833 22.9869 99.7383 22.4804 99.7383 21.8293C99.7383 21.1601 99.5872 20.6431 99.2852 20.2786C98.9857 19.914 98.5716 19.7317 98.043 19.7317ZM105.202 19.7981H103.108V21.4817H105.038V22.2668H103.108V24.6106H102.178V19.009H105.202V19.7981ZM112.879 19.7981H111.269V24.6106H110.34V19.7981H108.734V19.009H112.879V19.7981ZM117.283 24.6106H114.139V19.009H117.158V19.7981H115.069V21.384H116.994V22.1692H115.069V23.8254H117.283V24.6106ZM122.626 24.3762C122.204 24.595 121.679 24.7043 121.052 24.7043C120.239 24.7043 119.588 24.4478 119.098 23.9348C118.609 23.4218 118.364 22.7486 118.364 21.9153C118.364 21.0194 118.639 20.2955 119.188 19.7434C119.74 19.1913 120.437 18.9153 121.278 18.9153C121.82 18.9153 122.269 18.9921 122.626 19.1458V20.0676C122.248 19.8437 121.832 19.7317 121.376 19.7317C120.769 19.7317 120.277 19.9257 119.899 20.3137C119.524 20.7017 119.337 21.22 119.337 21.8684C119.337 22.4856 119.513 22.9778 119.864 23.345C120.216 23.7096 120.678 23.8918 121.251 23.8918C121.779 23.8918 122.238 23.7668 122.626 23.5168V24.3762ZM128.628 24.6106H127.695V22.1809H125.058V24.6106H124.128V19.009H125.058V21.3645H127.695V19.009H128.628V24.6106ZM135.201 24.6106H134.185L131.51 20.4934C131.442 20.3892 131.386 20.2812 131.342 20.1692H131.318C131.339 20.289 131.35 20.5455 131.35 20.9387V24.6106H130.451V19.009H131.533L134.119 23.0286C134.228 23.1952 134.299 23.3098 134.33 23.3723H134.346C134.32 23.2239 134.307 22.9726 134.307 22.6184V19.009H135.201V24.6106ZM139.34 24.7043C138.533 24.7043 137.886 24.4426 137.399 23.9192C136.915 23.3958 136.672 22.7148 136.672 21.8762C136.672 20.9752 136.92 20.2564 137.415 19.72C137.909 19.1835 138.581 18.9153 139.43 18.9153C140.217 18.9153 140.849 19.1757 141.329 19.6965C141.81 20.2174 142.051 20.8984 142.051 21.7395C142.051 22.6536 141.805 23.3762 141.313 23.9075C140.821 24.4387 140.163 24.7043 139.34 24.7043ZM139.383 19.7317C138.87 19.7317 138.452 19.9231 138.129 20.3059C137.809 20.6887 137.649 21.1926 137.649 21.8176C137.649 22.44 137.805 22.9413 138.118 23.3215C138.43 23.7017 138.839 23.8918 139.344 23.8918C139.881 23.8918 140.304 23.7109 140.614 23.3489C140.924 22.9869 141.079 22.4804 141.079 21.8293C141.079 21.1601 140.928 20.6431 140.625 20.2786C140.326 19.914 139.912 19.7317 139.383 19.7317ZM146.62 24.6106H143.519V19.009H144.448V23.8254H146.62V24.6106ZM149.939 24.7043C149.132 24.7043 148.485 24.4426 147.998 23.9192C147.513 23.3958 147.271 22.7148 147.271 21.8762C147.271 20.9752 147.518 20.2564 148.013 19.72C148.508 19.1835 149.18 18.9153 150.029 18.9153C150.815 18.9153 151.448 19.1757 151.927 19.6965C152.409 20.2174 152.65 20.8984 152.65 21.7395C152.65 22.6536 152.404 23.3762 151.912 23.9075C151.42 24.4387 150.762 24.7043 149.939 24.7043ZM149.982 19.7317C149.469 19.7317 149.051 19.9231 148.728 20.3059C148.408 20.6887 148.248 21.1926 148.248 21.8176C148.248 22.44 148.404 22.9413 148.716 23.3215C149.029 23.7017 149.438 23.8918 149.943 23.8918C150.479 23.8918 150.903 23.7109 151.213 23.3489C151.522 22.9869 151.677 22.4804 151.677 21.8293C151.677 21.1601 151.526 20.6431 151.224 20.2786C150.925 19.914 150.511 19.7317 149.982 19.7317ZM158.488 24.2278C157.905 24.5455 157.255 24.7043 156.539 24.7043C155.711 24.7043 155.041 24.4465 154.528 23.9309C154.014 23.4153 153.758 22.733 153.758 21.884C153.758 21.0168 154.038 20.3059 154.598 19.7512C155.16 19.1939 155.874 18.9153 156.738 18.9153C157.361 18.9153 157.884 19.0064 158.309 19.1887V20.1458C157.879 19.8593 157.367 19.7161 156.774 19.7161C156.177 19.7161 155.688 19.9127 155.305 20.3059C154.925 20.6991 154.735 21.2083 154.735 21.8333C154.735 22.4765 154.899 22.983 155.227 23.3528C155.555 23.72 156 23.9036 156.563 23.9036C156.948 23.9036 157.281 23.8293 157.563 23.6809V22.3489H156.383V21.5676H158.488V24.2278ZM164.038 19.009L162.202 22.5754V24.6106H161.272V22.595L159.483 19.009H160.542L161.643 21.4114C161.656 21.44 161.695 21.5481 161.76 21.7356H161.772C161.796 21.6523 161.839 21.5442 161.901 21.4114L163.053 19.009H164.038ZM95.4336 34.3879V33.4309C95.5195 33.509 95.6211 33.5793 95.7383 33.6418C95.8581 33.7043 95.9844 33.7577 96.1172 33.802C96.25 33.8437 96.3828 33.8762 96.5156 33.8997C96.6484 33.9231 96.7708 33.9348 96.8828 33.9348C97.2734 33.9348 97.5638 33.8697 97.7539 33.7395C97.9466 33.6093 98.043 33.4205 98.043 33.1731C98.043 33.0403 98.0104 32.9257 97.9453 32.8293C97.8828 32.7304 97.7943 32.6405 97.6797 32.5598C97.5651 32.4791 97.4297 32.4023 97.2734 32.3293C97.1198 32.2538 96.9544 32.1757 96.7773 32.095C96.5872 31.9934 96.4102 31.8905 96.2461 31.7864C96.082 31.6822 95.9388 31.5676 95.8164 31.4426C95.6966 31.315 95.6016 31.1718 95.5312 31.0129C95.4635 30.8541 95.4297 30.6679 95.4297 30.4543C95.4297 30.1913 95.4883 29.9635 95.6055 29.7708C95.7253 29.5754 95.8815 29.4153 96.0742 29.2903C96.2695 29.1627 96.4909 29.0689 96.7383 29.009C96.9857 28.9465 97.2383 28.9153 97.4961 28.9153C98.082 28.9153 98.5091 28.9817 98.7773 29.1145V30.0325C98.4596 29.8033 98.0508 29.6887 97.5508 29.6887C97.4128 29.6887 97.2747 29.7017 97.1367 29.7278C97.0013 29.7538 96.8789 29.7968 96.7695 29.8567C96.6628 29.9166 96.5755 29.9934 96.5078 30.0872C96.4401 30.1809 96.4062 30.2942 96.4062 30.427C96.4062 30.552 96.4323 30.6601 96.4844 30.7512C96.5365 30.8424 96.612 30.9257 96.7109 31.0012C96.8125 31.0767 96.9349 31.151 97.0781 31.2239C97.224 31.2942 97.3919 31.371 97.582 31.4543C97.7773 31.5559 97.9609 31.6627 98.1328 31.7747C98.3073 31.8866 98.4596 32.0103 98.5898 32.1458C98.7227 32.2812 98.8268 32.4322 98.9023 32.5989C98.9805 32.7629 99.0195 32.9504 99.0195 33.1614C99.0195 33.4452 98.9622 33.6848 98.8477 33.8801C98.7331 34.0754 98.5781 34.2343 98.3828 34.3567C98.1901 34.4791 97.9674 34.5676 97.7148 34.6223C97.4622 34.677 97.1953 34.7043 96.9141 34.7043C96.8203 34.7043 96.7044 34.6965 96.5664 34.6809C96.431 34.6679 96.2917 34.6471 96.1484 34.6184C96.0052 34.5924 95.8698 34.5598 95.7422 34.5208C95.6146 34.4817 95.5117 34.4374 95.4336 34.3879ZM104.393 29.009L102.557 32.5754V34.6106H101.628V32.595L99.8384 29.009H100.897L101.999 31.4114C102.012 31.44 102.051 31.5481 102.116 31.7356H102.128C102.151 31.6523 102.194 31.5442 102.256 31.4114L103.409 29.009H104.393ZM105.548 34.6106V29.009H107.165C109.23 29.009 110.263 29.9192 110.263 31.7395C110.263 32.6041 109.976 33.2994 109.403 33.8254C108.831 34.3489 108.062 34.6106 107.099 34.6106H105.548ZM106.474 29.7981V33.8254H107.216C107.87 33.8254 108.377 33.6458 108.739 33.2864C109.104 32.927 109.286 32.4192 109.286 31.7629C109.286 30.453 108.608 29.7981 107.251 29.7981H106.474ZM116.48 34.6106H115.465L112.789 30.4934C112.721 30.3892 112.665 30.2812 112.621 30.1692H112.597C112.618 30.289 112.629 30.5455 112.629 30.9387V34.6106H111.73V29.009H112.812L115.398 33.0286C115.507 33.1952 115.578 33.3098 115.609 33.3723H115.625C115.599 33.2239 115.586 32.9726 115.586 32.6184V29.009H116.48V34.6106ZM121.455 34.6106H118.311V29.009H121.33V29.7981H119.24V31.384H121.166V32.1692H119.24V33.8254H121.455V34.6106ZM126.794 29.009L124.958 32.5754V34.6106H124.028V32.595L122.239 29.009H123.298L124.399 31.4114C124.412 31.44 124.451 31.5481 124.516 31.7356H124.528C124.552 31.6523 124.595 31.5442 124.657 31.4114L125.809 29.009H126.794Z" fill="white"/>
</svg>
