<svg width="30" height="30" viewBox="0 0 30 30" fill="none" xmlns="http://www.w3.org/2000/svg">
<path d="M23.0769 26.25C23.0769 25.9115 22.9627 25.6185 22.7344 25.3711C22.506 25.1237 22.2356 25 21.9231 25C21.6106 25 21.3401 25.1237 21.1118 25.3711C20.8834 25.6185 20.7692 25.9115 20.7692 26.25C20.7692 26.5885 20.8834 26.8815 21.1118 27.1289C21.3401 27.3763 21.6106 27.5 21.9231 27.5C22.2356 27.5 22.506 27.3763 22.7344 27.1289C22.9627 26.8815 23.0769 26.5885 23.0769 26.25ZM27.6923 26.25C27.6923 25.9115 27.5781 25.6185 27.3498 25.3711C27.1214 25.1237 26.851 25 26.5385 25C26.226 25 25.9555 25.1237 25.7272 25.3711C25.4988 25.6185 25.3846 25.9115 25.3846 26.25C25.3846 26.5885 25.4988 26.8815 25.7272 27.1289C25.9555 27.3763 26.226 27.5 26.5385 27.5C26.851 27.5 27.1214 27.3763 27.3498 27.1289C27.5781 26.8815 27.6923 26.5885 27.6923 26.25ZM30 21.875V28.125C30 28.6458 29.8317 29.0885 29.4952 29.4531C29.1587 29.8177 28.75 30 28.2692 30H1.73077C1.25 30 0.841346 29.8177 0.504808 29.4531C0.168269 29.0885 0 28.6458 0 28.125V21.875C0 21.3542 0.168269 20.9115 0.504808 20.5469C0.841346 20.1823 1.25 20 1.73077 20H10.1142L12.5481 22.6562C13.2452 23.3854 14.0625 23.75 15 23.75C15.9375 23.75 16.7548 23.3854 17.4519 22.6562L19.9038 20H28.2692C28.75 20 29.1587 20.1823 29.4952 20.5469C29.8317 20.9115 30 21.3542 30 21.875ZM24.1406 10.7617C24.345 11.2956 24.2608 11.7513 23.8882 12.1289L15.8113 20.8789C15.595 21.1263 15.3245 21.25 15 21.25C14.6755 21.25 14.405 21.1263 14.1887 20.8789L6.11178 12.1289C5.73918 11.7513 5.65505 11.2956 5.85937 10.7617C6.0637 10.2539 6.41827 10 6.92308 10H11.5385V1.25C11.5385 0.911458 11.6526 0.61849 11.881 0.371094C12.1094 0.123698 12.3798 0 12.6923 0H17.3077C17.6202 0 17.8906 0.123698 18.119 0.371094C18.3474 0.61849 18.4615 0.911458 18.4615 1.25V10H23.0769C23.5817 10 23.9363 10.2539 24.1406 10.7617Z" fill="#EF5F63"/>
</svg>
