<svg width="30" height="30" viewBox="0 0 30 30" fill="none" xmlns="http://www.w3.org/2000/svg">
<g clip-path="url(#clip0_366_40)">
<path fill-rule="evenodd" clip-rule="evenodd" d="M24.6417 1.19599C25.2213 0.98481 25.8491 0.94345 26.4513 1.07677C27.0535 1.21009 27.6052 1.51255 28.0415 1.94861C28.4777 2.38466 28.7805 2.93619 28.9141 3.53836C29.0477 4.14054 29.0066 4.76834 28.7957 5.34799L21.6477 26.772C21.4738 27.2985 21.1677 27.7715 20.7587 28.1458C20.3497 28.5202 19.8515 28.7833 19.3117 28.91C18.7732 29.0411 18.2099 29.0301 17.677 28.8779C17.144 28.7258 16.6598 28.4377 16.2717 28.042L12.4357 24.224L8.40773 26.308C8.25333 26.3881 8.08071 26.4265 7.90692 26.4194C7.73314 26.4124 7.56419 26.3601 7.41676 26.2679C7.26934 26.1756 7.14854 26.0464 7.06628 25.8932C6.98403 25.7399 6.94317 25.5679 6.94773 25.394L7.11373 19.026L21.2037 8.79199C21.3366 8.69547 21.4492 8.57372 21.5351 8.43368C21.6209 8.29365 21.6783 8.13808 21.704 7.97586C21.7298 7.81363 21.7233 7.64793 21.685 7.48821C21.6467 7.3285 21.5773 7.17789 21.4807 7.04499C21.3842 6.91209 21.2625 6.79951 21.1224 6.71366C20.9824 6.62782 20.8268 6.5704 20.6646 6.54467C20.5024 6.51895 20.3367 6.52544 20.177 6.56375C20.0172 6.60207 19.8666 6.67147 19.7337 6.76799L5.40573 17.176L1.94573 13.716C1.57284 13.343 1.29792 12.8836 1.14544 12.3787C0.992958 11.8738 0.967638 11.339 1.07173 10.822C1.1764 10.2567 1.42958 9.72946 1.8053 9.29435C2.18102 8.85923 2.66574 8.53191 3.20973 8.34599H3.21573L24.6397 1.19399L24.6417 1.19599Z" fill="#EF5F63"/>
</g>
<defs>
<clipPath id="clip0_366_40">
<rect width="28" height="28" fill="white" transform="translate(1 1)"/>
</clipPath>
</defs>
</svg>
