<svg width="30" height="30" viewBox="0 0 30 30" fill="none" xmlns="http://www.w3.org/2000/svg">
<path d="M0.0153399 2.9101C-0.0119486 1.8997 -0.0255928 1.3945 0.179586 0.98908C0.343176 0.665835 0.615212 0.387183 0.934873 0.215425C1.3358 0 1.85006 0 2.87859 0C3.93576 0 4.46435 0 4.86233 0.211464C5.18577 0.383319 5.44798 0.64789 5.61649 0.972411C5.82383 1.37173 5.81758 1.897 5.80508 2.94755C5.73645 8.71494 5.61864 21.1363 5.84306 23.5C5.97838 24.9252 5.98927 26.4138 5.96155 27.6062C5.94677 28.2419 5.93939 28.5597 5.82314 28.8559C5.64226 29.3168 5.22705 29.7214 4.76071 29.891C4.46103 30 4.12012 30 3.43829 30C2.31784 30 1.75762 30 1.44141 29.8771C0.860271 29.6513 0.554645 29.3233 0.371416 28.7288C0.27172 28.4053 0.317015 27.7919 0.407604 26.5649C0.578931 24.2445 0.682405 20.5664 0.44701 15C0.198439 8.91937 0.0758238 5.14962 0.0153399 2.9101Z" fill="#EF5F63"/>
<path d="M13.9382 2.9101C13.9655 1.8997 13.9791 1.3945 13.774 0.98908C13.6104 0.665835 13.3383 0.387183 13.0187 0.215425C12.6178 0 12.1035 0 11.075 0C10.0178 0 9.48921 0 9.09122 0.211464C8.76778 0.383319 8.50557 0.64789 8.33707 0.972411C8.12973 1.37173 8.13598 1.897 8.14848 2.94755C8.2171 8.71494 8.33492 21.1363 8.11049 23.5C7.97518 24.9252 7.96428 26.4138 7.99201 27.6062C8.00678 28.2419 8.01417 28.5597 8.13041 28.8559C8.3113 29.3168 8.72651 29.7214 9.19284 29.891C9.49252 30 9.83344 30 10.5153 30C11.6357 30 12.1959 30 12.5121 29.8771C13.0933 29.6513 13.3989 29.3233 13.5821 28.7288C13.6818 28.4053 13.6365 27.7919 13.546 26.5649C13.3746 24.2445 13.2712 20.5664 13.5065 15C13.7551 8.91937 13.8777 5.14962 13.9382 2.9101Z" fill="#EF5F63"/>
<path d="M29.9847 2.9101C30.0119 1.8997 30.0256 1.3945 29.8204 0.98908C29.6568 0.665835 29.3848 0.387183 29.0651 0.215425C28.6642 0 28.1499 0 27.1214 0C26.0642 0 25.5357 0 25.1377 0.211464C24.8142 0.383319 24.552 0.64789 24.3835 0.972411C24.1762 1.37173 24.1824 1.897 24.1949 2.94755C24.2635 8.71494 24.3814 21.1363 24.1569 23.5C24.0216 24.9252 24.0107 26.4138 24.0384 27.6062C24.0532 28.2419 24.0606 28.5597 24.1769 28.8559C24.3577 29.3168 24.7729 29.7214 25.2393 29.891C25.539 30 25.8799 30 26.5617 30C27.6822 30 28.2424 30 28.5586 29.8771C29.1397 29.6513 29.4454 29.3233 29.6286 28.7288C29.7283 28.4053 29.683 27.7919 29.5924 26.5649C29.4211 24.2445 29.3176 20.5664 29.553 15C29.8016 8.91937 29.9242 5.14962 29.9847 2.9101Z" fill="#EF5F63"/>
<path d="M16.0618 27.0899C16.0345 28.1003 16.0208 28.6055 16.226 29.0109C16.3896 29.3342 16.6617 29.6128 16.9813 29.7846C17.3822 30 17.8965 30 18.925 30C19.9822 30 20.5108 30 20.9088 29.7885C21.2322 29.6167 21.4944 29.3521 21.6629 29.0276C21.8703 28.6283 21.864 28.103 21.8515 27.0524C21.7829 21.2851 21.6651 8.86368 21.8895 6.5C22.0248 5.07482 22.0357 3.58623 22.008 2.39376C21.9932 1.75812 21.9858 1.4403 21.8696 1.14409C21.6887 0.683162 21.2735 0.278639 20.8072 0.109008C20.5075 0 20.1666 0 19.4847 0C18.3643 0 17.8041 0 17.4879 0.122889C16.9067 0.348743 16.6011 0.676744 16.4179 1.27122C16.3182 1.59468 16.3635 2.20814 16.454 3.43505C16.6254 5.75545 16.7288 9.43364 16.4935 15C16.2449 21.0806 16.1223 24.8504 16.0618 27.0899Z" fill="#EF5F63"/>
</svg>
