<svg width="269" height="30" viewBox="0 0 269 30" fill="none" xmlns="http://www.w3.org/2000/svg">
<path d="M0.0156989 2.9101C-0.0122282 1.8997 -0.0261918 1.3945 0.183789 0.98908C0.351207 0.665835 0.629609 0.387183 0.956752 0.215425C1.36706 0 1.89336 0 2.94596 0C4.02787 0 4.56882 0 4.97612 0.211464C5.30713 0.383319 5.57548 0.64789 5.74793 0.972411C5.96012 1.37173 5.95373 1.897 5.94093 2.94755C5.8707 8.71494 5.75013 21.1363 5.9798 23.5C6.11829 24.9252 6.12944 26.4138 6.10107 27.6062C6.08594 28.2419 6.07838 28.5597 5.95942 28.8559C5.77431 29.3168 5.34938 29.7214 4.87213 29.891C4.56543 30 4.21654 30 3.51876 30C2.37209 30 1.79875 30 1.47514 29.8771C0.880403 29.6513 0.567625 29.3233 0.380108 28.7288C0.278079 28.4053 0.324434 27.7919 0.417143 26.5649C0.59248 24.2445 0.698375 20.5664 0.457472 15C0.203083 8.91937 0.0775982 5.14962 0.0156989 2.9101Z" fill="#5366AA"/>
<path d="M14.2644 2.9101C14.2923 1.8997 14.3063 1.3945 14.0963 0.98908C13.9289 0.665835 13.6505 0.387183 13.3234 0.215425C12.913 0 12.3867 0 11.3342 0C10.2522 0 9.71128 0 9.30398 0.211464C8.97297 0.383319 8.70463 0.64789 8.53218 0.972411C8.31998 1.37173 8.32638 1.897 8.33917 2.94755C8.40941 8.71494 8.52997 21.1363 8.3003 23.5C8.16182 24.9252 8.15067 26.4138 8.17904 27.6062C8.19416 28.2419 8.20172 28.5597 8.32068 28.8559C8.5058 29.3168 8.93073 29.7214 9.40798 29.891C9.71467 30 10.0636 30 10.7613 30C11.908 30 12.4814 30 12.805 29.8771C13.3997 29.6513 13.7125 29.3233 13.9 28.7288C14.002 28.4053 13.9557 27.7919 13.863 26.5649C13.6876 24.2445 13.5817 20.5664 13.8226 15C14.077 8.91937 14.2025 5.14962 14.2644 2.9101Z" fill="#7F59AE"/>
<path d="M30.6864 2.9101C30.7143 1.8997 30.7283 1.3945 30.5183 0.98908C30.3509 0.665835 30.0725 0.387183 29.7453 0.215425C29.335 0 28.8087 0 27.7561 0C26.6742 0 26.1333 0 25.726 0.211464C25.3949 0.383319 25.1266 0.64789 24.9541 0.972411C24.742 1.37173 24.7484 1.897 24.7611 2.94755C24.8314 8.71494 24.9519 21.1363 24.7223 23.5C24.5838 24.9252 24.5726 26.4138 24.601 27.6062C24.6161 28.2419 24.6237 28.5597 24.7427 28.8559C24.9278 29.3168 25.3527 29.7214 25.83 29.891C26.1366 30 26.4855 30 27.1833 30C28.33 30 28.9033 30 29.2269 29.8771C29.8217 29.6513 30.1345 29.3233 30.322 28.7288C30.424 28.4053 30.3776 27.7919 30.2849 26.5649C30.1096 24.2445 30.0037 20.5664 30.2446 15C30.499 8.91937 30.6245 5.14962 30.6864 2.9101Z" fill="#EF5F63"/>
<path d="M16.4377 27.0899C16.4097 28.1003 16.3958 28.6055 16.6058 29.0109C16.7732 29.3342 17.0516 29.6128 17.3787 29.7846C17.789 30 18.3153 30 19.3679 30C20.4498 30 20.9908 30 21.3981 29.7885C21.7291 29.6167 21.9975 29.3521 22.1699 29.0276C22.3821 28.6283 22.3757 28.103 22.3629 27.0525C22.2927 21.2851 22.1721 8.86368 22.4018 6.5C22.5403 5.07482 22.5514 3.58623 22.523 2.39376C22.5079 1.75812 22.5004 1.4403 22.3814 1.14409C22.1963 0.683162 21.7713 0.278639 21.2941 0.109008C20.9874 0 20.6385 0 19.9407 0C18.7941 0 18.2207 0 17.8971 0.122889C17.3024 0.348743 16.9896 0.676744 16.8021 1.27122C16.7001 1.59468 16.7464 2.20814 16.8391 3.43505C17.0144 5.75545 17.1203 9.43364 16.8794 15C16.6251 21.0806 16.4996 24.8504 16.4377 27.0899Z" fill="#BC6479"/>
<path d="M47.8285 24.55C45.9179 24.55 44.2966 24.1561 42.9645 23.3682C41.6324 22.5718 40.6202 21.4671 39.9278 20.0542C39.2355 18.6412 38.8893 17.0013 38.8893 15.1345C38.8893 13.3618 39.2442 11.769 39.9541 10.356C40.6727 8.9345 41.6981 7.81268 43.0302 6.99059C44.3711 6.15993 45.9793 5.7446 47.8547 5.7446C49.888 5.7446 51.5619 6.1685 52.8765 7.01628C54.191 7.8555 55.1682 8.98588 55.808 10.4074C56.4565 11.8204 56.7808 13.3961 56.7808 15.1345C56.7808 16.282 56.6099 17.4166 56.2681 18.5384C55.9263 19.6517 55.3917 20.6622 54.6643 21.5699C53.9456 22.4776 53.0211 23.2013 51.8905 23.7408C50.76 24.2803 49.406 24.55 47.8285 24.55ZM48.0388 23.0985C49.1693 23.0985 50.1071 22.7688 50.852 22.1094C51.5969 21.45 52.1534 20.5509 52.5215 19.4119C52.8984 18.273 53.0868 16.9842 53.0868 15.5455C53.0868 13.8756 52.8896 12.4156 52.4952 11.1653C52.1096 9.91502 51.5093 8.94306 50.6942 8.24942C49.888 7.54722 48.8582 7.19611 47.605 7.19611C46.4131 7.19611 45.4491 7.54722 44.7129 8.24942C43.9767 8.94306 43.4378 9.85935 43.096 10.9983C42.7629 12.1287 42.5964 13.3618 42.5964 14.6977C42.5964 16.3248 42.7848 17.772 43.1617 19.0394C43.5473 20.3068 44.1432 21.3002 44.9495 22.0195C45.7558 22.7388 46.7856 23.0985 48.0388 23.0985Z" fill="#2E475D"/>
<path d="M58.1655 24.139V23.3169L59.743 22.8544C59.9271 22.7945 60.0673 22.7088 60.1637 22.5975C60.2689 22.4862 60.3214 22.3406 60.3214 22.1608V7.40164C60.3214 7.18755 60.2601 7.01628 60.1374 6.88783C60.0235 6.75081 59.8438 6.63949 59.5984 6.55385L58.0735 6.00151V5.29502L63.529 4.55V22.1608C63.529 22.3492 63.5816 22.499 63.6868 22.6104C63.8007 22.7131 63.9365 22.7945 64.0943 22.8544L65.5535 23.3169V24.139H58.1655Z" fill="#2E475D"/>
<path d="M66.8102 24.139V23.3169L68.4403 22.8544C68.6068 22.8031 68.7427 22.7217 68.8478 22.6104C68.953 22.499 69.0056 22.3492 69.0056 22.1608V13.8756C69.0056 13.6615 68.9486 13.4903 68.8347 13.3618C68.7208 13.2334 68.5367 13.122 68.2826 13.0278L66.8628 12.514V11.8075L72.2263 11.0111V22.1608C72.2263 22.3492 72.2789 22.499 72.3841 22.6104C72.4892 22.7217 72.6251 22.8031 72.7916 22.8544L74.3297 23.3169V24.139H66.8102Z" fill="#2E475D"/>
<path d="M81.1943 24.2546L76.3304 13.0535C76.2515 12.8737 76.1463 12.7367 76.0149 12.6425C75.8922 12.5397 75.7125 12.4412 75.4759 12.347L74.5162 11.9617V11.1524H81.3915V11.9617L79.4722 12.4883L82.246 18.988L82.8901 20.735H82.969L86.1371 12.6939L84.2967 11.9617V11.1524H89.463V11.9617L88.4771 12.514C88.2755 12.6168 88.1046 12.7196 87.9644 12.8223C87.8242 12.9165 87.7146 13.0535 87.6358 13.2334L84.1521 21.48L82.7192 24.2546H81.1943Z" fill="#2E475D"/>
<path d="M96.4649 24.4344C95.1942 24.4344 94.0636 24.1775 93.0733 23.6637C92.0918 23.1499 91.3205 22.392 90.7596 21.3901C90.2075 20.3882 89.9315 19.1593 89.9315 17.7035C89.9315 16.4532 90.1988 15.3057 90.7334 14.261C91.2767 13.2162 92.0436 12.377 93.0339 11.7433C94.0242 11.1096 95.1986 10.7928 96.557 10.7928C97.7576 10.7928 98.7742 11.0368 99.6068 11.525C100.439 12.0045 101.075 12.6339 101.513 13.4132C101.951 14.1925 102.17 15.0188 102.17 15.8923C102.17 15.9951 102.166 16.1407 102.157 16.3291C102.148 16.5089 102.135 16.6887 102.118 16.8686C102.109 17.0398 102.096 17.1726 102.078 17.2668H93.0602L93.1127 16.0336H98.8443C98.8443 15.28 98.7655 14.6078 98.6077 14.0169C98.4587 13.426 98.2002 12.9593 97.8321 12.6168C97.4728 12.2743 96.9776 12.103 96.3466 12.103C95.7331 12.103 95.2248 12.2528 94.8217 12.5526C94.4186 12.8523 94.1031 13.2505 93.8752 13.7472C93.6473 14.2353 93.4852 14.7748 93.3888 15.3657C93.3012 15.948 93.2573 16.526 93.2573 17.0998C93.2573 18.0931 93.3888 18.9966 93.6517 19.8101C93.9234 20.6151 94.3835 21.2531 95.032 21.7241C95.6893 22.195 96.5876 22.4305 97.7269 22.4305C98.3755 22.4305 98.9539 22.3578 99.4622 22.2122C99.9705 22.058 100.417 21.8782 100.803 21.6727C101.197 21.4586 101.526 21.2702 101.789 21.1075H102.144V22.2892C101.522 22.7859 100.711 23.2698 99.712 23.7408C98.7216 24.2032 97.6393 24.4344 96.4649 24.4344Z" fill="#2E475D"/>
<path d="M103.762 24.139V23.3169L105.221 22.8673C105.388 22.8159 105.523 22.7345 105.629 22.6232C105.734 22.5033 105.786 22.3535 105.786 22.1736V13.9655C105.786 13.7086 105.734 13.5031 105.629 13.349C105.523 13.1948 105.339 13.0749 105.077 12.9893L103.683 12.4755V11.769L108.836 10.8955V13.76H108.889C109.257 13.1948 109.638 12.6896 110.033 12.2443C110.427 11.799 110.861 11.4479 111.334 11.191C111.807 10.9255 112.342 10.7928 112.938 10.7928C113.411 10.7928 113.805 10.8356 114.121 10.9212C114.445 11.0069 114.769 11.131 115.094 11.2937V14.9289H113.661L113.201 13.9399C113.122 13.7771 112.938 13.6358 112.649 13.516C112.368 13.3961 112.088 13.3361 111.807 13.3361C111.439 13.3361 111.093 13.3875 110.769 13.4903C110.453 13.593 110.151 13.7515 109.862 13.9655C109.572 14.1796 109.283 14.4622 108.994 14.8133V22.1736C108.994 22.5419 109.187 22.7731 109.572 22.8673L111.36 23.3169V24.139H103.762Z" fill="#2E475D"/>
<path d="M72.201 6.675C72.201 7.84861 71.2274 8.8 70.0263 8.8C68.8252 8.8 67.8516 7.84861 67.8516 6.675C67.8516 5.5014 68.8252 4.55 70.0263 4.55C71.2274 4.55 72.201 5.5014 72.201 6.675Z" fill="#2E475D"/>
<path d="M121.446 23.4196L121.222 18.4357H122.366L123.325 20.979C123.36 21.0989 123.444 21.2231 123.575 21.3515C123.707 21.48 123.821 21.5742 123.917 21.6341C124.294 21.8739 124.728 22.0923 125.218 22.2892C125.709 22.4862 126.2 22.6446 126.691 22.7645C127.181 22.8758 127.611 22.9315 127.979 22.9315C129.092 22.9315 129.977 22.6489 130.634 22.0837C131.292 21.5185 131.62 20.7778 131.62 19.8615C131.62 19.1422 131.41 18.5641 130.989 18.1274C130.569 17.6821 129.968 17.3096 129.188 17.0099C128.496 16.7358 127.808 16.5175 127.125 16.3548C126.441 16.1835 125.766 15.9651 125.1 15.6996C124.048 15.2886 123.229 14.6849 122.642 13.8885C122.055 13.0921 121.761 12.1544 121.761 11.0754C121.761 10.0563 122.05 9.14859 122.629 8.35218C123.216 7.54722 124 6.91352 124.982 6.45109C125.972 5.9801 127.063 5.7446 128.255 5.7446C128.956 5.7446 129.64 5.78742 130.306 5.87306C130.981 5.95013 131.62 6.05289 132.225 6.18134C132.839 6.30979 133.399 6.44681 133.908 6.59239V11.268H132.764L131.91 8.87884C131.866 8.75895 131.782 8.64334 131.66 8.53201C131.546 8.42069 131.436 8.33077 131.331 8.26227C131.095 8.091 130.783 7.94114 130.398 7.81268C130.012 7.67567 129.613 7.56862 129.202 7.49155C128.79 7.41448 128.426 7.37595 128.11 7.37595C127.094 7.37595 126.301 7.62857 125.731 8.13382C125.17 8.63906 124.89 9.22994 124.89 9.90645C124.89 10.5744 125.065 11.1696 125.416 11.6919C125.766 12.2057 126.423 12.6296 127.387 12.9636C128.045 13.1948 128.693 13.3961 129.333 13.5673C129.973 13.7386 130.665 13.9741 131.41 14.2738C132.006 14.505 132.567 14.8176 133.093 15.2115C133.627 15.5969 134.061 16.0936 134.394 16.7016C134.727 17.301 134.894 18.0289 134.894 18.8853C134.894 19.8272 134.635 20.735 134.118 21.6084C133.61 22.4734 132.808 23.1798 131.712 23.7279C130.617 24.276 129.202 24.55 127.466 24.55C126.835 24.55 126.178 24.4943 125.494 24.383C124.811 24.2803 124.127 24.1432 123.444 23.972C122.76 23.7921 122.094 23.608 121.446 23.4196Z" fill="#2E475D"/>
<path d="M136.615 24.139V23.3169L138.245 22.8544C138.411 22.8031 138.547 22.7217 138.652 22.6104C138.757 22.499 138.81 22.3492 138.81 22.1608V13.8756C138.81 13.6615 138.753 13.4903 138.639 13.3618C138.525 13.2334 138.341 13.122 138.087 13.0278L136.667 12.514V11.8075L142.031 11.0111V22.1608C142.031 22.3492 142.083 22.499 142.188 22.6104C142.294 22.7217 142.429 22.8031 142.596 22.8544L144.134 23.3169V24.139H136.615Z" fill="#2E475D"/>
<path d="M145.346 24.139V23.3169L146.779 22.8673C146.945 22.8159 147.081 22.7345 147.186 22.6232C147.3 22.5033 147.357 22.3535 147.357 22.1736V13.8114C147.357 13.5973 147.296 13.426 147.173 13.2976C147.059 13.1606 146.879 13.0493 146.634 12.9636L145.346 12.4755V11.769L150.433 10.8955V13.0278H150.499C150.981 12.377 151.463 11.8932 151.945 11.5763C152.427 11.2595 152.909 11.0497 153.391 10.9469C153.873 10.8442 154.351 10.7928 154.824 10.7928C155.621 10.7928 156.34 10.9469 156.98 11.2552C157.628 11.5635 158.141 12.0516 158.518 12.7196C158.895 13.3789 159.083 14.2439 159.083 15.3143V22.1223C159.083 22.3278 159.14 22.4905 159.254 22.6104C159.368 22.7217 159.504 22.8073 159.662 22.8673L160.924 23.3169V24.139H154.022V23.3169L155.31 22.8673C155.468 22.8073 155.599 22.7217 155.705 22.6104C155.819 22.4905 155.876 22.3278 155.876 22.1223V16.4704C155.876 15.6996 155.814 15.0445 155.691 14.505C155.569 13.957 155.328 13.5417 154.968 13.2591C154.609 12.9765 154.07 12.8352 153.352 12.8352C152.878 12.8352 152.383 12.908 151.866 13.0535C151.349 13.1991 150.915 13.516 150.565 14.0041V22.1736C150.565 22.362 150.617 22.5076 150.722 22.6104C150.836 22.7131 150.972 22.7988 151.13 22.8673L152.26 23.3169V24.139H145.346Z" fill="#2E475D"/>
<path d="M173.307 21.0689H173.675V22.2635C173.079 22.7688 172.33 23.2569 171.427 23.7279C170.533 24.1989 169.508 24.4344 168.351 24.4344C167.071 24.4344 165.98 24.1475 165.078 23.5738C164.175 22.9914 163.483 22.2122 163.001 21.2359C162.527 20.2511 162.291 19.1593 162.291 17.9604C162.291 16.9842 162.462 16.0679 162.803 15.2115C163.145 14.3466 163.636 13.5845 164.276 12.9251C164.924 12.2657 165.696 11.7519 166.589 11.3837C167.492 11.0154 168.496 10.8313 169.6 10.8313C170.275 10.8313 170.853 10.8913 171.335 11.0111C171.817 11.131 172.22 11.268 172.545 11.4222C172.878 11.5763 173.154 11.7091 173.373 11.8204L173.031 14.4408H172.492C172.062 14.1411 171.602 13.8457 171.112 13.5545C170.63 13.2548 170.134 13.0064 169.626 12.8095C169.127 12.6039 168.614 12.5012 168.088 12.5012C167.834 12.5012 167.584 12.5654 167.339 12.6939C167.093 12.8223 166.87 13.015 166.668 13.2719C166.519 13.4603 166.366 13.7343 166.208 14.094C166.05 14.4451 165.915 14.8818 165.801 15.4042C165.696 15.9266 165.643 16.5303 165.643 17.2154C165.643 18.8596 165.989 20.1355 166.681 21.0433C167.374 21.951 168.439 22.4048 169.876 22.4048C170.367 22.4048 170.827 22.3321 171.256 22.1865C171.686 22.0323 172.071 21.8525 172.413 21.647C172.764 21.4329 173.062 21.2402 173.307 21.0689Z" fill="#2E475D"/>
<path d="M174.763 24.139V23.3169L176.341 22.8544C176.525 22.7945 176.665 22.7088 176.761 22.5975C176.867 22.4862 176.919 22.3406 176.919 22.1608V7.40164C176.919 7.18755 176.858 7.01628 176.735 6.88783C176.621 6.75081 176.442 6.63949 176.196 6.55385L174.671 6.00151V5.29502L180.127 4.55V22.1608C180.127 22.3492 180.179 22.499 180.285 22.6104C180.398 22.7131 180.534 22.7945 180.692 22.8544L182.151 23.3169V24.139H174.763Z" fill="#2E475D"/>
<path d="M187.286 24.3959C186.55 24.3959 185.906 24.2289 185.354 23.8949C184.801 23.5524 184.372 23.1113 184.065 22.5718C183.767 22.0238 183.618 21.4372 183.618 20.812C183.618 19.9899 183.824 19.2963 184.236 18.7311C184.657 18.1574 185.187 17.6949 185.827 17.3438C186.475 16.9927 187.159 16.7358 187.878 16.5731C188.596 16.4104 189.262 16.3291 189.876 16.3291C189.99 16.3291 190.169 16.3419 190.415 16.3676C190.66 16.3847 190.91 16.4061 191.164 16.4318C191.418 16.4489 191.602 16.4575 191.716 16.4575L191.729 14.6335C191.738 13.7686 191.589 13.1734 191.282 12.848C190.976 12.5226 190.48 12.3599 189.797 12.3599C189.403 12.3599 188.999 12.437 188.587 12.5911C188.176 12.7452 187.768 12.9422 187.365 13.182C186.971 13.4132 186.602 13.6487 186.261 13.8885C185.919 14.1282 185.625 14.3252 185.38 14.4794H184.867L184.539 11.9232C184.977 11.7348 185.454 11.5549 185.971 11.3837C186.489 11.2124 187.054 11.0711 187.667 10.9598C188.29 10.8484 188.969 10.7928 189.705 10.7928C190.537 10.7928 191.357 10.9169 192.163 11.1653C192.969 11.4136 193.635 11.8461 194.161 12.4627C194.687 13.0707 194.946 13.9184 194.937 15.006L194.871 21.6727C194.871 21.9467 194.972 22.1694 195.174 22.3406C195.375 22.5119 195.642 22.5975 195.975 22.5975C196.098 22.5975 196.278 22.5761 196.514 22.5333C196.751 22.4819 196.966 22.4263 197.159 22.3663H197.421V23.304C197.246 23.4325 196.983 23.5823 196.633 23.7536C196.291 23.9249 195.918 24.0747 195.515 24.2032C195.121 24.3316 194.744 24.3959 194.385 24.3959C193.57 24.3959 192.93 24.2332 192.465 23.9077C192.01 23.5823 191.782 23.0171 191.782 22.2122H191.703C191.274 22.8544 190.792 23.334 190.257 23.6508C189.731 23.9591 189.21 24.1604 188.693 24.2546C188.176 24.3488 187.707 24.3959 187.286 24.3959ZM189.061 22.4948C189.508 22.4948 189.981 22.4048 190.48 22.225C190.98 22.0366 191.383 21.7155 191.69 21.2616L191.716 17.5237C190.761 17.5237 189.928 17.6136 189.218 17.7934C188.509 17.9647 187.956 18.2516 187.562 18.654C187.176 19.0565 186.984 19.596 186.984 20.2725C186.984 20.8377 187.089 21.283 187.299 21.6084C187.518 21.9339 187.786 22.1651 188.101 22.3021C188.425 22.4305 188.745 22.4948 189.061 22.4948Z" fill="#2E475D"/>
<path d="M197.937 24.139V23.3169L199.567 22.8544C199.734 22.8031 199.87 22.7217 199.975 22.6104C200.08 22.499 200.132 22.3492 200.132 22.1608V13.8756C200.132 13.6615 200.075 13.4903 199.962 13.3618C199.848 13.2334 199.664 13.122 199.409 13.0278L197.99 12.514V11.8075L203.353 11.0111V22.1608C203.353 22.3492 203.406 22.499 203.511 22.6104C203.616 22.7217 203.752 22.8031 203.918 22.8544L205.457 23.3169V24.139H197.937Z" fill="#2E475D"/>
<path d="M206.668 24.139V23.3169L208.127 22.8673C208.294 22.8159 208.43 22.7345 208.535 22.6232C208.64 22.5033 208.693 22.3535 208.693 22.1736V13.9655C208.693 13.7086 208.64 13.5031 208.535 13.349C208.43 13.1948 208.246 13.0749 207.983 12.9893L206.589 12.4755V11.769L211.743 10.8955V13.76H211.795C212.163 13.1948 212.545 12.6896 212.939 12.2443C213.333 11.799 213.767 11.4479 214.24 11.191C214.714 10.9255 215.248 10.7928 215.844 10.7928C216.317 10.7928 216.712 10.8356 217.027 10.9212C217.351 11.0069 217.676 11.131 218 11.2937V14.9289H216.567L216.107 13.9399C216.028 13.7771 215.844 13.6358 215.555 13.516C215.274 13.3961 214.994 13.3361 214.714 13.3361C214.345 13.3361 213.999 13.3875 213.675 13.4903C213.36 13.593 213.057 13.7515 212.768 13.9655C212.479 14.1796 212.19 14.4622 211.9 14.8133V22.1736C211.9 22.5419 212.093 22.7731 212.479 22.8673L214.267 23.3169V24.139H206.668Z" fill="#2E475D"/>
<path d="M141.997 6.675C141.997 7.84861 141.023 8.8 139.822 8.8C138.621 8.8 137.648 7.84861 137.648 6.675C137.648 5.5014 138.621 4.55 139.822 4.55C141.023 4.55 141.997 5.5014 141.997 6.675Z" fill="#2E475D"/>
<path d="M203.35 6.675C203.35 7.84861 202.376 8.8 201.175 8.8C199.974 8.8 199.001 7.84861 199.001 6.675C199.001 5.5014 199.974 4.55 201.175 4.55C202.376 4.55 203.35 5.5014 203.35 6.675Z" fill="#2E475D"/>
<rect x="228" y="6" width="41" height="19" rx="3" fill="#D9CEE7"/>
<path d="M241.47 15.43C241.843 15.4967 242.16 15.6933 242.42 16.02C242.68 16.3467 242.81 16.7167 242.81 17.13C242.81 17.4833 242.717 17.8033 242.53 18.09C242.35 18.37 242.087 18.5933 241.74 18.76C241.393 18.92 240.99 19 240.53 19H237.75V12.05H240.4C240.873 12.05 241.28 12.13 241.62 12.29C241.96 12.45 242.217 12.6667 242.39 12.94C242.563 13.2067 242.65 13.5067 242.65 13.84C242.65 14.24 242.543 14.5733 242.33 14.84C242.117 15.1067 241.83 15.3033 241.47 15.43ZM238.89 14.97H240.3C240.673 14.97 240.963 14.8867 241.17 14.72C241.383 14.5467 241.49 14.3 241.49 13.98C241.49 13.6667 241.383 13.4233 241.17 13.25C240.963 13.07 240.673 12.98 240.3 12.98H238.89V14.97ZM240.43 18.07C240.817 18.07 241.12 17.9767 241.34 17.79C241.56 17.6033 241.67 17.3433 241.67 17.01C241.67 16.67 241.553 16.4 241.32 16.2C241.087 16 240.777 15.9 240.39 15.9H238.89V18.07H240.43ZM249.099 16.11C249.099 16.3167 249.085 16.5033 249.059 16.67H244.849C244.882 17.11 245.045 17.4633 245.339 17.73C245.632 17.9967 245.992 18.13 246.419 18.13C247.032 18.13 247.465 17.8733 247.719 17.36H248.949C248.782 17.8667 248.479 18.2833 248.039 18.61C247.605 18.93 247.065 19.09 246.419 19.09C245.892 19.09 245.419 18.9733 244.999 18.74C244.585 18.5 244.259 18.1667 244.019 17.74C243.785 17.3067 243.669 16.8067 243.669 16.24C243.669 15.6733 243.782 15.1767 244.009 14.75C244.242 14.3167 244.565 13.9833 244.979 13.75C245.399 13.5167 245.879 13.4 246.419 13.4C246.939 13.4 247.402 13.5133 247.809 13.74C248.215 13.9667 248.532 14.2867 248.759 14.7C248.985 15.1067 249.099 15.5767 249.099 16.11ZM247.909 15.75C247.902 15.33 247.752 14.9933 247.459 14.74C247.165 14.4867 246.802 14.36 246.369 14.36C245.975 14.36 245.639 14.4867 245.359 14.74C245.079 14.9867 244.912 15.3233 244.859 15.75H247.909ZM251.551 14.42V17.47C251.551 17.6767 251.597 17.8267 251.691 17.92C251.791 18.0067 251.957 18.05 252.191 18.05H252.891V19H251.991C251.477 19 251.084 18.88 250.811 18.64C250.537 18.4 250.401 18.01 250.401 17.47V14.42H249.751V13.49H250.401V12.12H251.551V13.49H252.891V14.42H251.551ZM253.561 16.22C253.561 15.6667 253.675 15.1767 253.901 14.75C254.135 14.3233 254.448 13.9933 254.841 13.76C255.241 13.52 255.681 13.4 256.161 13.4C256.595 13.4 256.971 13.4867 257.291 13.66C257.618 13.8267 257.878 14.0367 258.071 14.29V13.49H259.221V19H258.071V18.18C257.878 18.44 257.615 18.6567 257.281 18.83C256.948 19.0033 256.568 19.09 256.141 19.09C255.668 19.09 255.235 18.97 254.841 18.73C254.448 18.4833 254.135 18.1433 253.901 17.71C253.675 17.27 253.561 16.7733 253.561 16.22ZM258.071 16.24C258.071 15.86 257.991 15.53 257.831 15.25C257.678 14.97 257.475 14.7567 257.221 14.61C256.968 14.4633 256.695 14.39 256.401 14.39C256.108 14.39 255.835 14.4633 255.581 14.61C255.328 14.75 255.121 14.96 254.961 15.24C254.808 15.5133 254.731 15.84 254.731 16.22C254.731 16.6 254.808 16.9333 254.961 17.22C255.121 17.5067 255.328 17.7267 255.581 17.88C255.841 18.0267 256.115 18.1 256.401 18.1C256.695 18.1 256.968 18.0267 257.221 17.88C257.475 17.7333 257.678 17.52 257.831 17.24C257.991 16.9533 258.071 16.62 258.071 16.24Z" fill="#8C6AB7"/>
</svg>
